<mxfile host="app.diagrams.net" agent="Mozilla/5.0 (X11; Linux x86_64) AppleWebKit/537.36 (KHTML, like Gecko) Chrome/131.0.0.0 Safari/537.36" version="26.0.10">
  <diagram name="Page-1" id="dU0xfyBS1JXjFSU7Cg0d">
    <mxGraphModel dx="1364" dy="759" grid="1" gridSize="10" guides="1" tooltips="1" connect="1" arrows="1" fold="1" page="1" pageScale="1" pageWidth="827" pageHeight="1169" math="0" shadow="0">
      <root>
        <mxCell id="0" />
        <mxCell id="1" parent="0" />
        <mxCell id="P-ReLISwFB9qMGB5_NRq-20" value="" style="rounded=1;whiteSpace=wrap;html=1;dashed=1;" vertex="1" parent="1">
          <mxGeometry x="630" y="186.5" width="190" height="200" as="geometry" />
        </mxCell>
        <mxCell id="P-ReLISwFB9qMGB5_NRq-16" value="" style="rounded=1;whiteSpace=wrap;html=1;dashed=1;" vertex="1" parent="1">
          <mxGeometry x="20" y="40" width="190" height="370" as="geometry" />
        </mxCell>
        <mxCell id="P-ReLISwFB9qMGB5_NRq-9" value="" style="rounded=1;whiteSpace=wrap;html=1;dashed=1;" vertex="1" parent="1">
          <mxGeometry x="290" y="420" width="370" height="335" as="geometry" />
        </mxCell>
        <mxCell id="P-ReLISwFB9qMGB5_NRq-1" value="" style="shape=image;verticalLabelPosition=bottom;labelBackgroundColor=default;verticalAlign=top;aspect=fixed;imageAspect=0;image=data:image/png,iVBORw0KGgoAAAANSUhEUgAAAgAAAAIACAYAAAD0eNT6AAAABHNCSVQICAgIfAhkiAAAAAlwSFlzAAAOxAAADsQBlSsOGwAAABl0RVh0U29mdHdhcmUAd3d3Lmlua3NjYXBlLm9yZ5vuPBoAACAASURBVHic7L13mCVVmfj/qaqbOufc02FyHmYGBoawkhEkCAgoCOawCkZWV9eA+vW3rmHNAXTNGFBUQAVEhihDGtIkJnfPdM7dN4eq8/vjTjOd+4aqm/p8nqcfmL51z3n73qpz3vNGBYlEknk0Ni7FsL0JRbwewRKgGnCkW6wYCQO9oBxBiAdQ1LvpOrIv3UJJJJLJKOkWQCKRTGDRonp09f8BNwFausUxCQOFOyHyaTo7O9ItjEQiiSIVAIkkU2hoOQ0h/gzUplsUixhE4Ro62x9JtyASiUQqABJJZtDQvBXBNsCVblEsJoShXEhP22PpFkQiWehIBUAiSTdRs/8OcvfkP5UB0DbTdfhougWRSBYyaroFkEgWPFGf/0LZ/AEqQf9KuoWQSBY60gIgkaSTxsalGNqr5E7AX6wIdGM9vcd2pVsQiWShIi0AEkk60W3XsPA2fwAFTbsm3UJIJAsZqQBIJOlEMV6fbhHShsLF6RZBIlnISAVAIkkvrekWIG0IsXD/dokkA5AKgESSVpSadEuQRipYsyZbqhtKJDmHVAAkkvSykDdAhYEBe7qFkEgWKlIBkEgkEolkASIVAIlEIpFIFiBSAZBIJBKJZAEiFQCJRCKRSBYgUgGQSCQSiWQBIhUAiUQikUgWIFIBkEgkEolkASIVAIlEIpFIFiBSAZBIJBKJZAFiS7cAkjRSuaIIe6gcxShHEeUIFBTFiyFCk65TtQhCGSagjjB0cCxN0kpipH6pm9LqQEzX5pfHNuZon4MDz5YkIZUkJSxd6iQUyieklqDiQhgFqEoJQpw47CmKgSFG0YwxgjY3zsgoHR3+NEotSRNSAchl1qxxMOrdiCE2A6tALAOlCSiP/gROlGEVyvH/AooyeRxhRP/r0qG+2QBGgOHof8UA0ANqO8LoRFU6iRjtOJVOjh4dtvgvlMxAUXmIqkZfTNeWNMY2pmYXSUgkSYqWllICRgMq9SjUYSiNKNQCi4BaoBEoAErwhVVQQD3+fSlK9JlmwjM9/owbGthF9L/1zcNAF4gOUPchjF1o6iuUFLzI7t2TDwSSnEEqALlG/ZJFCP1qFHEpw54zAeeJF5VZ3xYHKq8pEBPHFCcWG02FCFDf7APagP2g7AexL/oT2UdX14AZwkgkOUH50mKcweUo6nJQVoBYDkR/QqIQdaKCbokEZdEfZQ2Ii6IKgoBhj4/6ln+hiAew8Vva27stmV2SFqQCkCs0tm7BMP4TIpejoKVbnOPkA6ujP+MnSAWwQ33zILAf2ItQdqLxEjZeoq1tJF3CSiSWU7miCId/A7ARlHUoLEewAsK1J0KyMsrakg/iAgQXEOar1Dffj2F8kZ5jz6VbMEnySAUg26mqKsSe910M421YdTawhgpgK7AVRYABhID65iPASyCO/9hfouvw0bRKKpEkQkNDBULbRHSz3whsgsBSUE744zNqr58XDbgUVX0D9c2/IeT6dwb2udMtlCRxpAKQzVS11GIXDwLr0y2KibRGf5Qro/qMDvXN/aBsB7YjlKdQgs/T1RWbk1siSQVLlzrxhU4GzgBOB2UjgqZ0i2URCnADjsBG6pe8nq5Dx9ItkCQxpAKQrTQ25mGIv5Jbm/9sVIG4HLgcRQD2MA0tLyGIKgVo/5KLkCSlRE/3p4N6Bogz8YVPBsU5/xtzitUQ+Ss1NafT2+tNtzCS+JEKQLZiaF8ANqdbjDRhR4hTgFOAD0Fk3HWwDdhGWNlGf1tPekWU5BSLFtVjKOcjlDOBMxCsApRss+FbwHpU1xeBj6dbEEn8ZJPPWDJOY+NSDG0vUoGbi92gPAxsw8FjGRtcWN9s+g6yYssgtS2emK6NNQ2w90gez/y5OgmpZkEPFGbk6bGxMQ/DfhYYF4JyIYh16RYpgwmjs4Le9iPpFkQSH3IDyUYM7VPI724+1oBYA3yIEDr1zc+j8DcEf6Or/UXk0U0ylcbGdQjtQoS4EEM5C4y86AvyVpkHOxq3Ah9MtyCS+JCbSLaxeHEJAf3N6RYjy9CAUxGcCnyR+uZOFOVvCOOvEHlYBhQuUFpaXISMC0B5I3AxBnXRF6RhNAGup7HxVllRMLuQd3q20dB0E0L5RbrFyCH8wDYU5a+E+EvKYweyxAUQD0EPRx68jcXmj2wC5UuLcUUuAa4CcTFQmG6RcgdxOV1H70u3FJLYkRaArEM5P90S5Bh5wBsQ4g3Y+T71zdsR4g9E1N/LQMIcoaGhArQ3IJRrIHwBk6pjSkxDKGcDUgHIIqQCkG0Izkm3CDmMCpyBopyBXXyD+pZtIO5C1f9ER8dQuoWTxEFLSylB41pU5XoEZ0LGVMfMXRTOTbcIkviQCkA20bB4OUK3wGgrmQENxAXABRjaD2ho/ieCX+NQ/kRbW2yt9iSpRqOx+SIMcRMhcQWK4pLxeyllPQ0NFXR2DqZbEElsSAUgqzC2pluCBYodwcXAxYTEMPXNvwH+73g2gSTdNLauRzfehsL1GNTK0Ka0oYJtA9F6HJIsQCoA2YQhlsm1Le2UEU13+iD1zS8CP8Um7pStj1NMU1MZYfVtKOJtGMZJ8rnIEAyxFKkAZA3q/JdIMgaFJekWQTKJjcB3iShd1DffSWPrlnQLlPPUNq2mrumHRJRjKOKbwEnpFkkyAUVZmm4RJLEjFYDsQj5cmYkLuB7DeIb65udpaLoJaV0zE5X6pvOpb74PVdmForwfKEi3UJIZkWtUFiEXqexCWgAyn80I5RfUN9+GUL5D0PZThg6OpVuorKR8aTHO0DtQlJuRG0u20JpuASSxIy0A2YONqP9Zkh20oohv4gofo77561S31qRboKyhZkk19S3/gyvcgaJ8C7n5ZxNyjcoipAKQLTQ0lKRbBElCFAMfx2Ycpr7l29QssaCjTo4Q3fi/ghY5AuITQFG6RZLEjVynsgipAGQLuj0jF8N1W4MsPylIRa2OKkutzEU+iA+hRfZT3/Q5Kldk5PeZFlpaSo9v/G0gPgnkp1ukTEWzCaoaIqzcFGTjWQGUzFvBi5F5mFmDjAHIFjSlBJF5VU36OjXe/4VhCksMdF1huF9lsNvGYI/22k9/t8Zgt4auy3UBKAHlCzgCt1Df/NV0C5NWli514g9/kJD4L6A83eJkCppNUNMYoaLWoKJWp6JGp6IuQmWtTkmljqqCd0zhjtvKEEa6pZ2GSvnSIhn3kh1IBSBbMCLFmaju9x618aPPl/G+24YpKjWorNWprNWnXadHFHqPaXS32+g5aqerTaO73Y57OPP+phRRCSxcBaCx+RJ84W+zwP37JRUGdc1h6loi1DVHqG+OUNUQmdOaNr75d7XZUydoPOQHihhCKgBZgFQAsgVVtWVqWdPeozZuv+2EEjATmk1Q3xqhvjUCnKik6x1T6Wqz0d1uo7vNRlebnZ6jNozpOoQkF6htaUE1voXBFekWJZVomqCuRaehNUxtc+T4hh8mvzC+hzrjN38AIaSpL0uQCkC2oCgiE10A4/QetfHDz5bx/i8OU1wWu12yoNhg2foQy9aHXvtdKKDQecRGxyE7nYftHN5tZ7hfBhhkOQp1Te9BEV8HJefjH4rLDBqWhGlcEqF1VYiWFWHszuSeX79X4SdfKqerLcOXbUXJ3IVKMokMv5Mkr6Hreia6ACbS32njjtvKeN8XZrcExILDJWhdFaZ1Vfi13w31arTvt3N0v532fXa6jthkTEG2UL9kEej/d7y5Us5hswkalkRoXh6maUWI5uURSivNNWF5xxRu/3wZ3e1yyZaYh7ybsgVFzQqjeO8xG7d/PnklYCrlNTrlNTobz4q6DyJhhWMHbRzc6eDAK06O7pMKQUZS33ohRO4kGvOQE2g2QcuKMMtOCrF0bYjGJRE0m3WH3hObfwab/SciLQBZg1QAsgVFMTLZBTARq5SAidjsJ6wEF1zrJRhQOLzbwYFXoj898qSUbhTqmz4LxufJ8nRjRYHapjDL1odZtiHE4tUhHK7UPItZt/kDqGp2LFQSqQBkDYYeyXQXwERSoQRMxOkSrNocZNXmIADuYZUDOx0ceDlqIRgdzJ7PLtsROgp1LT8HcVO6ZUmU0kr9tdiUpetDKbmHp5KVmz9AJBKa/yJJJiBtptlCw+LlCH1fusWIl5pFkZQpAXPR12Fjz/MO9jznon2fHSPz8qdNY8WWQWpbPDFdW9Jo7tx6ROHpu6t9g52urCrmo6rQvDLM6pMDrD4lRHVDJK3yZO3mD1BW6GT3bqkEZAFSAcgWqltrsBk96RYjEaobI7z/C8MUxZEdYCXeMZW9O5zsfs7JvhcchEO59RhYoQAMdzs5tKN43ut8YzZGehyxDZpm7E7Byo0hVp8SZNXmAAXF1liu7VohS0oup8S1HH+kn0734wz6d856vXdM5fbPl2bn5g8Butrz0i2EJDZya+XLZZYudeILB+a/MDOpaojEnSKYCsIhhQOvOHjlKRc7n3YSCmT/I2GFAtC1P5/n/1qVhFSZgc0mWHZSiA2nB1h7aghnnrX3Y5F9EW9ccT/FjslN8jrcj/LY0Y8wEjww6fdZvvkD9NHVLhtfZQnZv9otJOqb/UR7z2clmWYJmErAp7L7WQcvPO7iwCvOTCyzGhNSAZiMosKydSE2vc7Pmi0hXPmp+2IvWfJ7WksunfG1kD7G/YffTIf7MSAnNn+AQ3S1L+jqjtmEDALMLkbJYgWgr8PGDz8Xf7GgVOHKN9h8doDNZwcYG1bZ8aiLZ/+Zx0C3fEyykdJKnY1nBTntQh/lNenIolVoLDp31lcdWjEXL/49d+87l2N9r3L758roPpr199pougWQxE7W320LjGEgq81r/Z3R7IBMtgRAtJLbOVf6OPuNPtr22tn+YD6vbHeiR6TRLJPRNMH604NsvchHy6owSpq/Lk2ZOx7CoRVxUtFX+Mz735ELmz9E1yhJlpATd9wCohtYaeaA+aU6Qa+KHk7dStnXEW0glOlKAERzwFtXh2ldPcqlb1d5+sF8nn4obyE3McpIikoNTr3Az9bX+zLIuiQYCuyhMm/9rFcMDA5x07u/kfLNX7MLnAUGvhHTS2xnZaDyQkWuYtmEQqfZQzoLDM5/fz+aPbW1O/o6bPzoc2VZtZEWlxlc+GYP/3X7AG/+0GjaU8Uk0eDS624Z49N3DHDRWzwZtPlH2T/0+1lfGxgc4uLr38rufa+mUKLo5n/++/txFljyWUkFIIvIntVXAkLpMntI94CNxrV+LvhAGpSAzmgDobEsUgIgWgp289kBbv32IO/49AgNi6UikGpqFkV484dGufVbg5x8jh+bhaV4k2FX/48ZC7VP+326Nn9VE5z7vn4a1/rxDFhgdVDoNn9QiVVk18q74DFMtwBEggoBt0bDan9aLAH9XTZu/1z2KQEQjS5ffXKQD39tkJv+Y4TK2qxo15DVVNTq3HjrCB//5iCbzw6gZniTyLDh5YHDNxA2vK/9Lp0n/ws+0E/TOj9+t0Y4aIHbzxC95g8qsYrsW3UXMgqmWwAA3IPRVTSdloAfZaElYBxFgXVbg9z63UEuf6c7pWlmCwWHS3DBdV5u/fYg608PZlNVbPp9L3LPgUvwhrsy4uQPWHP6B1ClBSCbyKLHSAKK6RYAAPfAibxjaQlIHE0TnHWpj09+P2qWlpjDxn8L8J/fH+DC6zzYUnxfmkWv93nu2H4KZ197UVpP/uO4rVIAdKkAZBPZu9ouRGy0WTGsZ2CyHbVxbXqUgL7O7FcCAApLDK67ZYy3fXKEgmJpDUiU/CLBjbeOcP1HRjM+W2Q+vGMq3/uMxuFDgymddzzgb/zkP45FCoBAjbRZMbDEGrJ7pV1otLf3AN55r4uT0b7plcfSqQT8KAeUAIC1pwa59duDrNwUTLcoWcey9SE+/q0B1p+e/Z+dd0xNS5Gf2TZ/gLE+S2TppavLZ8XAEmvI/lV2YSGAQ2YPOto7c+nRdMUE9Gd5TMBECksM3vHpEc58g1wXY+WUc/2867MjGZfSlwjp2vyn+vynMtJjSbnhw1YMKrGO7F9hFx7mKwBzLAbpjAnIFUuAqsIV73Jz+TvcWRW8lmoUBV5/g4drbx5D07LT1z+RdJ78p/r8pzKb0p8kR6wYVGIdcjnKPg6aPWDAoxL0zn4rpNMS8MPPlDE6lBu36VmX+bjyPW7L5xEWZCOmojHSxTd4OO9q0z1caSGtJ//3zn7yB/C7tTmf9ySQFoAsIzdW1oWEUEy3AMD8JsGG1elRAga6o+6AXFECtl4U7S9gJcHYGgHGjoCQxfvyaRf6OOcqufkng6oJznt/P03r585AGe2xSi5FWgCyjNxYVRcSqjgw/0XxM5cbYJx0uQMGuqMNhHLBHQBwyY1u1p1mXXBbJAQBEw0NIR/oYfPGm8rKTUGufK/1lpFU4B1T+dHn02j2n2fzB8vM/4BhydoksY7cWFEXEhHbLiuGHemObVFIV3ZALgUGKgpcd8sY1Y3WlRD2DYFhgitAGBCwsMFrRa3O9R8dRc3+r/W1zb+nPXOi/Wci1mc9blRjjzUDS6wiBx67BUbvoT6g3+xhhzpjXxTSpgR05Y4S4MwzeNsnrdtZhQF+ExqzBkas9f+/9WMj5BVkf8CfZzQ7Nn+Aoc65WxQnSC8dHUNWDCyxjuxfSRcmplsB4l0U0hYY2JU7gYFWdxMMuKPugETRwxCyuKBhdWP290/wjqnckYbNP5aAv5kY7rDEArDbikEl1pL9q+jCxHQFwD+q4XfH11klUwIDDQFhQxCIGHhDBp6ggT9sEDYE2X+2TA7flDOZoUeVgnAg6tsPB0APRjd7Q4eJH1hgdPK/FxqC6H3lD0fvKW/IIBCJ3lfG8c8l0wP+puJL4DmPkb1WDCqxltTetRJzEMpuFPNX5uEOO3mr4juRjSsBD/2gCj1sQXexWRjotvG9/yrlDR/vw1Uy+0laAeyaglNTcdoV8mwq+XYVJXWipg1FQMQD7h4wDNBDIKbcNo78Ke9RQbVFzf6+IbC5wGaJxTizEAJ8YQN/xCAYFgR1g5Ah5lSAwh4bf/9mNQMd2bH5Awwds+zLlApAFiIVgGxEETutGHao00H9qkDc7xvPDvjnj1KrBIz02rnv69W84eO95JfOrLgIIKQLQrqO+7g5XFEgz6ZS6FApdmrYtNzSBlQd1CCv6Yi6G/QYn3RxXFHwDEDweGC+qkHA7NTCDCCiC8aCOp5QdOOfqhzNhd+tcf83qxmOI3bGDBLx+U8knlifuFCQAYBZiHQBZCMB+y7A9NCswSROB+kKDBzrs/O3b9TgG4ndrDl+2uvzRjg0FKR9OMRoQM8da7fBZANRBNR4dBwxuZaAoUddBbmAIWA0oNM+HOLQUJA+bwRfOJHNvybrNn+AoQ6rLACRVywaWGIhUgHIRoYOjgH7zR528Ghyi0O6AgMTUQLGEYA/YtDtDnNwILoh6PHsBlmCEodnxzdCzvn+dSHo90Q4NBik2x2OnvgTGCeQps0/0YC/qQy0W6IAtNHZmdo2hxJTkApA9rLD7AFHuu2E/cndEukKDExGCRhHF4IhX3ST6PfkmCIQIra4B2Ft3n+q0Q0RtfQMBhn0J/edBtwaf0/T5p+oz38iIb/K2AydP03gRSsGlViPVACyFUUxXQEQAgZMCBJKtxLgHU4uytkQMOiPcHgoxEhAz5nTcCz9dYK+6YGCWYmAEb/O4eEQQ77Ia1H7iZLtmz/AQJvDmu9WkQpAtiIVgGzF0J+3YtiBNnNMhOlUAv7+jdqklQCInh573GHaRkIEI9m/K4oYagIERqyXw2pCEUHbSIgeTxg92Z2f3Nj8AfrbnKaMMwMvWDWwxFqkApCtRAIvAqZXUTFzkUibEtBv469fq8UzaE6SSyBi0DYcZMgfyW5jgAHaHE+80JMrHJRuBDDk1zkyHCQQMSdG1p8jmz9AvzX+f1ANaQHIUqQCkK3093uAfaYPa5IFYJx0NRDyDNq4/5vJuwPGEUCfJ0LHWChpc3JamaP4YDan+ukCOkdD9HnCpilpfrfG/f+bnmj/WBv7xINZ1r0p9HLsWJcVA0usRyoAWY141uwRPYM2/KPmVgpLW4pgv800d8A43qBB20iQULa6BObo6hfM0oZ8oYigfTiIJ2ReZuxrm39X9qX6zYRvVMM7bEXZF+UZCwaVpAhZCCirUf4FvN3sUXsOOWndZG7P+sa1fs59Tz/b7qhCj6Su8M64EnDyVcOUN4QprgqjJKn2hiKC9pEQjSV28uyZr0OHIxoBv4NwWCMc0dAVFd2Iyj14vFSwqhhEAgY2m47doePMC2F3ZH6dfn/YoGM0bErGhhDgHrAx3OVgx19KU7/528xJ9ZuJngMu08cEQPC0NQNLUoFUALIZQzwVX4WX2Oi1QAEwdCgs9nPKZf08e28Vhp5aJWDb7VVA9IRVWhumrCFM7bIADasDFJbH35RHF4JjoyEaShwUZJgS4PG6CATsBAIO/AE7kcgcFpC+2V/SbAauvBCughCGnll/I4A3ZNCZhEvGN6rRuSePnv1OhjodjPTYiQTTUxVS1QSnXNZPYZEfIxItx2wmvQctCgBUhVQAshipAGQzPUf3Ut88BJSbOWyvyacFYcBoR7TEbHWrny2Xp14JGEcPKwweczB4zMHBpwsAKKkJ07AmwKK1fhpW+WO2EBgCOkZCLCp1kJ9BSsDwcIEp4+gRFa/bhddt0ekxCXxhg47RUFz+fiGge7+LY6/k0bk3L+W+/dlQNcGWy/upbvWjh2D0GJQsMlcJsEgB0An5nrNiYElqkApAdiOAp4BLzRx0qMNBOKBidyXvUx3f/CMTSslWt/rZckU/z96THiVgKqO9dkZ77ezZVkR+iU7rZh8rznRT1jCHw/w4AugYDdFU4sCVQUpALhOIc/P3DmsceqaAV58swt2fWUueqgpOviy6+Y8TGVcCmqJ9GJIl7FfjbvcdIzuPByNLspTMehok8SOUp1CEqQqAoUPfEQcNCTQGmoSA0U4Iz+DSrG5JryVgNnyjGru3FbF7WxE1S4Osu2CM5g2+aFvBWTAEHBsL01LqwJ5jjYUyjbAuODYajsnsf2xXHjv/UUz3fldGFnOaePKfSiQEY11Q0kDSMSu9h5wI0zuHAEKa/7MdqQBkPcq/rFjdeg+4klYA3D0QniOUoKIxQHVzgJ7DeUnNYxW9B530HqyivDHExjeM0rJxdkVANwQdYyGaS51WhGVIiCpanWPzBPwJOLorj5f+Wmp6SqvZVDcHqGic/RkL+8DTB0W1yc3TY5n/X5UKQJYjFYBsxymeJUQAMNVR2/Wqi02XJ/5+/wgExmZ+TQjo2FPI3idLCXjNTTm0gqEOBw/fXkV5Q4hTrhqZNUo7GBH0eMLUF2WGbznX6HWH5yzw073PxbN3l1nV8MZ0eg7n8fBPG1h15giNqz0z9moIjII9D1wlic/T9apFMRw6j1kzsCRVSAUg22lrC1DfvB04x8xh+9sSjwOIBKMnl5kYG7Dz0j8qGenJjkV6IkOdDh78bjWtm32cdt0Q+SXT0+TGAjqFDpViZ+YrNtnEaFBnNDhzWqLfrfHsH8s4+ExBRpr65yLg1XjxwQraXi5kw4WDFFdOjzvx9IHNBbYEDvIhv8pAuyUWgHZ62tqsGFiSOmTUUi6g8IjZQxq6Qs+B+BcOYcBYJ9MWYsNQOPhcMY/fWZeVm/9EjuzI5+7P17P74aIZfau9njCRGJzU7lk2tIWENzy/ghkxBH2eGQIyBRx8uoA/3VYfzejIss1/IsM9Th7/dR17niibFhMjjGg8QCJ+/O79Lmv8/wjT1xxJ6pEKQC4gxDYrhu1MwHTo7gF9ylrtHbHxxG9qZ1zcspWQX+Xpu8p54Fs1+Mcmn/Z1A3rcc2cQRBsNxV9/INfodc8f0NfjDqNP2cQCHpUHv1fNYz+rJODJjWVsXEl+4re1eEcmG2f1EHh64x/TMvO/okrzfw6QG0/OQqeu6lnA9HScrr3xBeeFvNPLyXYfyOfxO+sY7cvuU/9sdO1z8ecv1tG1d/JC6wkZeOcoTdvnTa43fa4w6+n+ON6gMa3E70Cbg3v/u46OXZkZPJoso30OHvt1HZ2vTq7nEBiDUJz1uabel6ah86g1A0tSiVQAcoEdO8LAk2YPO9xlj7kvgDAm+/2FAbseLee5+6oIB3P7NvO7NR78bg2vPFA8yQzd6wnP2H/dFzYYC0jz/zgjQR3/DK4AIaDXO1k52P1wEfd9tRb3QG6HL0VCKjv+XsmuR8smmfA9vcTs6vCNaoz0WBKQKv3/OUJur8wLCgt8cgI69sR2yvINRc2UAJGQwnP3VnP4hSLTRcpUDB2e+3MZT/yq4rUFO6QLRqds9ONdBeXZfwIiahGZ+pmMBHRCevS3QsD235Xz9F3lOeNGioXDLxTz3L3VRELRv1kPRZ+1WOjYnWdRXIT0/+cKUgHIFRT1H1YMe2zn/AqAHgb/cPT/g16Nf91Vm7G5/Vaz/1+FbPvxiYZHg/7JG5s7qL+Wynb05YX5GU3k6M58INrUxzMhKFIAQ/5ojIShKzz2s0r2PLJwFMqJ9BzO41+/ryV4PGXWNwRGDOEjHTE8u4mhPGTRwJIUIxWAXKGz7WXA9L7cXXtdGPNYqz39UZN/0Kvx1N01Oevvj5W2F/J58NvVhP0qYV1MMvf3e6Ir95Ed+Tx8vEHRQubR/6vkwPZCAPonWAHGAjphXaBHFLb9uJJDz5jT3yBbGe138K+7avB7NIQB3v65rzd0hU5r/P8Guu2fVgwsST1SAcgdBPCg2YMGfSp9h2ZfSCJBCLnB77bx5O9qcQ/IIjgQTb/6xw+q0MMKw/6oAjAW0AkbgoNPF/DITzKrBHK6EAY88YsK9j1ZSEgXr1kBhv06hq7w0PeqaX8xP81SZgaeYTtP3VWL320jMHbC5TYTvYechPyWLO8v0Htojh6SkmxCKgC5hCIesGLYjt2zKwC+gWhK3PY/VuMdbxlCSQAAIABJREFUze3ArHjp2e9i24+r8IcMAmGDIb/O0ZfzePwXlRblZmcnQsCTv67gwPZCBv1RF0kgbPDkr8qtOsVmLd4RG0/dVUPQq+EbnP26Y69YZP4XWLLGSNKDVAByCY2HANOTy2eLA9DD4B1SefpPNXiG5cl/Jo6+nMdTvy2nxx2mbY+DbT+ukpv/TAh48lflHHzRSY87wvN/KX3NNSCZjHfUxjP3VOMZVGeNBThmVYqkIky3MkrSh6xXmkuMjgYoKr0QaDJzWL9bY9lWL878yTuXtx/+9fsqhjrlKW0uBtqdeN0qz/+5lEiOp0QmgxAKR1/JwzOqsvOhJIrfLwACHo3RPgeNq7w4poRHjPXbeOHeUiumHaOu6sN0d0sVNkeQq1GuIbjfimHbX5rshxUG7Li3jP52GckeC3seKbLKJ5tThAMqux4uTrcYWUFfWx477imbluo39Vk1DYV/Hq85IskR5IqUaxjGvVYM2/bC5EVl/xMFHNohF2qJJJ0cfL6YvY9NdpW07bAqaFLcY9HAkjQho7Zyjd5ju6hvPgQsMXPYvsNOfKMa+SU6I912tv+hwszhTaHSlc+S4jKq8gpoc49waGwYf0QeWCaiqSpNhcVUugoodUSbPQ2HAgwGfBz1jKEb0ro7kXzVxmJnIS32fPojQQ6GPAxGgukWaxLP3l1O3YogpXVhfKMa/W2WdP/TEZG/WzGwJH1IBSAXEdyDwsdMHVLA0ZfzWX6Gh0d/WokeTm8Km6IonFxVzwWNrWytaeS0mkYqXdNPPt0+D3uG+3m48zAPHj3Mi4M9iAVUg9+l2TirrokLGhdzWk0DmyrrKLDPXKfBEw7x4kA3T/d28lDHYZ7oPkpAXzgNi1RFYWNeGRcV1XJeUQ2rXMXU2aa7uAYI8+SyMp52hHho54u8uHNXWu+pSChaKOmyT/bQ/lL+jOWnk0f8i66uAStGlqQPmYici9QtOgtFfdzsYRtWBahqDfLS39MXoHVSRS3vXrWRN7auoKEgfhdEn9/LvW37+P6u53lpsMcCCTODkypqee/qTdywbB3FjsROhGOhIHce2Mkde17I6c9qY14ZH6xcxmUlDVTb5v6sRHkxoU9ej7HiRJxtZ0839z7wD372u9+z69VXrRZ3Vk66ZJT+I05rUicVPk5n+/+aP7AknUgFIDfRqG/uBkwtNacezxmZrzKg2aiKwtWtq7j1pNPZUl1v2rhPdLfznZ3P8ee2V3PG9L22vJqvb72AixaZ6gHiwWOH+Pj2f7B7aJ4SdFmCTVG5qqSRW6qWcWZBjI+Jw0bwK+/DWNww6yXPvfQS37z9Du598B8YKb6nLH0+VX0ZHR0HLRhZkkakApCr1Df/FHhHusVIlqsXr+KLp5zN6jLryua+PNjLLU8+wBPd7ZbNYTVlThdf3nIu71m1CZtqTWxvxDC4Y+8L/Ncz2xgJBSyZIxX8W2EV32vczDpXfKlykevOJfyW82O6ds++fdz29W/w14dyomrubrra16ZbCIn5SAUgV2louhSh3JduMRJlRWkF3z3zYi5oXJyS+YQQ/PrATj759D/p9nlSMqdZnN+4mJ+fc3lCLpFEOOYZ4x2P3MPDnUdSMp9Z1Nny+FrDSVxf1hz/wqeqBO74D0RlfO6vhx59nI/fdhsHs7t77pfoav9cuoWQmI8sBJSrNDW2EQjdDGRVor6iKNyybgt/vPAaVpRWpnTetaWVvPXkrbw8OsDhwcw3ddtVlW9svZDvn3kxxY7UFWMqcTi5ceMWiivK2XZoH0YWBFVeVFzLw0vP5dT8ioROPaK2gsi158T9viUtzbztumsZGRvjhZ07E5g5A9CNm/GOyfr/OYhUAHKV/n6dotJlwKZ0ixIrpQ4Xd190DR9adyp2NbW3ZkiPYNuwjKL6Gm447QyCeoSnDh1IqQzxUOZ0ce/Fb+Yty9aiKCk25NVVorTUsXXFSk5fvIz7Xn6BQIamWyrAp2tW85NFWyhQE096MpY1oJ+9MaH32u12Xn/uOWxct5YHHnmUYGiOLj6Zx256jt6WbiEk1iALAeU04nfpliBWlhaVsv2qd3JJ07KUzx3RdWzrl6HYo/0MNFXlK1dex2/f/UHsWubpyEuLy3n6qndzbkNr6ievLIXa8tf+ef6qtWz/z9tYXFWdelnmwYHCH1rO4Mt169GSVJIUE6wcl5x3Ho/86Y8saW5OeqzUIe5KtwQS65AKQC7TdfQRoDfdYszHals+/9h8CStTaPKfiF5RjOqY3szoupNP43fvvhlbBikBS51FPHrZjSwvKZ//YrNRVaif/h2trK3nsY9/hiVVNamXaRY0ReF75Su5unSROQOO+UwZZtWyZWy7+4+sX5p6RTchhPKHdIsgsQ6pAOQ2OvDHdAsxFxvshfy2dBVFJi2w8RKJRHC2zJ5aeNWmU/jZTe9FVdL/qCx2FrJt6Tk0iJkL+VhORQloM38OjWXlbPvYp2mttC5bI1Y0ReGbRUu4yFZiWoEe9WgvBM1xc1RVVnD/Xb9lc0tqAlyT4CW62/emWwiJdWTO0UZiHnUtH6Go+O0Ul52JQhWwPt0izcRizcVvS1ZRqtowQmGKl7ekXIaQpmKrm9vysL6xifL8Au7f/XKKpJpOpc3J40vPo8VRAE47FFtV730OGqtgBkvJOCV5+Vy6fiN3PrMdfzh9fu4vFrZwrSuqiLhcedg0EwqeGgJj3RJErTmWl7y8PK5auY57HnucoczNOjlMUdlyikuvoaj4rRSVXk1x2YUUlVxIcenJFJUup7CsioISA+/oGNPaEkkyHakA5CLFpR9D4SbgTDJ0869Qbfy+dDU1WvQ0KyI6BU11aI7Unm71knxsZfOnz53auoTdXR3s6e5MgVSTcSgq9y1+HRvzy6K/UBSoSnEjJkWBxurof+egvKCQU1oW85tnn0pLdsClznI+VXiiSp9ds+NympMhoeg6+unmpcMXOJxcXtXAb57dji8zAwMXEV1DNoOyFlgb/X9OBc4BLkfhrah8mKLST1JUeinFZesoLi6muLAHt9ufRtklMZB+u6ZkwaEpCt8pXsoibXLZ1UDvYOplKS6Y/6Lj/Pimd9NSkfo4he80bOZ1hRNM624/6CneXF0OUGMLpDtnxWq+ee1bLRZoOk2ak/8ummxW9wXMcy1p23ejDIyaNp5RXMCSqhp+/c4PZISLKUlcwGkI8WGE8nuErY+Glmepa/40i0wuSykxDWkByEWKSq8B1qRbjNn4cEED17qmR40LQ1DYbF6p35horEaxxfYYuOx2Tlu8lJ8/9XjKmr9cUdLA1xtOmvxLARS6IC+F1hKXIxoDECNbWpawo/0I+/tS00NAUxR+UbKSpilKpW7oFBUUo5pRHdEQKENj6KevS34sABTsRzpZWl1DOBLhiYP7TBo3I1CABhTOQygfoqj0YopKBUUF+3C7MzNndAGS9WqnJLtYYyvg5ryZa6kHB4YwQqntPqfEefI6rXUpb9t6lkXSTKbK5uSORVtmfnEoxX7jBDIhfnzju6ksLLJAmOlc46xig21ma46pVoAnd6I9Z37Dn89fdhXrG0zKWMhMTgV+AvZO6lv+h6qW2nQLJJEKgCSFaIrCfxe2YJvFjywMgb831RX44j/Jf+Gyq8mbpaWumXynYfPs3emGvWBkdsxVbUkJ377uRsvnyVNUPlIwe4Mev9/cDBP7t+6KZgUkieo74SK3axo/vuk9aBb1ccggSkF8Ars4Qn3Lt2lsTEM+q2ScnL/bJJnDda4q1tsL57zG15nasgVGOH5rZGNZOR85//UWSHOC0/IruK6safYLdD0aC5AqIom1mHvLKVs5Y8lyk4WZzLvyaqlVZ1fIAiG/qZ35FG8Ax5d/hTLkTmocdWhs0r+3tCzm7Vv/LakxswgXiA9haAepa/owYEKqhiRepAIgSQkuReVD+bOf0sbx9wwktCknijHmTeh9bz31DJMlOYECfKtx0/w16weT24DiIpKYa0ZRFL72prdYWq74CufcgZlCCLz+xL7n2VB6h3B+4oeJWwKEwNYx/b2fv+wqXPbZUy1zkDIU5Vs0NL9IQ9N56RZmoSEVAElKuMFVPecpbRyh6ym1AhiexE7R217dbbIkJ7iipIFT8yvmv3BwLHXZAKEIJBj4uHXxMi5bb11Liu3hsXmv8frMV5aUgREcn7od7dEX436v/eBRFO/0e29RWTnvOSv+pkNZj2AtQvkn9c0/paYm9tQcSVJIBSAV1La8jgWccaEpCm/Liz3mx3Mkdbn2wh9M6H1/eWmHyZKc4OPVK2O7UBcwnCIrgBDgTzxX/dYLLjZRmMk8FBqe95pgKEjYgoZFijeA41t/wHnbT1EPxXDfCrAdPIZtjnv8o+ddvBBiAWbjHWiuHdQ3J9Z5SRIXC/YuSxEK9U2fRBXbaGj+z3QLky7OdZROS8+ai+DQCGG3uSbb2dASyDoY8ft4/ID5keAAp+RXcGZBHOV0++Y//ZqGL/GYg7OWreSUFmvSwZ8OjeEx5o9R8FpYcU996SDOj38f56fvwHb/MyhT7l8lFEbr6sf59CvYDx2bM/a0tbKKi9dssEzWLGAFsJ36pg9BQt2bJTEiAy+sYulSJ/7wjxFEw6AFt1Hf/Ahd7U8lO/TutVe/1aHwRU1RFqmoNkWJricKCjabxr+PHuBeX+a07756Hh/tTHjaOilbZ23wGESjr41gCNUZe1T//bteJqwnFhQ3H5+pWR3fG9x+CISiefqzoC9pIHLKWkRpIYo/gHqkG9uL+6ZtUvPiCUASdZA+c8nlXPGDbyY+wCyEETwaHuVS59wB5R6vm5KiUkvjEdQ9bah72jB278O1YRnCbovWDwjHp2jetPVM/rozftdCDuEE5ds0NP8bin4jHR2yqqAFSAXAClpaSvGF7yNaRnMcG4jf0dS0gaNH57dZTmH/uquecijaqYqiqBMPD5qqkJ9fQH5JEa7SIkDBubsT0tNbZxqFqsbZjtK43+dp66B01ZKYi/QkQ7irH2fr/AGK4/zlRWvM/y2OAi4riV0OIGqa7x2B5pnb8eqrWghdcfaJy0uLMOqqiJyyGvsjz2N7IQ5LxqgnOl+CG+hl6zexuKqaw/3mK6f/DA3PqwDoho7P76Ugf+5MFFM41g/rlqIk2EDosvWbKM7LY8y/wPc9wdUIrYH6+svo6hpItzi5hnQBmE11aw0h8QiTN//jKIuIqLfHOtSrG6760pH11+rtG64VDtW2lQmbf57LRW1jPY2rllPe3ICrtJhMtJadbS/BlUCZUyMUxtOeoliA4djN6EIIHrYoAPDGspbEvsG+sWha4AyEz5rFlWq3Eb7wNMKviyM4zzAgwawJiGYE3LDFmuyJR4MjGDHUdBjzmFfKdy4cx4YxAonHTLjsdi5anZFtPNLBaWB/lPolOV0pKR1IBcBM6hc3YdOfAE6a/SJxDQ0tb59rmN3r3vj7IxuuMVzYPqMoTDrx5xfks2j5EqqXNOMsSU2VtWQ43R57+dipjB1oT0l/MaeioceYDXCgr5dBrzWBdzeWtyT2Rt2A3hmUGJuGKJ/7849sXY++qjX2uZLMfb/h1NOTev9sjIgIhyOBea8LhUMEg4kFfsaDYhiE97YlNca5K+N0B+U2ayDyFLVNGVviPBuRCoBZ1CypBv1BUJbNe60Q36O+dcXUX+9fe/VX2zZcKwpUx7XKFDury+WicfliqloWodqzx3NzqiPxrnURrw9fd2piGSLt3TFd9/SRA5bMf5KjiGXOJBS63uHplQF1Y1bLwETC522JvdTviBsSNGsDrKipY0vL4vkvTICXI7FZJ0Y9cXvgEkLd15XU+89evsokSXKGRlTlERoWWx8ctECQCoAZ1NdXokW2ATHmb1EAxp2sWeMA2L3mmqZD668JOTTtP6ZeqCgKVXW11CxpRsvCAiE/9HUmdYgf23fYNFnmwhYIYoTm39i2HzpoyfzXFMfp+59KMDK9MJAQqMfmV6BEYR760sbY5+pPbgO9waIiSi+GY7NO+AN+giHrrQD2YQ+hQx0JvVcIwVceuM9kiXKCKoT+II2NST4wEpAKQPJUrigC+wPE331vM8OeL+9b+6ZnimxKu6Yo03Z3h9PJopXLyJ/HjJvJ/DEwwP96E1sEAYJDo/i7re8PoKkaoQPt8163/bA1FoCLikzojdIxOK1Yj+2FvTG91aiPI/VwcDThyoAAr7coxe2lGC0AAKNjI5bIMBX1uf0JFVD6zL1/4Bfbn7BAopygBUN7UPYRSB6pACSHiiP4a2BzIm9W4Nan9LEtM1UpLyoqom5pC0qMPdgzme/6OvlDIPFNfGT3gZTEAjgCOoZ/dj+yJxhgV1fiysxsVKs2ljhMiOcIhqF3cpCbtv8o2sEYZNbiWAoMAV2DcQp3guU1tTSUmr92vxrxERCx1fz3B30psQLYhn0EX51fsZzIT558lP/v7/daJFHOsAZD+yv19fnpFiSbkQpAMtQ1fw3E5Ym+XQC3ug/Rb0w2PVfWVFPeVJ+sdBnFf7mP8FIksUIsoVE33s7YfPTJoKoK4T1ts76+t7sT3cSmMuNstBWimaXodQ1OiwVw3PcYas/cGVRqd5wZVoOjkGAZZYCzV5jv344g2B2HFWBkLDWxALan9mLMUPZ3JrYfPsAHf/NzawXKHbaC4+fpFiKbkQpAotQ3vxOFjyU7zKAR4RPuw68dcCtrqiioLEt22IwjhOA9o/vpMRJLjRrdfRCRgva3TlUleOjYjK8dtCB/HWCjVoCaQKrkjIR06Jli3g6Gcd75ANorM7sv1M4+tFfb4p/raG80NTABrApwa9NjP9UHgn78AesLZmghnfC2F+a9rmd0lGtu/y4hPXH3ysJDXEN9883pliJbWbD16ZOisXEdQv0zYEpUXpseoFS1ccGixRRUJm8aPRJwExI6hZqdgIgQsuDUmgg+YbAn4uNKVyVKnBnvRiiMarfhrIi/qFC8qP4wep4DNW9y+eJ7Xt7BI/v2mD7fLXm1rCytxR5rJP58eAJQXTzZrG8YaAeOoe1rRwlFIBxBHRzF9vJ+HP94OpoxEC+6DoaB0VANtmhmihLjvVaSl8d3tv0j/jnnYbWtgNPiyDwJhkMUFRRZWh0QwDYWIGgDW93MTZ50w+DyH3yDnZ0zK5/poNDuYGlJOavKK9lUWUdTUTHleQXkOxx4QkH0BJtDWcB5FBQ/iGcsubSLBUj25JNlClVVhRjaXUCemcN+xXuMK5zrMKMDxiea1vKJprUAGEJwMOBmh3uQR0d6eWCok6OB1NTZn4mnwmP8yNfNB/Ljd3GMvnqIgqY6NFfsfQUSQVUVxKFO9FU2tIITLsZDfeZ3KSxApU51IDBRSdMNaB+ApdMDC9X+YdRHn09ufJtGZNNKIhuWIyomB6gqXh/a4BjasV5Uz+z32eLKKoocDtyhxIvlzMQxY/5aABOJRMK4vaMUF1qvWDqfOUCwwIlzefO01758/z08tt+a/hKx0lhQzEWLlnBOQwubq+pYXlKBUlSAvrwJY3EjRm0FojC67IXCYXbu2cOLu3bzyONP8MCjj+JPQX2FWXCiqnfR1LQpkSqrC5nsjzBLNfXNdwLXWzH0qvwSnt/8BvI16/QyATw20suPuvbx5/6jhGIMmjITGwp/LFvNSbb4S7IWLKqjcktqKqSF9Qja6lbU/Oiid9bXvsSTB/eZOsdKWx53FCxmY/1SCp0m6pSKAqsaoNjcGClRUkToqrMxauZvV6wNjGB/9ciMbW8Z9XDy177Ajn5zYztOdRTx+5L4Cuioikp9bQOaav15SNgUwudvxNF6QgH+16H9nP2NLxOxqL/EXNhVlStaVvL+NZs5t77lNUuIKCkifOYG9DWLIYbOhB6vl7/982F+9tvf8vjTz1gt9mz8ha72K9M1eTYiXQDx0NB0LShftGr4gXCQ/kiQyyriyMmOEwVocRXypqpm3l63FLce5hVvbGVUzcIAno94uC6vClucOmjY7cVVVYYt31QDzIxoqoreN4Ru09AK8vjMPX/AE4zvhDkfG20FvM5eTHVhKS5b7A2JYsIbhOpS89R8u43Q9RdhVMfmphL5LiKNNSgKqBPLLQsBbT082n6IXUPmxlUI4F15dXG+RxCOhFPSI0AxQDvcQ0AxsNVX4g+HuPg7X6XfnaK2zsfRVJW3L9/A3Rddy3tWb2Jxcdlrm39k8ypCV52DqKuMue+Dw+Fg7coVvPVNb+KcM06nq7eHw+1HrfwTZmIlxSV7cY9aU6s7B5EKQKzU11eCdh9g6SrxgnuQlfklrC2w3iRZYrNzeeUirqtuoTPk41VfauqkAwwZEQzgDEf8NQ5CgyMUtjaipKBnuqqqqKNeAkPDfPZf/8Qw2e95tr2Yk2wFVBWWkGc32bUR1kFVoNgcZSl85knoK1rie5OiYJSXIIry0fqGo0GD7T3g9rFzqI/HuuJLkZsPHwYfzK9HjVPriUQi2O12HHaTlbCZEGDrHCLYO8hnX3yc+3a/bP2cE7i8ZQV/uvBa3r1qI6VO14kXFIXwRVuJnLEhvrTQKSxqaOAtV17JqRs38dTzzzM6lsKW1ShnUlXxE4aH0+aPyCZkFkDM2L8L1KRipg/sf5qhSOru3xX5xfxpzdn8ZvVZlNms9a9P5A5/N3si8Udhhz0+hndZU5BnJhRVQfcFLTHRNqnRBdiq9sJ0DILPhHtJVdHXz1/lejb0mgqCG1bAwQ4Yjp52V5TO70aIex4hGDESi6IfHhlCN1Jnht+97yDffPyhlM1X6nDxq3PfyD2vv45VZdP7OofP20Jk47QK5Qlz/uvO4vl/PMDN73qH5UGWE6gjoP93qibLdqQCEAsNTecBb07FVJqi8IXWkyhP4UY8zltaV7PznR/lgpWp6bcREYLPe9oScj64Dx3F35t4MZp4GQmZa/ofp1KJ+p0DEXOD4V5DCDjYk1A1uokY5SWvBYAlPEZ1GaHztrz274b8xPtEzIU/wbgW3dAZGknNPSWAmzt3pCyS/ryGVl659v28dfnM8TP62iVETjY/NbMgP5+vfvaz/P6O2ykqLDB9/Fl4Hw0tp6VqsmxGKgDzsXmzHaF8JxVTuVSNP605m1saYm0pYCJ1FXDxVho2r+X+D3+S67dY07VtKs+F3dwTSKDNtxAMvbAbI4mStPEwalGEc97x/P9gJPEGO/PiC0YtAUkgSs1ZvPVVrUQ2Re/vIoc15nafSPwU7/N78VjU7XEivxxqY7s3Ne3t37x0DQ+84QYWFc6scIkCV7QhlIVcesH5PPqnu1nS3GLpPMdREeJHyP1tXuQHNB9dgx8ELO/Lma/auHfdOVxemYaW1yUFcNZJcLzLoKaq/PId77esactU/sd7LOYSrhOJ+PwMvWB+Xv5MjFpkAch/TQGwyAIwTtcQjCVR9MbEk2r4dZsRRQWWKQD+JFMqh0YHCYWtU8i8RoRPdaXG73/DsnX8+twrsc0RLxM5ZQ0iz3qL46rly9l29x9YtTwlzfw2UN9yXSomymakAjAXTU1lKOLzVk/jUlTuW3YGF5SlqfzvhmXT2sFqqsov3v4+bjztTMun7zZC/MKfWI6991g37sPWF08ZMzlffZy844+gL2xxzIcADvREKwUmgGJGHME4TjuRMzZQaHbWw3ESdQGMI4RgYKgXYVGK7Lf799MdSbyMcqzcWLeMX5xzBdpcwbI2Dd1Ev/98VFVW8MBv7mT1ilTMKT6HDHSfE6kAzEVE+ShgaTi+pij8qnwN52pp6vhXlA8NM3eC01SVn7/9vbz5FOvdaT/0deFO0HQ7/PJegoPWdncTFqVJ5k9wAYStLgEbjsD+zmm9AmJB7R+GiHkBcpG1SygssSYGIBkXwDjhSNiSeIBhPcTX+mLr0JgMbylr5mcNW+be/AG9pR7hTEHmwwSqKiu4/85fs7SlxeqpVlLX9BarJ8lmpAIwG9FWkx+yeprvlqzgTa5qCFhsAp6NphrmShRXFZWfvu29bG5utVSMERHh//yJFYURhmDg2VcwgtZ9hnaLUg4dE6KjPSHrT4V4AtCRgO85oqN2mtiW2abhWLPEvPEmEDbJXeHxeRjzmJvC9r99+xjRLYz3AE7OL+f/Fm1Bi+jgn/uZMFriq5lgFlWVFdz1kzsoLjKhC+ZcKHwOWfF2VqQCMBu69lHA0mP5ewsa+PeChug/guHE6rEnS/n8f2Ke3cGf//2j1BRba6X4pb8v4dNbxOen/5mXEBZ9hnbVGktiaMJm5Q6mQAEA6B6Bgfg3Ntsr+00VI1A/s+UpWVxmNVYChkcH8QfM+V7ceoTvD1ibvlpjd/Gn1jPJG79fx+aW3ag1PxUzVlYuXcovv/MdNLN6YMyIsoyGlhssnCCrkQrATNTUFKDwASunOM1RwndLp/jBzPSzxkpZbBr4orJy/vDeW8xrWDMDQ0aY3wUSP2UG+ocZ3LHT1IC1cayyAAQnBKyNpaAzHRD9fA73wmh882l721A85snoL7fm9JevmHuPDgz3ETYhSPOOoYMM6xZaqVD4Q/MZLLJPKP88OnffD1FiffXDubjwnNfxn7dY3MxPiI9YO0H2IhWAmdBcbwOSb8s3CyWKjd+UrcEx1fQeY89wU3HG3tDwrGUr+drV1rrUfurvSSo32nush5FXD5koURSrFIDAhL91NOjBSFVvBkPAga55TcST32Ngf/g500QIWhRX4TK5xYlhGPQN9qEnUawpIgy+3WeuBWUqX2/YyFmFU6wqo745Yz5EnmvW11LFJ2/+IJvWW9rf4yQaW061coJsRSoA01GAW6yc4AelK2i1zVBUxRu05PQ6K4oCtvhOS7eceyFnLLEujadDD/JoOLmAvtG9h/G0d5okURSHRQ2aJloADEMwEvBYMs+MRAx4tTNaMjhGtL1H0A52mDL9wJA1jdvyTLYAQLRrYO9gD0aCrbX/OtbNsbB1Fp4zC6q4uXKGSo26MbelJ3UV+mbFZrMTmcaKAAAgAElEQVTx4298DZfTwlREQ7zPusGzF6kATKW+6XzAsko8l7oquT5/eptWIFon3Z+BJawn6CSqovLjG9+N02ZdXM2v/Uk2iBGCwR278R7rMUcgoNJlTfOhQTE58n/Il9qmMATDsLcjrgh/+32PR7MCkmTgmDXpm2a7AMYJh0P0DfYklB74o0HrfP9OReXHi05BnW0zH5pDqUxDB8KZWLVsGZ+4+YNWTnEdLS3WN1jJMqQCMA3lbVaNXKjY+P5Uv/9UPNYUnJkRISAQQ0TylHVlVV09n7r4cmtkAh4LjdKVrK9UCAaffwVftznd5mryCmdfYJOg15j8+Q/63Ck1AgHR2JM9sSsBSjCE4+5tSccD9O0131UDUGZRwCZAMBSkb7APEceX1Bby8pA7sToXsfBftWtY6ZojpXLEO6tlccZWzWniw+95N411lmUl5BMSb7Vq8GxFKgATqaoqBK6wavhPFTXTpM3jc/P4U+sGSDB17lMXX87qugaThYliILgnmHyZVGEIBp5+GX938ulrNlWlOs/8WuZ9UxSAUCTMSCDFVgCIKgGvdkbdAjGgjLhx/vLviVsCdIO2V8zv2lqm2CyzAIwTCPrpG4jdHXDncLvpXSTHWeMq4ZPV89TwD0dgdOaNXpknSDCV5Llc3PYft1o5xbusHDwbkQrARBwFb8Kidr+NmouPFMZQ5lc3wJtCK4AnsROAQ7PxpcvfZLIwJ7gnYE4RFmEY9D/zkilKQJ0F/eL7Zuhc1zNmjW98XjwB2BeHJWDMg/PXf0fbeTDuqeyPPM+BnsTqPsxFnZaaojaBUIC+wd6YgjbvHG6zTI7/V7ceRyxpj/0zt/pW+4ZMlig53vzGK1i/2rLK6ydRa331oWxCKgCTENdaNfJtRa2xn0ySqdkeL0Nx5INPOcVcufFk1jVY07vgVd3H/gRaBc+E0A36tr+Ipy254LX6fPPT1tqM6TEfg/4x66sCzoY7ALuPQTDG+YNhHH97EudvH0DtikHJMgzsj+7A9vwe9o2Y3wynXk1dF81gKEBv/9yWgJf8I+wNmFtMaJwNeaVcURKjFW7YM6N1J6bvLIWoqsrH3m9hvJ5qWOe7zEKkAjBOVVUhgnOsGHqR5uTGgjh8W95A6oJzBmY+GcxEZHiyaVpRFD77hjeaLdFrPBQysbyvEAy+sIexfUcSHqK+wHwF4JDux5iSDieEoNudxpOZPwR7jsVVnVJt78H5y7/h/NXfsT2/F3VgshVDcXuxvbQP58//iu3pnUQMg13D5m8+qbIAjBMKB+nu6yI8SzfHe0bNyZiYic/WrIk94dEQMxZ/Utu7U+tyjIGrLrmYpgZr3IugSAVgArJE4ji2/AsAS5Jiby1snp7zPx9jvpiL9CTF4EjU7aDNrwsa/gAwOdjo6k2nsKa+kd1d5i90DwWH+WC+iQ2ShGB41370UIiytSvmqoA8I6vLzK9c5xUGXUaIxikn187RARqKK+et5W4ZwTDsOgYrG6Aw9sdC7exD7TwReClcTpRIZJpbYfdwP96w+UVxpn6OqSCih+np76a6vAbnlFS2e8fMTUcdZ21eKVeWNMb3poExqJ0cCK/4g6gdfRiLakyULjlsNhs3v/OdfOJLX7Ji+H+jpaWUtjZrm4dkCdICMI7CZVYMW6RqvCORTSxVwTnhCPTE5m931FcRGZ58ilAVlU9c9AYrJOOViJcBw/y66WP72+h76gWMcHxm9vUV1abLAnBAnx7zETF0ut3mN6OJi4getQTM4j+OBSUQnDGm4Nk+azbGVbb8+S+yAMPQ6R3sxuc/8dx2hn286LMmnuMTVSvjz0rxBMA9PeZH221NNkYy3HjN1VbVBbAT4vVWDJyNSAXgBOdZMeiNebUUJZKWFNbBnaJYgKMx5ssrCvro9Aj1qzduodBpvvHEQLA9bI3/1N/TT8+27YTdsSta6yusOSW9os8ciNkxOoCeYOEZ0zAEHOqNlg5OoIvgbDzefdS0sSayOk0KAERdN/1DfYwcD+Lc5u6zpNZhoapxVWmcp/9xuqcrJLY9RyBkbYOieCkpLuaS8yxZkkFwsTUDZx9SAQCoX7IIaLJi6HcVJOHLGk5RVbiu/pgjvx0N1RhTagcUOJ1cufFkKyRje8gaBQAg7PHR88gz+HtiC0ardOVbEgj4XHjmtL+wHuHoiHX543HRNwr7Ok1pCSyE4B/HzD91VqsOKtXYS1tbxah7hN7+bra5zStENZE3FtVToCbovR32To/tCIWxvWRtmeJEeMtVFsUXKcL6/uZZglQAAET4dVYMu9SWxyZ7EhtGMBxfrfZECUXgUGw+fMVuJ9QzPXjrptPONFsqAMssAOMY4TB9T73A0CuvImI4ba+vNN8NcNQI0TOLq6NzdBBvKIVpoXMx6oOd7Ulnqbw42EOf33wXV7Niz5h4tkAowMNj1igAN5a1JP5mIaBnukvH9uwuU5Q7M7nw7LOpKLekJcsymprKrBg425AKQJQzrBj0jc7K5AcZSlFRmH1Ho6WIY8BeUTwtcvjclatpKDX/YW3TA4wIi1PihMB9oJ2eR58hPE91u5MqZinjnCTPRmb+ngWCw4Pm58snTDACezuhvS/h6PF726w5bTYqdvoimVHZbtCIcGyG2I5kqVMdnFuYpCuqfyQa+zMBxePH9syu5MY1GbvNxvlnWXKwUAirW6wYONuQCgCAomy0YtiLXCZsiL5AXOlYCeP1Q3tsJxatqJBQ5+QSu6qicsWGTaaLJYCd4dQERIaGx+h++Ck8R2a3hpxT32rJ3I/NYekYCXjoGktzQOBEhIDukf+fvfMOjOyq7/3n3DJNXSutVtu9zfbuGndcAGNjY2PANiQGHCCEdPIg5aWRBF4I7z2SEAhxEvJIQiiBAAndMeBujHHDdXe9Xm/XqneNps/cdt4fs0VlNJpyz5Vk+wP7h1ejc2elO/f8zq98v0W9gEqkpOfwjYN7FLwp2KGH6SukyXtLf5Ld56gp390Qaceo14fDlTA0vxfAfOJ5RBU9MUFw7VVXqVlYeK+4A/JKAADFn8EuvxddpRlcYPikHFdiflcJe47MOxkshAjNn7d+/dlqPJT2OcE9lKTjMvnsC4z+5KmSDYKv7d5AWPdfavYZJ8u4XHgz7ZkaJm0tj9PtadJ52NcLA5MVZwOeGRrgcLr2qYKFMBCcKyK4SI7kE4qMhitH1T17uVlG878aRqeLpb+Z2A7m3Y/5s75PvPF1r0OocCyU4pUAgFcCAFi/fgsK5H+vNFvQ/bpxc4WiVrtq8gXYV5msq7m6DXt09qn0qm3nKvmwvhhgAHCK/MQUww88TuLAsVm9ATHD5IquGjuwy+AhebBMFsCTkkPj/bg1ONEpxfOKAcDzfYsbWUnJ535yv5K3sUMPEzkpiZvxHPoKAdoql+CQAutfAVwR9ql07UkYnJ9V0o8NYjx3yJ9r+EDX6k7O3aHAflxwsf+LrjxeCQA8Y7eKZS8yGxHVKs2UYzKgLMCRfhirbHZZzmkaWtPSwo42H/oe5nBcQS21EqTrMv3iUYYffILCDGW769ZvUXK9exdRPsxaBQ6O9iOX/HxbgmwB9vfBibEFm8kGHnuWb6oSxtFm2zUP21lG7aXLmBzz/L9ntxlROgwflQ7HkyVLOOYDT6JVOBkTBJee/yoVy3adNH97WfNKACDZrGLZi4xGP7f/Yh9AEB4BUsKj+yrKOITWduLM8RJ4XZf/3gA9bn6eXG6Q2IkUIz95ktGfPo2dSPGGdWr6AI64efYs4n8wlUtybGIZNQXOZWQanjtezArMyJyk9h/lqz0HSEk19fnz5gQAACesFFP12krXgCslJxz/A4DLjCZ/nymehN4ScsyOS+i7Dy0bq+Dzd/leoS2iRzepWXjl8EoAgPR9/l9DsEOFIMlEoijbq5p8AR7ds/hYkBC4mTMblptIc2mH/37eOenNs81dCvpGRvjSj37IVx57WNk1vlGBDfJwapK+6bFFX7dkuLIYAOw5AWMJsieGmDh0lC/k1AUu+70c+70cGc58PqSEo7kEaTfYe2fYsyjg/+d0t9mA9HvOMZ4uqTcikmlC37wfUaNduJ9coCoA0FCTyltBvOIFoLHR78PlRj1MVGj+n1pdr+je19m6+GvrZSIBDzwNV18E4YXFVcLru3DTWfTGGPbxQba0qBmvHfEs1mjBGr1kpMv9hWkesOI846QYPHWa9L+H7TRPOClOuAU26+VlUHvjo7jS46w2NWOJvmA55A8N8OJoDw/m4xxTWMr5L/tMiaZbmJynR7lQj7JTi/BibpodkRZa/Eyfl2HEU7NpbtQj/gcAACfGoaUBtNn5BW10ktC3H6DwjusgtHQCS+e3dqIJgef/v32z3wuuNF4JACQ+us0UOUuPnFxaAdOZ4oc1iA/kVAIeegZedwHEFpD6FQJnKoGXKxBBsKVZUQDgWoHcrTnp8aAV5weFKX5sTZMPuOlOAl8pjPPnscUbDQemx3Fdj22r1lZtbBQEWTvP8yMnyDsW/5wNrmwxLG2GHZt7nSQmgvP1KK9307yjoZs1hhK/r1koCwC0sJr+j4INQ1OwftW8L2n9o4S/fg/WO69DLvQMUEzL/uN0RRsYzvrc2CmFmlreCuKVEgD4vmN1nzypKqtaj04rXHwOU0n40WNwfGjBUa/Q2tXIk0qCGxtbMBQ42I0qLgGMeTafzPRx2eSzfDB5lLsKU4Fv/qd4wE5wYAF/gLkMpyZ5YewEdlD20RUykUnw9NAxvpsd432poxxX0BRXCTaSp90sf2uNcV18P3+YOMoJxU2lKspVBoJuLaQmAwDFAGCBvh9tZILw1+9GTAckSjYDMZVAP9TLxsYWBYu/kgF4JQCY62/rA10nPcldVR/WvAXxAD+MtgM/218MBA73FcWJoNjkNT6NeGI/3kjRv97QNCUfVlVqgEedHB9OHee1k8/xuewwSUVNatUggc/mRiqO8aayKZ4bPEoyH5B5VBkkkhcmB/nz/mf5+emD/E1uiD5FJ+JqSePybWuSa6b28YHkYZ5TJNaTVCBEtF4PowuB53lqggBPwrGRBQ2fxMQ04S//AP24mimOkkhJ6K7HQEo2qAkAlOgMryReKQEoyAC0i+KP1VXQCHSaySQ0RMrW530nmYFnDhb/nJr3P/kwClPU1ddMk65oA8eT/tqgJn0+VU14Nn+T6efb+YklnTBYiP1ulgfsBNeZlT34Cq7FvpHjbGjpZEPLajQt+JpAIp/l9qF9fDY1yEQZUaOlRiK5uxDn7kKc60JtfLhhA9uN+VMEtZLE/2B1psmR4zqYhoLPfaawYCkAitbOoW/eh3PJTuyrLwbDf0GsmRiP7kXrL5phbWz0/ZwGkgb/F11ZvNwzAALw75N/kgZR/GA4PtqnlmQkXrMee91IOevaAk7LA4cUKOWNeRaTTqHuoMpB8oXcCNdM7eWb+fFlufmf4vbcCJNVZD6klPRNj/H0wCHG0mp86EvheC7/OfQilx25j79InljWm/9c7rfivGn6ef403cOUT0FmWkEGwJzR5OG4Cr0xBicXFXQynj5A5Iv/rTQbYOw5jPnIGcnoVRElNs9L5x29THi5BwBKOBUAeEi1G4xlF7v1lwmhvIVbsAhp/gcABSnJeDaDVpZJN49dQ6r+aTvFjfHn+T/pXmXz6H6SlA6fyg5V/X0F1+bQ+ADPDR1hLB1XJhxkuQ4Hpoa49dCDvHtsL4cq7FtYbrhS8o3cGNfF9/Hfhfo9F1SMABozFDZdlQGApFgKWGTcWEwlCH3zPkLfvt9f0SDPw/zJM/MkiaP1+h+U5mWfAXilBKCAmclXR0pCKrSsTzGdgWgYGn1PZFSNhiA3PIapIACYOQKUcR0yrkNY6MQ0g5iuo5eJZV0p+WxuiH/MDuIsF7/YCnnMSfHfhTg31yABmy7kOTQ+QF98nDVNbaxqaCFq1jcK50mP6Vya8UyCexND/FV2kOFlUuOvlynP4XeSR/m2Oc6nm7ayWq8tza4i8TczA2A7ijMsOasYBOxYfEBKPzqAfnQA76y1OBedg7t1PdTYBKwNjGLe9yTa6PwgLKYrGeF8JQBY6jfwUsSdceIqeC4hXXGiZTQOIWNJZ3VPEc47mArinVKZlIJ0KbgucRdMoREVOqamExIahtAQwJBr8XupYzxZRmd/ufP3+WE26yFeZdT2vMo5BXriI/TER2gIRWiPNdEYjtIYihJZZDbelS6ZQoGMlSeRzzCVS2K5Lv9SGOObhcllXUKplYftBDfE9/GRSDdXhltp0AwaNHPWKbwUlueR9mzSCk7oM69tWQH4gkyli46P3ZVpjmg9Q4R6hpCNUdxtG/C2bcBbvxoZKa9nIXIFtCN9GM8fPV3vL0XMfCUDoIKXewAgAQ+fSyH2jIeiFcQomSdheAo2rJ4n5hE0GvB7a87mPWefP+vv7YERTDH/x/xiz/GK1l2tlQ9ubOlhSw9m1HGfcjL8RbZ/RaT7y2Ej+Wi2n39t3MqaRX4Oi5Gx8mSsMzVeQ9MxdQND0zE0HU0TOJ6L47o4nkvBtWeNnCakw8eyAzy7BAZNQRKXDh/OD3Cbk+GtRgsCTgeWhtAwACkEjufh4pH3vNPB0DV6A+dr5Te+U2yPVNbc1j1jPcuyir8T1R/1/nFoCENz5dlFkc5h7DkMew4DINua8VY1IxsbIHIy2LRsRDqLNj6NiFcWmOslnh0+UNkv6SXMyz0AALDx+UaIe2dOAIWgNh/LKWYC1rQvuSjMVeFW5Nr16JEzp0srbRCaYyEsPckjA2p87u+04nwmP6xuFDNgpqXLh7O93B47izYfSyyOV9zoK+GIm+cj2T5GloEscxC4UvI1e4ohz+bXzFVYeBUF9Du0MJU+Uq6IdFQ91udJD9uxMOss51RwITg6BLs3FTOMNSDiSfQKN/lyTBWU9Je8NGpXdfDybgJs39YM/nfsxGd0QdtScSPgTNK5ZdEUqGka1tCZdJ60HExz/snVU5AdkcDnC6N8Kjf0ktn8T9HjFvi97AniCrrMF+MJO80HMz0vm81/Jj92U3zKHlUiDCVqPNkW7ID2LsuFFwdgiYWmJtRoXMiXuyPgyzcA2LKlhYh9DwrGAKdnPaAl+SAf2NPpYmPgEhMpOLi5Yq3SGh5DlKifSp+NjRzgE7lBvppfPlamftPj5vm97AmmPIWd4HP4sZ3gI9m+JVNGXA7sc/Mc9gKovVdILkjRp5wFh4fVdDdWiKIAIIoZu/vkQfBlycszANi4sY2Cdx9wuYrl584T54I+sY1PLzrLqxohBPbQSce6ZOmAxM8MgIfkE9kB7rWmfVtzudLj5vn19HEOOurH7n5gxfl4dnBWX8vLDQH8RqiDV+lLP2lzinw+F+xvJJGFntEl0x0ZzykLeF5DxL6XzZsDcFhbfrz8AoCurgZs7kbKS1VdYq4WeE6RjG1ZRiYhs7RBQNh2cTIZzAXGghzbn5+LBD6VG+IBe+nLH0ExLm0+lOnhbltdwPNDK86nckMvyU7/anif2c7VuppMca0hsCc9CoWAP9/jSehdmuya70ZAs7kMS973cswEvLwCgIsvNtEj30aIV6u8zPSc9KwrZXDNgKeQwMgU5JYubSkA60g/2gLKgH7NM/9DfoQfLqOTf3MomOZiC8lfZgf5aLbfd/W9R+0kn84Pv8y3frjVbOVGQ4EO/Uk8UftPOJtfglLfSBx6xwO/7FhOaQAAcAkR+3ts2/aymgx4OQUAgpGJLwJvUn2hUnagKmaDF8WTMDRZrOEtEfmJKRyr9PUtq/5N60v5cb7jg3qbn3zkotcSU6HVvgAP20nelzrG9624Lyr0+5wsf5EdfMk1UVbLm41mbjXU2FufwvJqL4Nlsml17oDlGI5Df7CfuZxq8aMibyDrfIWX0b74svmHsnbj/0Ly3iAuNS2dWaOAABnPnqVmFxing4ClyQSkk2mmx0o/LApOfYHJw3aSLxfG6lpDBWc1t/HRi14X6DXT0uUzuSHenTrM9614zTX7Qc/iT7N9SuRsVxLX6E38olnaFMdPCnU0c3qeF2wz4EwGJ6E/uHJAWzio/gv5Tro3fSqgiy05L48AYO3mW0B8LMhL9szxHJdANsDO7Vl4HgxOFMcEAyQ9OoGUkkwiiZWbX6/MlPi7SulxC/xlbnDZpqj/8IIruWT14lKqfjPi2XwmN8StqUP8XW6YfU624p9RXnp8NNO34oWT6uVyvYFfD60KRE4jU+fJNp0N0BZ8LoNTcGyUID6EZ7d2qL/IKQS/T/em9wR3waXjpR8ArNm4E+RXCfjfeqyEMYrflrZVISmqBSaCqxsmps7U5eOj80/qtfrXp6XLR7J9ZJfxWJqpaXz1DW8LtBQwk7jn8j1rig9levj55GE+mu3nq/kJnnIy9Lh5JqQ975T/mdwwx5bRqNtScKER40OhTrSA1LTSbn1ZsFw+hx2UJkApxhNwZEj5iOA16zYrXX8egs+zdtOFwV40eJZYM04xmzdHsOQTwPmLvtZn3hNZzSeazpr3951mlJhQ66O9KB3N0Nak9BL5eIrRodlOdl2b1xNpKMpve57Ho3ufq3pdCfxZpo9HnSU8+QANZojLVq/jks61XLK6m+0t7bSForSFI7OaAP/1wDP85sM/XMJ3Wp6HW3YB8N+FOJ/OV+886CdCCM5v7+LS1Wu5pLOb81Z10RGJ0haO0haKkHFspgo5hjIpDsTHeSE+zk+H+3huYsSX8trrujdx55Vv5eEHHySbD6bDXheCSxs76zpFN0Qb6Wjv9O9NVYBsbcS59Wq87esB0HpH0HuH0CbVNONOFXKs+8rfkQ+2l+oEIXEhJ04snw5jn3lpSwFb8jMsweYP8JxTums14RSImUtsQz2RhLwDXa3KvAMmR+cbe8RHJ+jeUgwACvnaTpo/tOJLtvmHdZ03b9zOu7bt4qZNOyo63f/Gzot5fHSALx/aG8A7rI0hz+KzhZElu/7Fnd3ctm0379y6i42NC09iNYfCNIfCbG5q5co1G07//WQ+y4/6jvKVw/t4cLCnpmDgou4N3HnjbbSEwtz4phu56+67AgkCXCkRQkfWUXbJ5NK0OK2YAWWbZFOMwqd+C9l5pkHSO3sjjpQYzxzEfOhpcPwtI7WHo/zqqrP4p7Ejvq67CJux5GchmN6xpWCJj6IKWbvhZhB/u1SXn5IOvxZdQ2iO1KeLJCy0ksY4gWLZkM1DLAI+uxWmRybIZOaXGlzHwQyHCUXCpKaTTCYTVR18Rjybj2T7AheliRomH9x9Kd+8/lZ+7dyL2N2+uirL4xs2bOWegeMMZZY2a1GK90dW8+fZfvqXwNL3+g1b+PI1t/B/X/0GrlyzgZYaxydjhsn5q7p4345X8Utnn48jPZ6fHMOpsER09tat/Oi736KtYxX6wCiaabBl3QaO9/TgKpbADWka6yPNyDqmAaCoCxCLBmNu5779dbiX7Zr/BSHw1nbidXdiHDrha1nAy+bZfHiEOwuTJIPtUXkVTW2HSU3vD/KiQfHSDAA2bmzD0+4C1Oa5yyCBy81mNumReV8reB5NuoFY6gqM60EqV3TpMv25FaTnMda3cHOelc/T1N7K2OgYj030szbcUFG/uQQ+lh2gN8AatRCCXz/3Iu54023cuuVcmszaNihT07l50w6+ffwAiSCsXKugUzP5jjUV6DUv6ujmuze8iz+98LVsbPJ3xr41HOHNG7fzvj/4EBPS4fmDB8u+ftP69dz9X19nzerVeOs68bZvQD82iK4JNnWv5ejxY8pG7Zo1k/F8jnMaV1VsyLQQtm0RjUQxdPVJXeeW1yLXLVxykG1NSMNEPz4Ai1goV8rkI88i8gWuMJu5szBJIdhDwLU0N36NVGrleoovwEszAGho+WcQr13qt9GiGVwdmq8w6SERCCI+urrVjJSQygICIuG6u0Km+4bILzD3D+C5Hrqh89xgH4fSU/Rkk6yPNGJoetmP9B1WnO9Ywc0e72hp5zvXv5PfPu/VNPrgutZohrh+w1b+69iBoGaaK2KvkwksoxIzTP7ysmv5wtU3+b7xz0S2NRN+2xu46YbrueY1V/L4088wNT2/jNu1upO7//PrbFp/ppwgG6K4524u+tsj6Gpq43jvCV/fny4E7XqY5+JjTDk5Nja0EPahR9lyLJoa1IvZuZftRG7sKvsaua4T/afPIxy77gyjPTrF1KFjQDFgvSrUwo+tadLBZQIiCG0TqcQ3g7pgUCyDHchn1m5841Km/mcyJW1+Obqm5NcK0qVBNwLrNl6UXAGyhbpKAnY6y8TE4rPB+WyOe0ZP4CGRQG8uRcHz6ArHSm5FCenwZ9l+rIA2qveffT4/ePO72dbS7uu6ndEG3rRxG989/mLd419+EdTmf25bBw/d8n5u2rQDzadT4UK4F2zH21wcwdywbh3vvfVWBoaG2H/w0OnXtLW2ctfX/4Ozt26bv0DILGYCXjxBrCFGyIORsfk9LaXI4PENO84azaCxRLNvqxEiYRfYlxjHPZn7Gi2kOKexg3rn6VzXRdd1woqVKGVbE97FZy/+Qk+i3/kERE2I1hZES8dj+KEnZpVIVmsh3h7pZI+TZjC40tVOWlqfIpkItAlBNS+tAODii03Sue8DwbbELkBCurwlvIpVWunmHEu6NC7wtSXBcSGZBdOAcHXvS3ouw8f6KkqXSk/ybGr2WGDKsTieTRDTTVqM0KxH4T/nR9nrqhc8MTSNz1xxPX91+bUYC/gX1EtXtIE3b9zOd3sOkl7K8a0AuWnTDn705neztiGYipxz3nbkmjMiPuFQiFve9CYaGxp48JFHaGxo4M6v/jsX7N698CLhEN7GLox9R1nVtZqJoREy2YVHaCXwUzfFp60x9ns54tLlCv1MTb5ZNwkheDI+Qtya3VyYc10uX7UOx4d+g3whTyzagK4wuyhGpnBuvKz4nChHNIRxxyMwlS7aCTfHqi4JTD26h0Jqfu9MTFszU7IAACAASURBVGi8PdLBtHTY6wQ22nwFLU2fJ5lcIkEX/3lpBQCEfwfBLy71u5hJi6ZzZah0utOVEgHLoxRwCimLgkEFG6JhqHAjnOwZoGBXdqqdsnMczpaerBm3shzPJggJQZsRoU9afDI3qFyXLmqY3HHDbbx3x3mKrwSrow28ddN2vnf8IKmXeBDw2+e9mi9fcwsRI7iBI3f3VmTH/NLb5RdfxNbNm/nlX7iN11y6uBeYbIwhHAdtYIx13Ws5cuQIXolmvT5pcbs1xl1O8nRtelDanK9H2WY0oEt4enqEoTLa/Re1rcX1acStYOdpjDWVtOD2A2HZiFxh0SyAsJxiAABFd9LJdDETEKnscJHvHSZ+5PiCX9cQXBNqpUkz+KkViBFYG56eIT39SBAXC4JltPPUyfr17SC+Aywfz06g3y3wK7E1Czb85aVHVNMxlnoqYC62U7Tx1TUIh8r2BmTGJkkkKu+PeSQ+RMotHyxM2nmOZxN8wZ1iGLW1vqhhcseb3sUNG7Yqvc5MOiIxbt68g7v7jzFVCFahMSh+d+053H7dzcpT/nPxNnfjrSmtHLf7nHPYvGFDya+VXGt9F8bzx9CB5nCU/oGB018rSI9vOtN8zp5gvITj55B0aE1lGC5UcEIVki7Tn0eX67pIKYlG1D0KtSMD0NJwWgegFPoLvegP7znzF44Lk6ni4aI5WvZw4aazjDz6TEX2wxeZjXQbER4sTKsvaAkuPpkFeEl8aF86AUBj65+DeONSv425pKXLJWZTyWmAU2Q9l5hmoAf8oFwUSdFSOJsvlgSM+beLlUgxNlJZfRSKccRP45UJzvQKh7t1tbPYEd3gzhtv443rtyi9TilWRWL84u6L2deoc9TnRrOl5ncaN3D76t2Izd2BX1u2t+Cdtc6fxTQNPA/9xDDNbW2MDA6QzeV4xEnzN/Yoe73cgpvOpHRYJ3VWycWD++F8mkvb15bMMNRCwSoo7wfQnzmEyBfwdm6GuY6flkPoH76FmCpxMMgWitbCpg4N85+L0nYYvv8xPKfyjMhaodMudB6xlY/aRpCaRipxn+oLBcFLIwDo2roaTX4NqL9dWwFZXG4KL2wsIoG8dGnQDGVpu7pwvGJvgOUU03cnmwSdXIHhvoFFvnk2adfiQLqysbMfmgWmhNrk/xevuZm3n3WO0muUw7zgbH7uDz4IwCNPPrlk78NPbol08KW2nWiWA5u7fdeZWBQJ7vk7/FtuVSvGUwdAwHQ+z5/0P89/O9PkKzhvJgVc6FWW8r581TpsH5Xu8vkcoVBEqUCQdrAP48HnTpuNiUQG7fljhP7xu2jHywT6noR4ppgRCBlnmgSlZPS+x7CrEGESQjBu59imR2jQdJ5cQITNRy6ivfWLJBLKL6Sal0YA0NL8ceDqpX4bC9HjFrg5soo2beE6qIekID1iyzUIgGIAkMiC4+LpGkMnKmv6m8mPJwdIL5L+BxgVLvfoamfm/+iCK/nD869Qeo3FcC7ZCWtWcdUVl3PB7l3c8+OHKJQZo1zu7DYb+eGqC4icKmm1N0FjsMqXQmi4u7cs3qRWKaZB/uBx/urhe3n/k/cxUEXneUJ4bJUGLRVkAVwkXSF/0/a5QpZoJIquUB9A5Aro+3swHnwW476n0J84gJiucG88VRZI5aAhxPgTe8lPVzduLwUkT3oq7NJjxPQQT6nNBJhIaZFKPKDyIkGwzArPNdC+rRn49aV+G+XwkHw+N7zo6wrSZdTJ4S1bjztASmQiw2RPf9XpSolk2KqsY/cxTe2Y3BvXb+GvXv0GpdeohJnd6m+57jqeue9u3vrG65bwHdVOqzC4o/1VNM1sap0IpDlrNtEQRu/in7dK+dEDD7Drn/6Sjz/9E6waDKge0yoLGJ6NjxCpUWxqITzPY2R8hPxy7zNJZMk8+SK58Sq1PgSM27OzBR9vPItrw/6O8M5Dig/Q2dmo9iLqWfkBQMT+TUC9+kWdfCc3wVAFzl+W9Bixc7jL1OlOIplw8jVZG/fnKjsVJIRkv8IAoD0c5UvX3IyuaNSvGmTTbPnWdWu6+ebn/5Wvf+7/0b26vNjKcuPvW3ewxZhzgh2ZrKiRy1dCBsbAGKJGv4lTvHDoINe/6zZu/dVfp3+qdhGqg5rDZIWlLKtORcBSSOkxNjlKNhecE2i1pDJJJqbGqj76aEInP+dZFNI1vtG+mw26Uj2ENozor6q8QBAs/ROwHi6+2AR+Z6nfRiUU8PibbH9Fr7Wlx4iTo7DMggBHeozUuPkL4KfTgxW99knNwlVYBfns625kXQCKaZUgQ6VTs2+78U0898C9/Np73o22DAKVxXh7tJP3xUo0/OWs4jRJkGg6uC7mgWM1fXsmm+UTt/89r3nrLTzys/r7MiTwdIUB7bf6Div5fUspGZ8aJ5leXsZ2UkqmpieZmp4sr4O0wNfSJaTBdYqKgV9u26VWZk3wQVa4o+7yf7KUY2jiZmDhOZRlxh35CfbalZ2CHSkZsXNM1+kX7hc5z2HYydV8QknZFnYFJQMPyT6Fp/+f23IOv7CtjABMkOha2VGo5qYm/uET/5en772b2952C/rcTutlwirN5J9bzl34BSPx4N4MnH6q6ePTGH3VlQJ+9MADXHjtG/nE7X+PVaGuRSXs0+2KgtqUzBPxQXq6NJJ4Is7Y5Ihv0wb14LgOoxPDpDIV1PxL/OyE0Jiw5jcLaidvgDeE2/itBpXbg9hO94Yll5yvh5UdAGisqBSMBD6e6a2ixi9JuBZjTg5HuRROaTwpmXTzjDn5mj3XBXDvVF9Frz0uPFJCTco4rOt8+vLrlaxdE65X1FtYhHO2beOLt/8dz95/L+/+ubdjBCiqUwn/q2kzq/UynebDi8tD+4p75rNiHjyBPl5ZAHKs9wTv+o0PMDDsX//AKTJIjojKMmc/GD6CplAXJJfPMTw2SDavXl2zJLKY8h8eG6RQhznWQv0Yxowm6k+2bFVbChDiV9Qtrp7leaSohHXr1iO1f2SFBTHDnkWTZnCRWXn/iCMladfGRRLR9MBcBDOuw7iTr7sUMW3n2ZuqbBN4yLAYVTT69/vnX8E7t+5UsnatuBdsL5owVcCqtjZuvuEG3nnLTZiGwYmBATKZJXqIn2SHEeNL7bvQy92Tlg3rVxfHvYKgITJr8kAfnULGIsim8tMI7a2tDAwNseeFF5S8LQfYXcFIYMKxuKJzA3YVc/DV4kmPbC5DwcoTNsOBZZcs22J8apR0JlWXy6KhGwwU5nf6Gwg2hc9IToeExmotxHfz4zVfqzxiO00Nt5NKLQ9zjypZuQFA46oPIlAi/NMhTApCKuvFf8pO8ZZw+bHAUljSI+0VcwEhoSkZF5RA1nWYcPOkvfqtYgRwz0TfvEadUhSAO428Et2/jkiMb1//DiIB2KVWg3vOZmRzdc3E7a2tXHfVVXzol3+ZV194Ia7rcLy3zxct+Wr5t9Zz2WVW4ENv6FBCnlcJkTA0z3hPUqKPTYLQ8FqbyurRX3DeLv7tP76Oo2DzjeNxiRciVEEAP23l2BRtoV6DoMVwXId0JoXl2JiGoWxcsGDliSemiCcmcX24T3PSJV2iPBrVDLrN2YHeeWYjd+UnGVRjJR5C0x9bqSZBKzcAaG75B0CJzNgHomswEMq85x0kT9kpfi7SiVnlJi4pjgumPAf3pK2wHzLClvRIeTaTbp6M5/g2ijht5diTruz0/4Ju84Km5tTzJxe+husDlPqtFNm1Cm9tbd5Vmqax7azNvP3Nb+a33v9L7Fy9hsahSUZyabIBuA2+ymzk9tYdleWjsgXY0u2bP3xZhIBV8/039KkE+kQC2dKIDJeuszc3NjExNcVTz+0p+fV6kAI6pUa3XPyxO2XnubJjg6/CQOWwHbsYCNjFZ56h169H4roumVyaeGKSRGoa26d70tANBq3Sc/7NmknnHEllAWw1Ynwl639p5+QVMqSmf6BocaWszACga9NZaPy1iqVXCYM/i62jTejcY6ubYR73bIY8izfVMa9qSY+M55B2bWwp8SSARBNi0TKBLT3y0iHjOky5FknXoiBdX88bmoDvjvactj1djId1i3EF6f8GM8TXr307MYWKaDUTDeOevanuZcLhMLsvPJ93ZkP84dkX886tu7iwYw0Zx6Ynpabz+1Mt2zjfrNDhz3Ghrbmk9KvvOC50tZcMNkTBwhgYRUukwTSRkfC81+3csYN//vevKGmUE1RWBgA4lplkV/NqvACngRzHIZvPksokKViFoq8AxWBzsYDAdV0Kdp5sLsN0Mk48OUkun/PlxD+TlGeTXSAwajPCtBvzS2pnGVF+VJhkyFVyqOsmlfg7FQurZnnlQytF51ZVS98W6SCE4GKjkfVaqCrVr2r5Xn6CC4xGfila37y3iyTt2aQpRtgC0EWxF1YTAg2BROKeDBJcJOoKHGc4kJqiUMIkpRQekuNCTQr7V865gFWRYNXoKkUb8rdBzt2yDuPZFLvaO9nV3sneyVEeHOzx9RoA6/UIt8XWVPdN/aOwOoAygJTF8cPYAr0VEvTxeLE5UC+WBWQkjDR0RMFiazrHrRdeyjeeetz3t3ZMc7GRmBXkTaYsC0ssTZOTlJJcPktuRqOgrutomo6mCTRNB1kUGir+cXEVaBjMRTcMJrMLT1KVc1b9cOMmbp16XsXbWsv6sy5loGfFaXmvqAa6GdygYtEwGjeaxQeUAN5RRr/fLz6e7uXOQu0iI6WQFGf2LemR91yynkPOc7GkRzG5r37z96THE4mRil8/IDzyCrr/BfA7573a93X9QsSTaBV2qVfC3HLC/QP+b/4A/6NhXUWb2CxGJiEf0FhrokIpWNdDm0ygD45h9A6jj0yipbP87rVvUvK2bCQ9WuUb5Vd69xFRaOhTDa7rYtsWhUKBXK4YHBSsPLZjBbL5a0IwlC//e23SFs6uvC3SyTpVEwGud7OahdWy8gKAtWtjgJLZy2tDzTSLMxHkW0JtdAq1aWMPyf9MHuMBK+BZaYVoCO6frEz06BTHqngoVsMVq7rZ1qxYFrRO9EMnfFvLW3vGBrc/neTgtP8jeBqC95YS/VkMT8KJypwg6yZen0/LZWdtZddaNTPkRyscBzzFvumxwC2VlyMWkkKZQEMIaCgzjqoLwfuqzVpVisYtahZWy8oLAGToKkBJGPeWUNus/w4heE+ktK+4nzhIPpA4wvfzAc9LK+JYbpqhSjzQZ3BUqGlae+855ytZ10/0F0/4tpZsbzlt23z/4HHf1p3Ja0Ittc9WnxgpukuqpmAVywB18L7L1Wi89FUZ7D4WH5xvt/sywzBMhgrlg7qYMMqPowLvj61VM0Qt2cW6depTxj6z8gIAzbtKxbJrNJPd+vw68VsDyAJAMTX4P1PH+JyyTtVgKHguP5mqTPL39PcAQ5r/m0IIwTu3LxPVvzKIyQRab+XlksWQsWIX9H39agKA98Tq6Fmx3WIvQBBM1JdV+8XLX6vEL2JMyKrLXV/s3UfMZ6fAlYKm6wzmFm/IbionRnWSHUaM86vQYKkCgTAuU7GwSlZeACDF5SqWvdZsLRkZhhD8Vp1NepUigU9m+vjN5GGmK2yeW04IBHeMVb/pjAhHSVfCVZH2Zdv8NxfjZ/t8W0ue7LR/dKQy9cVq0BC8LbK6vkV6hlSPtxeZShYDjhrpbmnlsrP8Hx31kAzUoOz5ncGDmMtxkkUlApJOoSIxsiatMgnlmyK1jd0uiieWb7PRAqy0AEADLlGx8OvKjDNda7ZwgRHcRnJPIc5b4s/zpFpPa18RwEPxfrJu9an8YUXSv29sUPRBV4B+fAhtbMqfxcImk/ksfenqfNUr4TwjRpdep1Z9Jg8DAWQBPAkT9Y1A3vSqi3x6M7Ppr6HnZdTK0JNNrghzKL/wEEzZ8/X+S9FmVHZf3qysrOspOZyqZGXdSWs2ngNUOHhcOc1C5xx94flkAfxetBs9wEacQdfiXdMH+N3UUYYVjiL6gQD2Jifoyda24QwrGv+7oWnlBAAA5o+f9mchy2HPpJoN9upw2+IvqoTD/eAGkAYYi4NVezbtpldd6OObOUOt9/z94z0kXUeJCuhyQ9fNknK/pWjQDMKisj6Ji0PNrC/zvK8dcRkrzB1wZQUAOrtULHux0Yi2yO9tixbhPSH1DYEzkcAd+UmundrH/0n30q9GxKJuerIJnk2N1fz9wwrq/2u1MDujAUnP+oTWM4R+8ET9C1kOexUFAK835yvs1US2AH1BZAE8GKz93ty1dj3dLf7fR+N13PPfHjqI0I0VttVUh26Y9OQq7+FoKyH+sxACuM6vQHY2raw9a4eKhVWxsgIAiRInl4uMCrTMgfdHVnO2HnwjTla6fCE3wtXxvXwgeYQfFCZJBzB3Wwmj+QwPxatr+puJjWRCgfrfa8KtiBXYOW3e/ySinll5KdGSaZ6b8K+p8BQmggtCPibgjvbNcu5TxnQaktVNpczkiq3bfXwzRabxqMdp44u9ewmHAlBVXAIMw6QvV13ppr3KqZTLQj4FsnOR3vLvOp7BygoA0JQEADsr3NQN4H/F1hFRaNVZDldK7i5M8aHkUS6afIb3Jg7yyUw/dxYmOeBkGXKtQAODgVyauyZ761pjWkjffAdmcqHZCPrKOyKJdJbQHQ8V1exqQBuPg2WzT0EAsN2IEvEz9Zy34diAf+uVo3ek6EpYA1ds2ebzmylm9ybq7H35l+PPYpphXkqpAMMw6M0lcKu4/02h0VzBBMBMXh1qrvatVYbGZjULq2GFBQByi98rRoTGFq3y6HGjFuZ3I0o8iKrCQvKIleBz2SF+O3mUN8ef58qp59g9+TQ/9FlZcC4COJad5v6p+rvMp2vohq6Ei8xmVuqDUesZwny0NjMa7WRa/UTafx+L3RVmyqri6ABkcv6vOxfHhZ7hmgKryzZs9v/9AOM+9L58/sRzeIYaZ9Cg0Q2TE9kEbpXeB6uNSNUW6eeZjcQq7BmoCvlKAKAS36W5tmrhqpv73hJq5W2mkhrSskcg2Jee5KdxfxTdkgrS/wAXmI2g0E9dNcYjezGeOlD99z13kKRVIGn53y+y04jhuz+OK+EFNXLF88jm4fhQ1UHATj/LHjNI+DT98pXe57EQaEuUmfQDoRn0ZOM1ZQO7zOontExE8RnhP2epWFQVK+eO2bUrBNQ5gDyfDVWc/mfyu9FudqoRJFy2COC+iV6eSfjXvOXXQ3Am7ZpZHFXz2YUsaMwHnsR4rHJ9AP3gCcRkgn4F438A2/SoGh+J0TiM+jQCuRjJDBwdpOJIxvVYlbHpUKAnkfHx3v/awH72ZyYJm3WOaAaMJgQWkt58beOaTZpJg1abp902NaPdrwQASojn1qDg/a6vcaZZF4KPhNewdoUaKlaL7Xl8ffggA4vIcVaLigBg48mGIBnEmJlizIefJfSdBxCLpMlFPIl57xMA9ClI/wOs08Pq9Hv2Hw9GIhggnYWDfZWVHnpHwHE5p83/CaC0z+WvJ+PDfL33ILHwylAMNHSDSafAiFV7g+aaGk7/p9isZBSQzayg2uPKCQA0S0nb5roK1aNKfm+4gT+ijU5WXrd5xUh4ITnBA1N9FBT4oycV9ACcmvEVKzwDcAr9SD/hL9yB8fg+RHa+KIp+pI/wf9x1+msDGTUZgDVaSFHHBsWxwAMBlQKg6BVwuB/6RiBXolxiOcUGxUQx4F3f4H8ZIK0g+E3JPMeSE0y71rIVDBJCIDSdE7kEKbf2iRdTCDrN2rOwmwwlAUCM9etXTH145RxfPU1JANBeY/oIiumrzeFG/igPfy0mmVL3eAwcAUzaefZNj+JIiamreZgUFMTKG09F9nXIwC43RDaP+ZNnMR/Zi7e+E9nSBI6LNjSOmJ4tljKeyy6wSu20ayZRoQESR0oMFU1nfaOwph1WB/j8nEwW/0TDEDu5mRScYnZgRq9AV8z/enFaUT4lrGkkXYuUa9EdbsREIGucKvEbwzCZsDIknfrFzdaaDeh1nGE3qxrp9sINQEA1rfpYOQGAJppV7K+tdf4IWsNROgo5/kC28XdimglW/qaT8xz2TY+RmvEhVaTWW9cs9EKsOVnW0bzl8dDzFdc9aRy08JhfzvHfWXH1DEMsFw9DRdZLSth7FK6+CMyAs2q5QulMwEm6Iv5PQKi49wE8IaH4f4YKacJCZ02kEem5wXgwlMAwDNKOxVjWH9tzQ2isrSP9D8WMlhpcBeMyalieOaJSuCjJ17SK+gIAXQhaQxG6MPgT2cZ6uTLNOgSCtGPzs6khHp0YmLX5Q81j6Yui4iHYcHK8R4Ni5/fLjKyCAGCm9oWj8jSZt+D5o+rWr5G2iP+nRUdRpdiVsxcuSJfeXIJRO4vUgh0ZNHSDApLj2WnGLP8yU2vNGEadUw9RZVMTcmU4kLGSMgCKGitCPnwY2iJRpq08rVLnj2nlH0lwhOWt338KT3oM5TP0ZKcplKmZq3pm2ArWjc6Y75UTScTGl6Zi2kLkXP/HH6OzAgDFpa7BCVjVApvWqL1OFZgK6umqelQXmtQoeB79+SS60Og0o0R1E1fBvaLrBh6SKTtHyvK3aRjAQLDWrP+Q3VDn4W9BpLdiMgArJwDQpED6v1v4EQDoQqMjEmMslyGGxh/JVr4nMtxF7d2tqhBA3nUZLWQ4kU1gVaocqCwD4D+xGZuVnJpGbPR9enRZk7X9Dz5nZgAs1QEAwAvHoaURWpXMaldNSPO/JOEoqqsttqorvdOd94bQWHUyGECCJ52qP+u6pqFpOrbnkrALJBRs+jPZFG7C9OG5HdNUZUL0VwKAlYJfH+uWUDELYLkuGoKfl410C4P/IIkVcOHNlZKca2N7Eks65FyHhFVgwsrWkb5V829QIdUjZrxXbyq1POpcQiCbGpCxCCJfQKSyynQKcgrWnRUAKJgGmYcr4ekX4aoLIbT0j6mtzW28Y8scJXIJ2aESmhgSTuQXn8QQVXymksKjv0LlQMOerlhK92qzhdEZY3i6EDTrIcKaganpaEKgIRBCIE/9TxaDiILrkHFtsl5wglsNmkG3T/P7UWXTW6+UAPxHaraKTcjFn0YIIaAr2kR/+oygxZUywiYMviAS9CnZ6kpzIDVBTPobhasKYTSk772dccc+3akuskvroChXtWK/ehfuzrPAnPFxcz20oXH0o/3oew/XZwA0h4KCtG54ZgkAD1dK9fbYOQuePQyX7Vzyyeor12zgyjUbZv1d/sQQo+nn571WSPhSunoVx3KMCI9vGZX1s3wr01/xug+0NGPO+OG6UhJ3CsDydB7dGm72rRypKgODCDAiqpNlcTiqCKnmjvSzoSlqGDSHZs+lrsPgo7Kdn5eNKyjamk+1WtuVElJQ1slJlwmn+LDUpYR0AFrzJXB3byX//rfinr999uYPoGt4G7qwr7mE/P94B/brL57/mhqpuKxTBaE5v39LBjTtMh6HfceCuVaV5IZL2wyraGw1FX3+CkGUc3yiy4jSUqNwWynyqv7tUl+e0VMJVk4AoEklP1TL5/Pn6mgj5px6oYbgRhr4M7mK7awsqc7TKDqBqZiZyOFRkC6JkyIjMgjf+Tl4m7ux3vLayjb1kIlzxXnkf/UWvA1ddV/bUlACmBsA5IIKAKAo1nO0dstpVeSmSisuOgpKJKoCgPwK0S6JaDpbw/46+OVVlbIkK2b0aOUEAFIqaav3uz6vCcGaWFPJNNVGDD4s2/ht2UrHClMPVKIBj5oH26nIftq1KUgPd3jC92uURdOKm3+VuUrZ2kThthtwd9VneplW0AQYmjMylQvQdhqAg70wOB7sNcsgLRs7X/o5n5f+Z4BNRaOXhWUiEFQOgeCcSKvvJaeCquBHX6b1kxKsoABATVSVVvAgixoGq8ILN4KeT5j/LVfxTppoWSG/AlUl2LknSz+YPl2Ck0w4eUQuH6gzoLtlHbKpxkZgXcO66SqcC8+u+fpjef+nT8JzAgBHethBpo+lhD1HYVyNz0G1pA8tLFuc8EHlbi4qSmUAiSAzOTWyOdRIk+Z/rjCuqlQv1WSrVbAydh8AoSuZLRmRKgbRoC0SocFc+KYNIbhexvgr2cEvyCbal/mvQtVjQkUGYMg78wB2pEfcLiBPLKyc5zd+pPHt6y/H3bZh8ReWYDTrfwBQSjI7p+CkWxbPg6dehMmlDwLSAwvfT/05/70YVJUAxjw1zz+/aDfCrA+pmarrdRX1BmluavEXLQ+W964zEyvkjwH9HEYVRYECQXesmYhRvgYcQnAtMT4pO/l92cYlMoK21C3PJVB12osqyEAOebMD8IznYE3UZjdaC7LVB+MYIbBveh2ysbqJoqRVUKIE2CnmB7NpBdMGi+K68LMDSxoEyIKNVUZh8mjW//cWUdSGO6roAOQHjbrJORElFjAA9DqKSvWep2SvUsHKCQAmDqUA3z9ZowojYE0I1saaMSpQERPATkJ8gBb+WnbwDhrZqizur568okCpVcEtOFTCYWxybCy4aQCfPAhkOIT9xsuq+p7D05O+XHsuq0t0X9vSC0YUaC6uB08ehPjSHLSSzx9iocFYVZ9XA2hUUAYY85anYmlE09kVaavL7Gcxel0lAcAkQ0P+u3EpYuUEAEUG/F5wSPEHwNA01je0oFWhO92Oxg2ygT+V7XxadvI+2cSridC2hI2DGUU19FbP/4fauLTJzdmYbNum8LP94KiveYqcfw8W9+xNeOsqVzI8OK2m4bFjAdnUtLtEJ0jHgSdegDF/zGUqxvNI9g8v+GWV2bs2JcHy8ssAmEJjd6RtXuOp3/SoCQCW37hKGVZYACB9/+EeUlUHmkFI19nY2FKTeUULGlcR4zdkC5+SHfy17ODXZAs3EuNCwnShKy8ZCASuoikAFQ81V0oOuvOD8GQyCfvUG81oPk8dOJfuXPxFJzmoKAPQtcD8dcaz8ZbKYs5x4ckD0B/cmGfmYA9emfExVXoZAK3S/8/KYTWb3wVyvAAAIABJREFUYM2EhMZ5kTaiddi0V8rTlv+9GoiVFQCsMG0aoSQDMC1dWoXa03VI19nQ1MJAOoFdx/xpB3pxhFCeMbiRQAqv+Ed4dEl//y0qBd9UPNQAXnCyXGjM1pHPeg72wBhmWwucpc5opmjX6x/ujo0QMsFa/LT23IT/zY6rNIOWBTIAHpBybV8FWqpCAnuPgeXC1rXKLzd9rLfs1x3pcVXHelwpcaWH40kcKUk4BUbzabJ19E20KigBjEs7kOdfJUQ0nd3RNqKqTHpmMOJa9KkIfqT/WWqVrLAAgINKFnVzXG6oNx0xNZ0NTa0MphNlnfeqRQDNaDSjqdHsVRgBdCi6BV9wSnfCJzyLjgPHoTkGq/wVFjmFSKbReobwzvJpQ9I03I1d6EfLP1uklDwx6v/z52y9AYFYUAsi6do0aSZagDazs5ASDvRAPg87tygrxOeO9eMsEoSN23kMoWEIAP202Uh7KMxZseL9ZnseKcfmWDZByq58E2pTFCwfdXNcEsDzrxwNmsHuaBuhgAKRn9kKTv8AQryoZmE1rLQSwHMqVj3gBCcVawiNDY2tNJnhxV+8TPDb/lUXGqvCETZEm9jV3Eazgg/9Hrv01GjGdXFcD549BAV19U/jqRd8XU92rVr0NQfiE0wV/L+Xzw81sj7UQIceIaYZzN1hPSTp5dBNfnwYHn8eLAV9PR5M7j+86Mv6s4tvLKam0R4Kc2nrai5o6uCC1tU0m4tnUFQFAAcCKIOWo8OI8Kpoe2CbP8CTlqopErlH0cJKWFkBgHCVBABPOsF2E2tC0N3QxOpYo9KaoV+kSnTV14Kp6ayJNLA+3EDU0xCeBARbNP/TxwedLBMlJzwkcbcAeQueOVQ8PSpAPz6IfrRyU5bFkOHFf0Y/Henz7XozOddoQAMadINOI8K6UJTmOSf+hGsr6xOpiskkPLwPEv5qIaSeewG3gkbYtFOdBkzKtpjMZOg2Y1zS2kVXdOGZ926ppt/naUetfe9CaAi2hJs4N9JaU39UPdxTmFKxrER/JQBQx+DgJAomAV50c4wvwQmmNRRhQ2MLIX3p628LIRCk6yxXhHSD9dEm1oVjGK7EPbneqeBnm+Z/NkQCDy8Q5Wc9pyhlO5mAQ/5t0nMx7/1ZRXX7iqggUPnBicVPqLVwXmh2ethAo80Is86I0aqHEAg8KZn2KVCsm1wBHnseBvyRDvbyeeK9i/d2uVJW3d8jRFFmO2NbjGRStGByRVt3yUAgDHQo6APY72TJBDzOGdNMzo+tYp2pRuSnHANunmdVNABCL319AY+l1MfKCgCK+B5hSeBxe2lmiiOGwabGNlZHG5euhloGXdNq9gEQQtAZjrHWjIHj4iwwgrddREr+fb08Yi+c5ou7heK/6ugAjKjpnBfJNKE7Hioq2NW71nT5+zNjWzwwuLA8ba2YCF5tlu6V0ISgRQ+xLhSjQTdIuzaFoD0CFsJx4bnD8MxhsOsbYZ165FlkBQFYwskjkThV6EDM/cxnHYuBdJJVWohXt3UT0WcLMK3zucEXwAH2BJQF0BBsDDVyUWwVjQF0+pfijvyEmlyV4FkVy6pkBQYA8ikVqz6yRAEAFE8BreEIm5vaaAotr96AWtO6zWaYs6LNRKTAWaDzWZx8+G3RVDgCwEPWNM4C79+WXtEtUErYcwTKKLvVg35sEPPeJ+pf58TCs+cA9w30kFegzHeh2URskdqsjqBDj9BlRkl4lqqqSm0MjcNP9tSsHJg9eIJMorJnw/GTCoCyCpOZUvogEknSKjCSSbGzoY2dTWf6P9Z5arKFjwYQAHQaES6NdbIp1Likhc8784pMpTyeUbOwOlZgAMADKhZ92kkzGbS2+RwMTaM71sTmpjZaQuHA+wNCmjHvmtWmdQWCNdEG2vQQlm2XPTmdOvw0CZ2uElKz9TLlOQuWAQASrkXec8F24alDRYU5BRh7DhP6/kM1ixDpx4cQ8fIpy6+8oObZ89pwa8WvjQidDj1CRpXJSq3kCvD4C3DgRFW/g739PfxwzzMV6RwIYLpQDCK9KiIgo0zWz5MeY7k0lu1wedtaIprOegUZAIAfWwnfnVGheOJfY0a5ONbBOZFWQhWooqpk2CvwYF5Rll5696lZWB0rLwAY6nsC8P036AB3WcHpxZcjpOt0xZo4q7mN9kgUU1PXIyCEoMkMn+xFmJ3uNzSNVBXOZqamsynWhOlwus5fjpnpz+26mszHdxeJ9ifcfPEBn0zDc4fUjFEC+sEThL92F9pEdbeuyBUw736s7Gsmshl+NHi8nre3IFeGqtNi14SgUTdwlpvPvJRwbBAe2gOjFTSAeZLPPHQ/75x+gSsn9/DxdC9PlckSzrRHrkYYSa+g+S3v2gxnEuxu6mBXKKbEQTOD52sZNKLpbAg1cGlDJ9vDLSenR5aez2eGsNV8yKcY6V9xJYDl2322MJKm1suAc/1eeMCzuDXcvmw68zUhiBkh2sJRGs0QuqbhSQ+3zhyrrmk0mSHaIjHWRJtoDoVxPI+JfHbe66YrDAAajRBrQjGcKiSDTdNEO3kisJE8WUK9r176vALvj6xZUFZUApbn0aCbiHQOENChxoBEpLMYe48gHAfZ2Q6h8g9FMZ0i9J0H0SbLB6b/dOcd3J3xP62pC8FnW3csWgIohYagOOOxzHAcGJyAdB5WNYFR+t82+ZOn+OOxA6SkS1q67HHSfCs/zrcLE4x7Nmv1MG0zNrUT2QTTdnECoDkUqThodzyPtL34Z0wCadui04xylAJDCrKVLvAGs/Z7v0Ez6DZjbA03sznURKseRl9GfU2O9Hhf/EWSSjK94gekpr+pYGGlLI+wrFqEuBcp3+73sqOezZNOJhBRoGoJ6wZh3aAjEsOTkrzrUDj5x/Y8PM/DA1zp4UmJLgSa0NA1DVPTMIVO2NCJ6CZmiTTceG7+2FS6wlRuixmmTQ9VtfnDmR4AgAv1GAZiwZp9reSlx7cL47w/urDyX166TLp5OvQIHOmHxiis6/D1fZzG9TAefx7jyQO4527G3boBb2MXsiFa/Lrjok1Mo79wDGPfkUW1CqYf38OX42rG/14baqGjjhHN5fPoL8HQOIxNweY1sH3DrEAg+dR+HhrpY7BE+WvALfC57BCfyw6x3YjyltAqfj7SQX/uTKmpmhKAqVeXhJ228lysR3kK/2f3H7dTNJpRWoVG3nMpeC6W9HCRONJDFwIDDUPTMBCENZ1GzaBRM2nQjMBH+arlB/lJBlRJH6/A9D+s1ADAkfeoyl18vTC+LAOAmRQzAyYxw5+6edLKz2sg04XGuLV4Y1BbKEKT0HFqGBXUZgQiMTTO1iK84Pn/YPtCboT3RrrK1lszroOBRasegr1HoSECrQrvA9dF338Mff+x4n9rGjJkIvKVz5En9x3ikYFeDtj+zryf4qZIp5J1lw2OC0cHoX8Mtq+HzWvJHuoh3jfItypoFDvi5LjdGeAfsoNsweASwlxGtKomyFAN5b1zXB1NCN89GGwk/5Ef429btvu67nLhU+nyMs71od+rcHFlLO+QbSFGe3uAp1UsvcfJLpkwxlLgeF7J038ld0ZHOEaTMPBqsL8VYn6h5RI9WvU6ldDvFrjbWrz2nnAt4q5V9Jx/6kBRLCgoPK/Kzf8gTb3jSh9qN0cUZUGWGwUb9vfgPvQMkwePkZIuPyhUPhrqITmKzX+KNH8kxvm4NcT9doJ8BbP1utCqPjk3orEV/5tmAT6fHWR6iZuhVfCjwiSPKVP/42cM96iMLpSxMgMAACm+pmrpf82PLQdNs0AYy6VL9hRMLKJR3mpGiEpR1hmtHHqJMsTFmjpRkM9lhyr6nSZdiymnAHkbnnxR2WRAPaSeOUDTiUl+WkjwcEFN4+pOs4HtRkzJ2ssRW3oMx6fwXJd/z43WLIzjAE+6Gf53doC3Jg/yJ5k+fmwnyjaeRYzqE7Hno8Z8KeW5/L/0ivKzWRQJ/HlSTZPsySso24tUs3IDAIf/pPh5852Dbo7HVJlFLCOSVr5kA5KpGWTKzJQ3GiGahF6ROMpCaCUCgNWawWYFssBQNAf6fr4ym96UZzPhFJCJFOw5qkwuuGo8SDzyDE1DcYSAP0mqszZ+T5meiXpYJj/JWeSly4idw5UeWenypVx5zYVKsZA85qT4WHaAtycP8aXCWMnXhfXqA4ALZVhZj8XfpHoZLymjvTL5Xm6MZ9Qo/wHYuOZ/qVpcNSs3ABg/MQJSiSYAwD/lRykst1EmH7E8l7FSqX8gWyauiug67ZpZ1+YPpTMAANfoTXWtW45PZvrJVXiyy3g2w3YOe3AUjiz9ichOZUnf8wgt8WJm5nu5cR5XlNLUEPxirFvJ2gLqnmLxk4RrMWrnTtfT/yU7zKQCHYOkdBdscI3q1afzuzDYrqgMkJAOH0seU7J20GSlyx8n1AXKwD2MHisd2a0AVm4AACBRlnoZ8Cz+XZVi1BLjSRjOJEt2K5uaztgCjnKaEHQa0aq6nBdCX8D/4LVGI2FFt+WIZ/FvVZzubOkxbOdIv3gchirLHqggfagH+eNnaXTOnPnaNZMdilL0b4y0sUGRLgMUxwvz0vW9ia0aHCkZc/KzhK6GPYt/9en0X4qrjNKSylFzvgBXJbxeqivRfD47rKy5NEg+luzhmFK3Q3Wl6CBY2QFAWPsWMKpq+W9YkxxRNTayhIzmUhQW6NrPSXdB7f9uM4b0QddeL9P53IDG5bq6B9s/ZgY55FSuNyCRTDp5Rp7ah9evbnMohRVPkrz7MRoPDxGaM8Hw+nAr+7su5/aW7TQKf4d5fjm2ztf1ShEROlNuwTenyUqRFN0th50suTkn/Y+keirOEFVLtxZixwJNrgJRUx/AxURoUlQIcKTH+6YPqBLNCYS9dpq/T6sZkT3JGCG+r/ICqlmJQkBnmJ52aGprBK5WsbwEDnt5bgy1rfBI6QyT+expydK5mJrGoFV6c+wwo74lHEOmUTYIaBUGP3bVeDO4wD43yzvCnVWZL7meR2ZwnGjfGJqmIdpKn+b8wE6mSf9sH5Ejg0TL7Ec6gstDLbwntoZeN8/BKgKbhejUTP6l9ZyyI5N+EdF0JpwCWc9FFwJT4Ry5pOgCOeHkyXjzk/H/mR/j87kRZde/JdTOJcbCTa6elGSd6uruGpD8/+y9d5hcV33//zq3Tt2Z7bvSrrolW3KRbblhU2wDNsam2D+aA8ZAqN9QE0hCAoEUEkj4Egik0H6B0B0IEJsAscHGBlyxLTfZktVXq9X22Wl3bjnfP0ayd6WZ2Sn3zsyu/XoePfajnTn36O6953zOp7w/eDwpgonXj7oWIaHw3BrkoNuFApKrJh9kxKutPXNNCD7JgX2/CO4CwbO0DQCAaM8jCO8PIJiA2ITnkJce5+rtrQ1QDdNW7gS1v/kUBKRLnMjCikZHHYlK5TB1c4EI0PF0C4173CyzBNNZbswroAg4v0yXu3JIJHnHJjaRxt09AjkLkSivJlcruZExsnc/TGjnIcKWW3Xv96Si8ZpwP+cbCe62Z5lqIIb9x/E1XGp21f39WhAIDKEy6xXIeA5Zz0EI0ITq27nWRZJ2bSbdPGnPKRl22OXkeNfcLgoB5SYI4E8iK+io4KlRhcJMoXZvYzcavxT+K2ge4w5rhqvCvQyowSTnBsUHZnfyo2BDuFmwf4+5ueBufhNY+gZAeipLLDGMENuCusSjbo41qslaNZi2tc1gtmBxJFde30BXVA5apX8+YIR9S99WFAVDX9xWM4TCvQFIAx/jHifNGVqUNTX+Tj0kBekRFyrKbAa5ewR3/2HIWghNhUj1sXPPtsnuGyW3/XHEQ7sJjU4TcmRF46gSG7QIb4utJCRU7iykanbfRoXKt7pOrUv6t140oeDK4j31kOQ8lznXxpIuEoEiqNoQOoYtPbKew4xbYMq1juYblGZWOlw7u4MjAWa9n6/FuMbsrvgZVVGYs62aEyRjKOzFYUwEYyy7wP9aU7w+MtDU56IRvps7wgdndwZ9mS9z6OANQV8kaNparbNqVq7biHQfI8CchrBQ+GJ0HasDTI4KitlCniPZTNnYvhDFLOVZ+0R3WY8eIuTjbTV1A11f3JvgIfmj/AiHZHALc1Qo/FdyS13JdFFFo0c70XjwANdQESEdNB1hGghTRzoOFFykbWPnLLAsQlIE1ndixLV438zj/GcNp6D3xIb5bGJjIPOphCslh+xs2aRARQgMoWCgoIhjRoECEjyOSWAXjQgbr+ok1bz0uG52B3cH3Ar8k9FVXKAtXt0ync8xnq898W4fNn8tpgKN1j/XTHJzz1mBNCLyk8edLOeO303KC8YgOoqH4p7MwYOBWxlBszRMusWYm54knjwFODWoSzhIHnAzXK4n0duowcViTOazpZX+5qGpKmMlYv+aECQV/wweIcA0jKpOuAJBBIV7vOC8ADaS2+0UV5k9RGqMP9vSQ0oIH5fLIADVlSiWg5IroKRziJk0SiqLksmj5AvojodOcJs/gJCSC7QYZ+lxHnAyi6q7aULhm51b6FSCKS2rhCIECoKcLL1oS4pZ+5b0yEuXnOeS9Ryy0iEnXfLyac36ajdBB8k7U7u4ww5MHQ6AlYrBe8IDVf2udVVlukwFTiWSqOwXLoeDkUUBYL+bZ8wrcGWop21NgDnP5YWT9zPiBhj3L/JtRg58KeiLNIPlYQAARJK/Q+EdBNjfYEa6TEuXi/TgatX9QiIZy6bLJvwdQxWCkUKmpIt0wIj4+rJrqopeQ7bzsKLzWzfDXIB6DDPS4TZ7livM7pqNAEu6qALMNnONFk/UGTShsEYN8bpwH4ZQuN9Jl61Ff2tkBW+IBlP7Xw2mopLzHNwmZJ3npMfbUzv5ZRPaf787PMBJVUpcK0KQdx3sOk6vA2j8SgRZ7ga/s+cYbWMj4G0zO7jFqqLVc2Pk8cTVpGfao3d8g7TXytUImdkZYslOBBcEeZknXYsL9TjdbdLfuhS253EokyJjV3afCwRZPNLuiZ8LKxpRnzc20zRQathkBYKYULnbDbYeedKzudWeqcsIyHkuhlACyWC/r5BiRR0hpxE7s8DLoiE4T+/glWYvk9I5oQwyKlS+33MacZ/LCWtFE4JMACI885nyHN6cerwpSp+rFJM/Cg/W5OlRFcFcofYTbAKFg8JhNKDE2WPcZ89xqA2NgLvtFO+ZebwZl/pHRvct+dj/MZZLdVsR1f0bYPGuLw3gIbmhhkYhzWauUGD/3DS5KlrzKqpgwi59auj0OetXUUTF0r9yPEeNsFoEn4H8hJPjmplHeKKOUroJJ4/lc/345zMHOHf8Xv68RkW2I06u5BbgSMl5oS5+2H0GN/VsZf28U+kHYqsY9DHUUy9hRcMIsBTwYSfDy2Ye5t6AY/7HeEuot+YExqhmYNR5uHi5jNV8vXr4UmaEa6ceJlsmZNMKPps+0AzFgik0+YngL9M8lo8HACCVyhFPusCLg7zMmLR5rdFdUx150LjS40guw2Q+U9WLoKsq+63Sn42oKhGfT4OGYZaV/62EQLBGMbk1IF2A+cxIhx9YE5ykRliv1daZMOc5RFSt4QW4gOQDszv5WGoPEri9MENUUbnQWLwWO+XaTLsF1BLPpUTSrRU3+ZO0CG+LrsQQCnucHN/oPBWzTXq5q0KQ9dkL4ErJv+VGeX/qSaab1OnuZC3MH4Sqi/0fjyIo2aNjMTpQyCMD0wWYz8NOhpvyE1xu9pBssTfURvL7M49iBS0xLcSfcXDfL4O9SHNZXgYAwKqhe7EKrwT6grpEAcnZ0qRfNwNN5KoGiWQmn+dQdo58hQY+81GFwhHbolDGgu/Vw77+q4SiYOoG9dpL3UJjVrrslsGrxtlIbrQmSUmXbXq86hOppBgOiCpa3YbhTifLSycf5L9yCzP3b7amGFRNzjbK6xZkPYcxJ19SwMeVHkNGbIFhoAnB881O3hkbaqvyLl0oZMvU69fDo06Wd6R28p/WRMDO8adREHwiMkxvnQmVhqIxZ1t1SW5vQOcukSfXhPPwmFfgm7kxhtUQp7VIJ8VDcktugq9kgxNxOsp2OmNvZXy8fdwePtA+b75fjI+7xDruQYg3E2CI4yRXIVJw0BQFQ9Hq3tzqRUqYcywOZ+eYs62qX3dFCOakW1aC1RQqMZ8tetPQ6zr9z+dkNcRtTpp8k6RJ73fS/MiaYIMaqVorwEOSly4xVa/JgMpLj7+e28vrpx9hfxnp6Z/kJ9mkRzi1xEKb91wOO7mSJ/9jlCpZhGJ+QLshoGxFQLWMeQX+Or2fP0vvZdRrrtzw1WY3LzU66/6+ECCEIFOHF0BDMIDGXaI5EuZZ6fL9/BHutlM810ySaJI3QCKZsC0ey89wuzXNL4LN6XCQ8ip272p9VzCfWX4GAEA6dYh4IgLioqAucbYM0S9V0naBlJ3HkxJTVQMPC3jSY7ZQ3PhThXzNwiHd4Qh7c+Vflh49hH86bEXhn0ZO/8fQEXQrGncFnBA4nznp8kNrgnudNEOqycoqEvLco0JBUUVlMZmNvPT4YnaE1009zI/y42Uz9KHoYfhxbpwzjfgC3YKCdBlzcmU9UbbnscaMt1W4ajF0RWGuhFxvNexx8/x99gAfTO3mQae6cJif9Aidv44ON1wvH1I10nUIAwH0ozIiXEYDLAs8nl1Ojn9Jj3DAszhTj9ERkCHgIBm1s+zIzzLm5HCQPOlZ3BqkASD4Ow7t/0ZwF2gdy9MAAOjvvQPbCywU8AIi9By9fZ6U5BybGStHwXORsriI1avodjyu9EjbBaasLGPZNBmnUJd7cEUkRpcZYXe2dO2zIgRJn+vATcNo+PR/jGHFYK8sBCoOVIr9rsUN+XF+Y6dQEaxSQyc055mPIz0cKYmUWQQftTN8OnOAN808yvdyR5itMi7tAT/Mj3OhmWSNGibvuYw5WWSFzcYQCkltacm4CgTOUWGfapiRDjdaU3wsvZe/zeznISfTNHf/fBQEfxkdZo1PCZW6ojJXQpyrGk5C5zciT6GJJpCL5D57ji+kD7LHzZNUdFZpjYdJbekx6eTZX8iwq5BiyrEWlItOSpufBafn8CgR/VqmppaV6/8YS+dYUA8rVl0E4vYghv607CWxSIQhrOmEVR1TUzEUDUNRFz0JSwm252B5LpbjknNtcjU2CTkegWAgEiNumCgI7pg8SL5ErXGHavhquWuqSsj0N7s8g8ef5EcYb1IyVylCQuFiI8lz9A5O12OcokVKnvjiik6XZrLPzbPdnuMWa4b/tSYbbrPaoajc1HkGqxSjovRN3nPYFFp6jVygqLFwuEyFyqx0eNDO8ICT5o5CivucubpOyn5zrdnDO0L9vo45kknVFQoAeIQC/yimW9rPb0AxuDLUzYVGkueYCU7SohU3HYkke1ToKePZpNwCKc+m0q93XNpck3rC97kfndFFHNr/64AGbznL2wAYHN6GUO7xe9h+VP5G9tT8PYFAU4qqZ4qiPOVqd5F4XlHS1PG8GvTMqrimgJWRDiL606fA0Vyax9InCmasMCIoPl1aIAiHQiiK/4/Yk57FX1ijFV3mzURDsEI16FR0OoRKRCjMSIdZ1+WgtEgHIEvaKTS+mzylrIyxJyU9Woi42nxlP784ZGexj3oB7rPn+Ov0fg54FhMB6vbXy2Y1zOdj63xXIbM9j31zU3h1Puo/JM2Nonlhs8WIC5UeRSchVBJC4wsdG3Cli0Nx7SvI+qSgXje3k5Egcj2kdw6jB+71f+D2oH3VbPxAKOcFMexmWZ9LVSKxj73JwWpVA0WX/lA0cUKv8V4zzGPH9f1RhfBt8wcwDD2QzR9gvWJyrZrk626gkg9V4yDZ71rsD16C9CmmpcPrZh/jP5NbSjapkrCkN3+AiKIxezRZ9bBX4H6nfDOrVpIUKh+LDAeymOqKQrcZratHAMDLibEbh0dp3rNZiWIC8tNr35TjT7LiWVqUkUIABkBxD1m2BkB7FP8GhRTnBjHsZlovmrIYhqKyJp48YfMHCJWI88d8jP2rilKT5G89XKEnOYfaavWXG5OewxtndzB23Mkn6zmsNdpfrnoxju+z0I7oCD4RXcVAgD0UkqEQEa2+8QXwFtlBQi7vpX6bFg1mYEEgh8h2YXk/FUL6bgAoCE5ugjJdI3QYJmviCbQyC6gUEv24xDy/FluB8D3uX+ZCvEPr4iTa+3cRNPtdi9fOPPaUW9yRHquNWNPLUoPAFGrF0sZWI4D36L2cqtbeTbK26wgGIvG670UChffTib+dPdqLs7RoMCqI8lkDYGmybl0C8L236Tp0wrI9XyRFCAYjcQYicaggYONKyYrQQovZr3rwarv9+UFE03m3TLBymUeyFmOPm+fNqSeYc12iql62+mApEmpxf4JKvIY4V4VrzwWqB01R6A/XL7YzhMb/IUltChVLh4TQWB9Mq/aTWLWqflGHNmf5GgA5eQYB/PsuNBMkzeqEYZpJh2GyNt5J3KjuJegznjYA/NJfNzQdTWue21YIQUIzeL9MPlWS+Uxlu53mjakdxH3u4dBq2jUM8EoZ49Vmc+XAY4ZJZ6j+sNcmafB22dGUfgHNpkM1eEED4ksVEDjilCAGbgeWrwGAuymIUU/RwvSFY6yOJTDV1p9OTFVjdTxRdBHWUG8fm5cgFvUhWUxTVQyj+Ulnhq6TROX9Mkl8OT/OVfA7J81rph7GbpPqCD9ot1bLUNz8ryRKp9H8HJQeM0qkAV2HrYS4nviyMQHCisZKPUJSNTg3uLyXzUEN3GqW74ophO/uf4CTlOLp39R0VsUTrIoliLZAaCWsagxFO1gdT2LWsYHr6tO/+kYbwShCwTRac/IUQqDrOv1ofEh20rWMH+lquCk/wWunHm6Lung/0IRAbZPfqQBeK2O8lChJM+ybwFVNcxCwIhrDaODw8RwZ5m1K15L2BEQUjQEtTI8aQj26fp0SXC5GIIfJdqA93qxA8N8A6BDaggZ4pmjIAAAgAElEQVQfAkFI01kZ62BNPEnSCAXqElSEIGGEWB3vZDieXFDbXytCiqcUurQGFjIhBOGQ2bS4fykMTUMIwSAafyq7nvE5ASnPoXRT4KWJEVA5aS3oCN5GghcSRRUKXaFgE/8qoQiFoVgHegPhkYsI8xontKRyAlQh6NQMVugRerTQCcJqK1WTWBAhI/msB2AJIn03ADZWaApjqBp9kRjrE90MRRN0Gk9bpo2gCoVOI8RwNMH6RBf9kRim2vhDbiOJ6kc3yjoPi+2w+R+bh6kXDbNOVP5Ydj5jqwPeGBnkJz1bibVx8lyttDoMkEDhj2Un58ji+98TjrS8OkETCiujHXV7IVzPZZOn8TF1gK4ASxgbRRMKnarJoB5hhR4lrhhoZdZVAWxUfQ3LTAO/Q7Dbz0HbieWzSixEBdb5Pej6KjS+BRDRdSK6Ti9FdSvbc7Fch5zj4EgPT0pc6eF6RZUzVVFQUVAUgSYUwpqGqWroitrQ6bwykm4tXGwhXIe7WAhB2DRR2qSPvKZpqI6D63lEUPiATPJlUtzXpK5o7cBH42v5WMe6JXSmqw6jhYmAm6TB79NB59Ek05Cm0VFlom3QGKrKcCzBwfQsjldd34RjOFIS1XQujvZxntrLm1KPc6CJQlbHUIRAQ6AKgYpAFQqGUNCFQEGp2aN6shbhd3Z1glEGQhaQjyPYg2QPHP2vYA+a3MP+/e2hNBYgy9MA6F3TC3XK9VVgVR1lJpqioCkKYU0n2R7rxlMkNJ3DlsoR10IVCooo9mPXhIKOQKO0bVDc/IOR+W0E0zDI5osbvo7gHST4pdS5QaSXVWLc8SSFxr91nsyrw/7q0LcLnpTcOnWwqauVguBKGeVKIk/FygWCvlCs4eY2fmIoKkPRo0ZAieZJQoAu1KI3UoCUEonEk0VvWVI36FEU/id5Gh9O7+HH1mRT5z+k+yvgM98DoCDoV3SGVZNVqsmwGmJYMRlWi38GVcNZ/cD3lm2GfzUsTwPAFH11i2dXoFe0r6usHkxFQxGQc10oETNWhCCkqIRVFVMWU7EURSFstt7tXwpFUdB1DdsuNgoSwCVEOEkafFHMNrU9arN4jpHgm52nskZrv9JUvwhX0UTLT/pRuV52nBBGShhmSWXNVmOoKsPxBCOZFAXXRVMUDEXFk5KC51LwSr/fIcPEVFVcKYkpKp/r2MDzrQQfmdtHVi7NHJLLzS7Wq2GGVJMh1ayY46CxjOJkdbI8b4Dn9gfR56h/GQmsQLHneCUXmyclWdch6zpPfb5LD7e1ypyh67iOhzfvNDSMxp/LLr4j5rid0h3mlhqaUPjT2Go+Gl9TNia6XFAQdOoh8IIN56gSXiyivExGT9g4dEWlJxyQ3KwPaIpCpxlmxspjuU5VIQFNgoaCO884uMbs5XQ1xrtTu9jhZoOcciAMKAYDVVYkKe14imkyy2tHO4akPwgvXd8yE1kp5hdUf6PyrsOh7ByTqkaXESJhmDV9vxkIBKZpkLPyC5IbTQRvlB2cL0J8hzkOLGFvwAuMTj7XuZHTtPqV4ZYaCS0EAfR6OcYWDF5HBwPyxHwDIWAgEm+q6E8tpJ0Ck7ksllvbMy0EKIITkoBP0sLc2HUqX8+N8ZnMQeaWqDdgMZTlnANfJcvTAFBEv98h34hQiC6jB+ZYfXU9rYct12E0l2aqkGcgHCXcZl3nVEXB1A2sEt3BNkmDj9LNb0WOG0gzR23JU61kSA3xNx3ruC4y2OqpNJ1YQKJb66TOK4lxSoWqkR4zSrgNXf85x2E8ly4m8taBpNgErCC9E3QjNARvDg/wSrOHz2VH+Hp+bNloSwCoKMSXmUe3HpbnHfBI+n0w7VxG4SKBoFcLk3Ua66tuuQ770rN0GCb9oagvZY9+oWsarufhOCcujoKiGMoZmNwoMvyKHFYbJwmu0UL8YWwVb4msJNxG97iZmD5XAmxA5wqinL5IZ8+YbjQkvxsErpRM5bPMWPm6DPhjSCnRhUKXajJepi1vp6LxF7HVXBPq4ZOZA9xRmG3jN6V6ujUDbRkd6Opl+exq8xH4nhEVajNXdyN0aga6UFCV+jwAx5MqWGRsm/5wlA69fUodQrpO1vPwysRDoyi8ihgXuQa/lTl+qxaYFe2zvK1VQ7zO7Oa6yCCbzESrp9NS/Ki714CtMsSLiLBZDeNJiV3BvW2oarGxVhsxV7A4kkv7chqXUiIERIRGXNGZ88ofCE7VovxH4mT2uHm+nhvjO/kj5EpUHSwF4qpOWNFKVk0801ieBgABGADL5OQVU3RiR4U/VIRvxRKu9DiUnWNOtxgI19+61FeOahVk83lkiQXTEh6TtoWUkvMxONfTeVRxuUstcEC0Ju4ZFyoX6x28WE9wmhZFAEfsHEjYGOpoqxK0ZlLv2yeAk9A5hxDbZPgpFXzLdVCEIKwZ5JwTQ0WaUhTaaZe4vyclR3JpUgX/avU9KRFSgCgeCizbpbDIprhWDfEXsdW8O7KSb+TH+HbuCKNegMkZPmMKhc6juVxt8qttKcvVAPD9GGosA3dRRNHo1J6+NYoQvngA5jNnF8i7M6yMxAm1QbOkY4JFuby14N+awiF1XI6AguBUT+NUT2MGj4dVmx3C5ZDi4QXo+OwROmdrUZ6vd3CeHitZunTEyeHmPE4OJdtmU2omtYSXwghOkgZbMDgbk2SZTpGelOScAhFNJ+faT2leKEKwMtqY1K6f5B2HQ9lUzWI/iyGRT22CAkGfFuawncOpIi+mS9F4T2QlfxBZwX12mhutSX5RmGmJmFC1aKIY+jxmRIs2beveTFq/QgeBIOT3em0u8UU3pKh0awsDGapQcAPQS7A9l33pWQbCsaOVAq1FURTCIZNcPo9EMO0VyLiV8x+SKFzkmlwE5IRkt3A4KFxGFI/DwqNQ5wOmIxhSdNaoIc7SopytRRmqQmESYNK1eMSaZrPZ2R4eliZSzuhREPSjslJqrEZjkzBYI7WaGt1kHZuwqmF5Ra/PymhHW3T6BEgXLEazad8NdSiqAR7zAEAxzNKnmxy281UbvAqCc/Q45+hxPg7scfP82k5xvz3Hg06GPW6+LZIHVVE0cOa/N8+wV6gk7fGU+40UZt0C92VotGNeKwkrKj1HN/+UdJn0bGakw5Rn4waUBS+RjObmsD2X7lCk5Y5rRVHQTZNDubmas6bDUrBF6mxBB7f4ZM0KyaRwSSGZVjxmkVhCkpeSpKbTrxjEhUZUKMQVlRXCYK1mMqgYDXVhm3EKPCyn2BLqXLb1/3npMe7Z7HNyTHh5Mp7HTifL6dKkQwgSaHRLhWE0htEXLmJ1vvY518FUNbpDEcJae1S1TOazTOaDq8X3pMdPrAm6FZ1uRadPNUgIjX49zJidq8vrtVYNsVYN8fpQHwAFJHucHPtci1GvwJRnM+HZeAJSXjBhtt/ZaUa9pz0RCoKEZqA5JSSCV656VXWjioOM7PutT1NsG5anARBADsBSIyc9dng5drkFRmSB3U6ePW6eWblw8/u47AjkdHGMCSuLLT0Gw62tWfekrGvzn09OSEaFy6jwGBUuk0Iyg0dufuKggHcpSZ6ndyz4riIEhgdpz0FXFExFqdsQSLk22/PTnBrqxFjCRoAEdtgZ7rZT3GHN8Kid5kk3z1i5mLI48f+7UOhHY0CqDKKxDp1V1OYBOIblOkxZWSKa3vIwy+FsmlQh4D4WUnDl5IML/qpT0dmohjlJizCsGGzVYpymR4jU2ZDJQLBJi7BJa173xC/mRvmpNVXlp8X3qvuc/BHwinrn1K4sUwPAC/ktUNN6J1ZlXCnZ7mX5rZ3mPifNbs+qyvWmCHAD/sfNFopJeCvC8ZboBnlSciA7W/Pm7wrYKxx2C5fdisth4Vb1HIgSn/KkJC+PSrIedboYQiGsaIQUtWaXfsa12Z6dYkskSXgJlajOSIcbcxP81JrkZ/lJJipknlfDFB5TFHhs3u0LS8FGYbAJg9OlyUCZHIBS5B2HkUyqZQmAUsLhXIq5EhoWflPq3zft2dzl2dxlp576O00INqkRLjI6uETv5Gw9htbG/vNg8nVE62OZAbB0Vo7a8N0DEOQpuV48JPc6GX5mz3Cnna5LsUsIUVc3wFpJ2RYekpXheNP7CBzKzZEroQdQCg/JbuHxiGqzQzgLT/dVUm2mfkF6FNwCs24xRyOq6Jg1dH/MSYcHs1NsCXcSb+OWrjaSH+fG+Y/sKD/NT2EFLL6UE5IHsXgQi++JOVajcz4hziVEQi5+f3OOzeHsHCuiHYt+1k8kkkPZOTJ2c7LqRQkVwFI4UvKIk+ERJ8O/MUpCaFxiJrna7OFCo6OhkFYQBJDWBHJ5epWXqQEgfNfsNYRGVNHIeK2XkD3s2fyoMM3PCzOMy8ZOUM18ddN2gVHSDEbiTbvu4XyGdBULahrJA2qBe1WHmRaoA+Y9l7znoguFmKoTUpSqDAlbejyUneLkUIKuNmsIdMS1+XzmAF/OHFoQk202+7DZh80NpDkVg8tEhE2LNAtN2wXGcxl6m6j/P5ZNN23zh6MegDo2y1np8F/5Cf4rP8GgYnB1qIffC/Wzog2k0pWjrYV9R9C+FnYDLFMDoETrqwZJ49CthYh4DlNOIbDkuUrscvN8tzDJzfasb5m1za4rT9kWel6hNxT8wjpj5ZixKjf/mcbjTs3mPqXQFt0BbOkx7VjoQiGp6ehVxF5dJI9aM6yng8EmxlrLcciz+Lu5fXwlc6itusp5SLYLi+1YrEPnJUTZiln2DZi2cpiqSocRvGE1nsv4WuNfDX6EOEa9Al/IHuJfsqNcbCR5T3QlZ2itaZoUVlS6VZN0EAI/oi2WB99ZrgaA72/SzNGM1bCiMairpDybOc8uKTDjN7u9PP+aG+POUlmsDdKKUN6klStucGZwEqs5x2HMKp9BPY3HLzSLRxTX95ihH6PZ0mPCtogoGh2avqihJiXsyqfI6S7rzNao1+Wlx2fS+/nE3D7Ssr3Xy93C5gvMMCR1XitinFzGIzCWzWAoWqBtgKetHNOLGKpB4Kfr3kNyS2GaWwrTXGp08qHoUNMS/7Sj4j6Ro9r+Uw16RUsixdJRO6qB5WoA+P7Lmpnn+leEIKkaJFSDOdcm5RYCSTw54jl8OT/Gz+3ZwIRoFKEQgMNkUcasDKamEw6g3tqVHiO5VEnjLC8ktysF7lKDO/HbPpU3SSDjOeRth6RqVqWHP2JnsPHYaDZXNfC/8+O8b3Ynu52l1W75oLD5B6Y5HZNridNzXMJgMS6fYk08efRd8ZecYzORz/g+bjUoihLIq39LYZpb7RmuNnv4w+gQA0owoQFdKCQUg6iqMj+YOdVgYmlp5LMGwBLC9/qZ6RIPlQA6VJ24opGWDhnXoeCDy9ND8gNrii9Zwettt0paVkoYyaRYG0/63kTocC5dUjXtCcXhRtUiJYK9p5bP9c2uhEnHIq7qxKvovHjEzmF7HqeEkoELBu1387xp+lF+YU0Hep2g2S4sHqfAVUS5TEYXvBWO5zGWyzDoc18Ax/MYzcw1Iwe3NAE+Gq6U3JAf5yfWJB+KruIN4T7fPA4hoRJX9adO/PORwNQiIl91IfzfU9qB5WoAVFsEWjUFJBOeTU+JbGshBHGhE1d0HCnJSpuM62DXsXnvcfN8MneIR91mnaRaV93gSI+R7Byrov41upm1LeaOS6TKILlJz/OoaI5buta+7NUy59oUpEentriY0LRr8WBuki3hTsw6a7gX44e5cd4y81hAJ67mYyH5T9I8TIG30EHnPG/AXMEiqhu+Nrs6nJ1raUOaQLLljyMjPf4ivZcfWRP8XWwtG+sMC5hHS2ajil6xBHHUs7CDWNOk/3tKO7B0VUQqIiaCGHWfu7gRqAlBh2IwqEcYMqL06WESqkFIaKhCVIy5/8yZ4e2ZPU3c/Gm5TGfWsZnyKf7pSo8juYXu1L2Ky7/qmaZt/sV5SJSATleW5zJhVyevmvEcHshOVezyVg956fHe2Sd45dT2ZbP5z2eHKPBxMcV2sTCVaMKnLnwA0/lcw+24G6XQxIqm39lprpp+hK/mDi/6WRWFkFDpUHV6tRBDepQBPUJCNRbVH9hlB7R2So4EM3BrWaYeABmIAbDXy3M21bsBFQQhoRJSVeaHFl0knpRPWf8ZPP4svZeftcCN+poVm0irgoIG07ksh9KzjKRnKLjNywuYyGeJ60bDzVfG81nco/dUArepBX6lBpOfUYkXdA9zTrwfaRabzMxks0zm0r4t+I6UTDh5urXQogtiQbpsz05xUihBnw9lgk84Wa6ZeoiHbf8TUtuJNB7/xAxXiSgvk0UVS8eTTOYy9EUaU7W0PZeJACV+j0cg6DJCrAjF6NRNwoqOoSiEVZ3rRw81bR4WHn+Z3scjTo4vdG4kfnRRVIRASIEiigl9jdjOTwZ1eFLEZDADt5blaQAIOUYAnZ72OZYvfQbVo7WqulDY4+Z50+wO9raoi9baUzae+JdS4uYLTKZmeXLqCPcdOchkgFnKHpLRXJrhaKLulz/vOswclU51gB9pOR5SWpOJ3js0yJreNQv/UgK2QzabZWIuxZ7pI4zlM3XHf92njAATfZEcCg/J4/kZMkaUtUb9cex7CileOvkA48vw1F8KCfyYDJO4XCcSqBJmCnkSZqihZkGHA2rucwyBYE00wdpwgm7dJHLUbe4BtqlCbwJt1SBqdxL+9bbA5lGO7+eP8Mh4mht7trJeDR+btC/scgIyrKQcC2bg1rI8DQBP3UsAiV6Puf4+XPfac7wt9QRTbSAutAAhUMMmfeE++vr7uODkLdjpHI+Pj3LbwV2BnF6yjk2qkCdRV8215PDRTOo5IfmWlmNUtE/9OVBc4AyNiNHBqmQHq4aHkJbN5PQ0j0+McjCTWnSI4/GkZMrJ062H0apYQQ8WMliey0YzWXOI4n+tSa6Zeoi5gBq4tDO/FnmmkbyLBCEER3IZhmP15a2kCnlyAbn+V0ZinBbrpU8PLzAKC6pCYVUvxslrMAMsZ6yFHU6Wc4/cww+6Tuf5ZtK3cR8MyjMl2BPMwK2lPZ4Gv1HtJ/H8T3zabvtXrnOTNcn7Uk8Gk7DiN0KgxyOcGl/PqWvWMjeT4tZ9j3P/+KGGZ3+PajPkqQxKhXErS4cRqvkwMGNb5B2bWSH5mpZlKuAsf78Qpk7PQB89/X242Tx7xkfZfuRQTcmjroQpO0+vHqqqomPcyZP1JmpKDvz/s6O8bWZHSxPWWs0OCuzGZjMGuaPGaq0CQZ6UTOT8NZ4VobA53s0p0U7iqrHgCbA0Be20dRhD/b5e0y+mPJvLJu7nW11buDrc58uY99m1G9JVURDPGgBLhoMHD7FidQ7wVWlmzCsw5hXob7Cu9UZrivfNPYmzFDb/41EU4l1Jruo6j8vTWX755GPceWR/Xa7s3yk2N6l5IorgOifCgAdTVpZus4ZMYQkT+RxTwuPrWpaZOrT7W44ANRpiQ3QtG1YOc+DwGPce3kehytN2MSfAokcNVSXslPGKPQQ2h5PEFukh8Ln0Ad43+8RSfFJ9QwDXE2czT7/3k/kccb26+32MaSvnmxElBJze0ccp0S6ix5XDWZpAP20D5pA/m2qQWHi8evph/l1u5vWRgYbG2u/mOewGUq6fYXzvsgwBLNMqACSwM4iBG/UCfD8/wXvnduG0OPveD/RYhBefcTYfuuDFbOqqbbF5THG4USvmPWSF5Ot6ljHhMmnlcUvU8JcjZVtMSZuv67mlufkfj64xPLySV2w9j7P6h6vWabA9j5ka8kiso8mB4075ypZvZQ/z/tmdz+jNH+BVxHmOXHiWsD2XtFP9/Xal55va33C0g1f2b2RbvG/B5i+R2Cu6MS+7AGUJbP7HcKXk+plH+WZ28QqBStxbCOj0D0/Q/g1h62K5GgAgeHDxD9XOnQ24mG4pTPPH6d0tL73zm1Asymu3Xcjbtl5IVF/cO7Jbcfi+lluQnZ9F8g0txxQu03Z1mhsSOFBI8x9ariUNfIJE6ConrVnD1adtY7BKnYSc55KtQYPARbIjP8NOa/aEpLSbrSneNP1o0yso2o1XEOPFsrRHaipf/YY+Y+XxGnzvdUXh0t7VXNo5TKe28D0rqAKetxX97JMJrAY1QFwpeePMo/wwN173GLcWZnyc0QLuD2rgVrN8DQCCMQB+Zc/W9b0HnQzvTj25LE7+5Rjs6+MDF13GWQPDZT+zTzh8W8uXlOF9KoGvkK1q40k5Fv8uMowvkZh/PWiREM/bcjrPX7upquYts26h5mfssJ3j4dw09tHv3W2neOXkQxSe4Zv/pUS4UpZvbGO5TlWlnVJKpq3GhOR6zAivGtzEGjOOepxXKB81MV50HiLRWHliq3Gl5Nrph/lNob419uf5oCr15AMBDdxylrEBEMwvbaeTY9SrLc60z8vzptnH26ozWlAousZVp2/j+tMvQFUXLlSjwuXbWr5i4uMR4fIdJVfVgvnlwgQHlOV/TxEw0NfHy0/bRkeocuKZBKYcq+ate8YtcH92ggftFC+ZeKDtm/kEzXMJ81q5eMnkVIWGU8eYLVh4dcb+hYB1sSSXda8mXCJps7Cyi9Al20APRu2x2eSkxysmH2RPjT0l9rl5Hg+sBFAN5DDZDixfAyBn3ENAXW5ur8FCzUuPd87uXJaKaZVYPTDA+897EYlQMXY6ITy+oefIVxGnf1Jx+JZTWRTpJnuGe5Zng66yGOEQl596Nqs6uyt+zpEe6Tr00Oekw6snH37GPavHcxYmb5DxqrIvsra9aO+HxVpSl0MVCmcmB3hecgWhEiJZ9up+jLNOqWvsdmbcs7lm6iHyNRhNwZ3+sfGy9wU1eKtZvgbA1K4UEIgX4H+s6mWhP5Ley6NBWaZtTjQW5d0XvJBwPME3tCyZGs6lv1Ys7iiTb3HAK/AdJ7B4X1sjVIULNm7m9BXlwywAadeuORTw2dwoTzRRhrod2YzJ22SypsY1qQreqpxrV13NMR9dUTm/e5CtkR7UEsu0vX4Q/fQNNY+7VLjfnuOtM49V/fn/zAem1HsfY2OtadfYBJZnGeAxJL9CcLbfw95emGXac+gs0Y1qPjfkx7khX39Si1/0GSFe1LmCrbFOTot2si4cI6mZdGiLd5ZrlHFp82Vltq4M/a84U2xUI/TNu88FJJ+1j7RcPyGqapwX72FbRw/b4l2cFO6gUzPp1Iym3NdThtcQ1k3u2rer5M8lMOsU6K6yec3PCjP8d6G1Hf2EEJzR1c85fSvY1jvIad399ITCdJphOo0QmaN9Iw5l5nh0epxHpse5fXQ/908cbjjBDuB5K1bxT8NbuefOu2r63pydpycULVkSmLJqV/g0FJXzu1ZwUqh08mdhRRfG5nU1j1uK/Fv/jFTBYqaQ48nZGR6ePsIDE4f5+cEnGfdZs6BWvpE9zIvMLq6LDFb83Lhn8wsrsAPB7UEN3A4svXTRWlix5uUgfxjE0J+IreXaCuIVo16BF09tZ65Fcf8uzeSNA+t4Xd9azo53V5VA5jfTToEX3P8ztmfq31g2KiYfNwefKof7d3uKnzr1JQk1iikUrugZ4jW9a7iqe4hIA3KwfnHgyBi/2fNE2Z936SahRQR/9roWb8vsrsnl6idn9w7y2g2n8ur1W1gV66j5+5P5LDft38nXHt/OrYf21mUMbOtbwS1XvoEOw+SJ+x/kjrvurEnbYmWsg+hxmfkSeHJ2sqb5GKrKBZ0r2FBm87diJubF26qfWJ14UnLv+Cjf3vUQX3v8wYaTGOslKTQe7j+flWp5Q/ZfMiO8a2ZHMBMQXMnIvpuCGbz1LG8DoGdTHCM/ji8K/gs5z4jz3cTmkj+TwPWzO7itzmzWRlgdivKR1adzbf86wg0212mErOtw2fabuWO2cdfcdXo3V2gd7PYs/twabXppmikU3ji4gY+sPo0hs3xWeKvYPTrCPft3l/yZJgR9enk9LA/JO9J72NEC1/+Lh9fxkbOex0WDq3wbc09qhn948Dd8dccD5Kssidzc2cttL38jPaGny/0e+vWd3L29+tyvhBmiP7wwCz9j24xkql8DNKHwnO6VZU/+OVUQvux8UJsbuc05Nt/c+RB/dd+v2J8OrNa+LFeY3dzUs7Xsz583cR+3B+MByOHme5dzCGB5pI6WIztZIJ64CITvwbJDboErzW66Siip/SA/wRdzo35fsiJJzeCT687i30+5iHPiPYs2iAkSS3q87KFfcOuMP+JZOzyL87Uo/2pPMNXE7HQBvHXFRn582iW8tm8NHVpjCpBB0RnvQJGSI3MnLs4eRSOg3PPwfWuKm+zm5lOc1TPIDy57DX965kWsitenqV+OTjPES1efxFtOOZPxXJbtU5UN0LUdSX75susYOK7DX9/QCqyZWcanq/NeOdKj01woxzxj5ao2QhQhOKdrJSeHS+viu0i4YDNqtAaVTJ/QFZWzegd515Zz6A5FuHPsIFYTu4XudHNs0CKcrp9Y5viIneZPUk8Gdemfc3jka0EN3g4sbwMAIJ5MAFcEMraAi42FL2xGurw19QSZJrpTX9K9kv85/VJe1LVi0fawQeNIj9c8chs/mRrxbUwXyW/dNIebuPlvDHfw/VNfwLtXnkysDVz9i9HbkWQum2W2RKMmV3pEVO0EVcFxafOR7IGm5VNENJ1PnHcpX3nBVb5v/McT1w1eufZkLlm5hjsOH2CqRCb+YCTGL192HavjJ266QghWrBpm+tBhZtOLN5iRUtKhh1CVpw2tI7lMVe5/geC0ZA+nR7vLKj+mV3YRWe+fp6QeNEXh/P4hrt+0lSdTU+yYaV6H3N/Ys7w9MoR5nCH7F3O7udeeC+aiUn6a9OyyrQCAZ4QB0HMYvPcSQLjjSS/PG8MDGPM23c9mR7i1Sa5/Qyh8fuN5fGbDOc0/nWoqrB6AdSthsBdiEWQux5sfup3vju/1/XK1V7bXz/UD67nx9EvZEK6/dW7ddMp8fEsAACAASURBVCeK93RlL3TGwXUhX0W5o4Chzm4Ozkxi2QvL+DzAECracYvn3+YOscttTmz3lM4ebn359Vy1emNT81FWx5Ncv2Ub+6w0Dx152ivXHYpwy1Vv4ORkT9nvKqrKiuFh9j25G8te/HdgqBqho932bM9lssqumWtjSc6LD5Y13ud0Qcdzz6pqrGYQ0w1eu/F0ulcOcPPOx3xJwFyMjHTRhOBis/Opv5uVDtdPP0YhGBVQD02+k1QqIOuiPVj+BsDcdIpY8mIEa/weuiAlPYrOmUddUyNugfemniy66wJmwAhz0+mXcnVvC04FK3rgkm2wZgX0JKEnASt6+KPtd/CvD93T/Pn4hCoEf7vuLP5+/bYTNsvACRlw4RmwdSP0d0FvEga6YcMwDHZDzoJ05Q1FCMFQootd44eRxy3KjpRE53kyfuPM8ZXgSqcWcNXqjfzkimtZEW2BQdXfhblxmGvOew5R0+TmHY8QD4X42R98kDMHhyBbOUtfM3T6u3rYuXPxngiqEMSMYrpRxi6QrsJo6DBMLu4cLlnnD0XjTZy/GS3ia1+zhvAGe7Fe92LOeuVLed4F5/PTX/6SbDb4HJJ77BTXRVaQOFoV9C/ZEf47uCqrXzCy/wtBDd4uLH8DAKAjqQMvC2Lox5wsbwj3ownBpzL7ud8JqB/1PFaHotx25mWcEesK/Fon0N8Fzz8T9IW5D5/62Y381U8CKbhoCmFF5UenXcL1A+ubf3FNhUvPLW76pYiEYM0gREMwNg0VmiVpmkZMNzg4s1CrwkMSUlRUIfCQfDhzgNkmVKi8+7Rz+feLX/7UybipDPYUjaejJ+sL129kXU8fb3/eJVy08WToiBb/ZPLglL8XkUQcveAwMla5WY0rJZ1Hha9mC9ai8X9NUbikexVdWvkc5VQyRPRkf0r+/MAb6MG69jKIFXMRVq1cydVXXMFPbr6FmdlgPZ8OEltKrgh1k5cer5t6OLgqKyH+irmZZSsBfIzlKwQ0n5B6AxCIr/OIZ/Od/BHGPZsb8hNBXGIBG7UIt5/5EtaHWnCaUhQ4/9Tif4/jytPPpDPSfhny1RAWCj/e+Fwu71rRmgmcth6SVei4r1sJLzyn6C2owKq+AQZLxLWzXnFD+t/CLPu92uvTa+Wdwyfz2edc1pISVCIhGOg84a/fcP5FXLxp88LPbRqGeOXkulPO3caq3v6Kn3Gkh31U9CdfRY+AsxIDDOjlr1uQkti5py46TtMQgsJVF4Gx0PhfPTTET7/zLdavXhP4FL6SHeGwW+CLmRFGauh+WSM5ctoPghq8nXhmGAC7d88iuCGo4f85e4jPZ0ewAu5It0Ix+XnPmQyL4IVmSrJ6oLhglmDz4Ep+8M73YbbipNcAIaHw4+4zeKFR5vQdNLoGG4aq/3xnHC45B8KVK1vPWbPhhI036zo4nuRrVvDiVO8ZOoV/WH1m6+qM+7uoOu1HUWD9yqI3oAyqpnLu856Duoj4V95xkJJFs+T7w1FOiZ5ooMwnt6IT1fS9grlu3JOGkd2l35PhFSv46Xe/ydBgZdGeRslJj79N7+VT6X0BXkV+76iS7LLnmWEAAAgRWDzniGfztZw/JW/lSAiN/+nZymo1BLkWaeCvr7xRvWDjKXz9ze9AaWEJYq18PrGJF5pdkG3RPV0zCLUaTYkoPG9rxXrwkGmwuXfhYiyBm+xpDtbYzKpWrkgM8Jn124hoOtlW5FBpWnUelfkIAWtXVDSsEn19nLm2cojI8hwc6Z7QXnk+ilA4PzGIVsFAsZHEz9i4+LybiHPmyRV/vnJgkBu+/EXisWA9gZ9LHwjy9A+eXPax/2MsnZW6UQ7uvQshlmSGmoLgW92nPl0H2woDQFWga3GVtleffT5/+fJrmjChxvlgbDVviR51++cL1CT95he9lU+BZelKwLlbyv5YqCqrY0lM/WnjwgW+UQg2THWKHuVb0U2kRsZwXBdrugUHqVjljollUQSsW1HMySjD2g3r6TLKj19wnw4DlGNropcerfIcsz1xFL1Fnr5SCIG3snfRj52xZQtf/cfPIFpcjtwAd3H4wJLcJ+rhmWMAAHjeP7V6CvXwofgqrjDndYDLWjRdCj8Zr1qB7E8vv4pLNpVWSWwXXmR287cd805zUkKuBV3wqjCqyrJmsBiWKYMRDrMl/vSi/Vs3zViAnf6SQuPGrjNICI1kzsXdN4abCj4p9gTCdRoAUIxvD5eP9XesHWJrX/lGTAXPwXbLhwIjms7mSOXkXUd6xM7ctPhcm4jXkzwh9l+Ol77whbz3rb8f8IwC43OtnkAzeWYZAKP7vw3safU0auFCI8lfxY/LAnZdsJrsBVgk5jwfRSh8/c3voLsVZV9VkBQaX+k8BfX4U0oTSplOoExORdWctamYR1ACIxYhruhPeQFudoJ1x38uuZF12tPlaqYr6R6ZZmLHLtwKWfa+YzSYh5KMFcMspRCCzt4e+kOlk/ccz8OpIAJ2XnIQcxGJ7kxURw01+Fz4jOyoTYHw4x/6IOdsLS/f26Y8yaF932v1JJrJM8sAAAchPtXqSVSLicIXkyeXrklPN7k5RwW3aClWJrv48nXteQr4l86TGS7VXCTdZANAURrXdQ+ZUKEtbCQSZnO4i0PS5nEvuGfm5aEe3lCia5twPHosSX7HbuYmmqQcV6JKpWZW9hVDAiWInrqBs5L9JVX7PCnLGgBdZpg15uJGsbaucqvnllBjOELXNL746b8n1EZJjFXwd0Dz5EbbgGeaAQDJ6FeB/a2eRjV8tGMtm/UyJ5FMkzerGg0AgFdsPZs3XvDcACZTP1eH+3htuIyL13bBamIYQPPp9dswVNaTEO/tJiwFt7ipwKJG3YrOF5MVQj7pHFFNJzqeYnLnbrwKLnJf8MMAMHUok/GuxyLEQ1EGQqUTDd0yOg1nJ/oXLYnM4xFd06Jy1EqU8TJVYtP69fzhO98RwGSCQB6gM/b1Vs+i2TzzDIBHHikg5d+0ehqLsVGL8MH46vIfKDhgN9FYLdS3MX7qmteRCLeHipmB4FOJRfpCNdOwsl3wfNiWFQVOLv2sCE3FVhXucILr7f7R+Fr61AonxEzR86AIQberkHl0FzIXYBa3X41q+jqfEhE6HjnQxdaO0jLCbolk0k4jxJCxeHa81Rkte82WUmfI8YP/512sXdXaHgbVIT7GI4+0qBSodTzzDACA0f1fAR5p9TQq8YmO9eiL1THPBbeon0A1evQl6It38OGXvNznydTH++KrWK8uYow0M7QipX8ehw1DxVNrCW4mzWxAjZQ2ahHeGVtEx8CyFxiQcd1A7D8MEzPBVF74lW9gaMXk1xJENq2l34iQNE50cZfSxt+a6CNbhWqdvirYOvp6EYtIJpfD0HU+/qEP+jwb39nOoX3LuutfOZ6ZBgC4CP641ZMox/lGgqvDfYt/MNVEA6CBE9v7Xng5G3rLZ6s3gx7F4MPxNYt/0LKbGwbI+3QSVtViVUAJbswHF3v/ZMeGxQ1VOPFZlbJoAOw55N89OIafnrGe0l0LtUiIvAJb4id6AebfDQvJ7xSb98ztoW/0dqYqVGHYSCJDrX1PyiEaOGxc89IrOPuMM3ycjc9I8SGKVbLPOJ6pBgCM7LsJ5M9bPY1SfDS+tjoNM9ttaGOuiXSu7oXVUDU+efVrfJ5QbbwnNkRCVBnHTGWCncx8pnysky9RvpZ1HW5JBSNSdZoW4+XhxWvDAUiVCa0UbNg3Ckem/PMG5Hz04sRCZePfTkeYNaEOtOOSBR0BD2LxRTHLB8Q4/yynuMmaICc9flrBGMuG1LKJh61GzM4h6jTUhBB8+D3v9nlGPiH5CaN7f9bqabSKZ64BAOApbweauNovzmlajMtD3Yt/8BizTfICSAmT9Tf7eOWZ2zhlsDXJTRGh8s7oyuq/kMo2TxRoyscGKr3JE8o1fz49SnaRpjT18qH46uqlfl0XsmU2ZknRENpzqPxnaqFOd3VpBCRKJ/tpA32EhMr6SCcS2EmBb4s53uOO8k9ihrvJn9DG+r8r9AsRZZIO2wUxWr8n6fJLLuaUje2lbAjk8GSbWibN4ZltABzeuxfJJ1o9jfn8UXxVbfrpmZw/iWTV0IABIITgvZdc7uNkquf3oyvoUSo30FmAJ5tXEjgx4+NgotgBbx4/njjg4/hPM6SGeHWkcnOcE1jMWC3YsP9w0RvQyDPt+KyTUUYTIDTcz32FFN/wZvmQmOCTYppbyJKq0BPkp/lJ7DL1GHp/C7p71oByqP4eEkKINhQHkh9nbP/uVs+ilTyzDQCArtg/gHio1dMA6FJ0XlProurJ5iUDHmysicx1F1xEX7wB5bs6EMC7F0tSK0WzPCszaUj7eK3up2PWnpTcNHXQv7Hn8a7oSoxaW/1kcsWw1WJMpWD3wcae6xkfHXvHlVg+MTvFx++9jS0//BLbxu/h33KHmK4yhDwjHe6wTjT6PCkJ9ZeuKmgX1J2NGZOvuupKEh3Nff8rsJ3B3v/b6km0mmcNgEceKSDEG4AmBdPLc214ALOeX8l0k+RWp2Yb2qzCusG7XvBCHye0OOcbCTaotamYAcXcijorH2pmv48x+nkGwF1zExwp+F/VoCB4fQnRn0WRwGyVz6rjwsgRGBmvL6t/2kfVQ01lxM7zf7ffybbvf4lN3/48H7v3Nh6fqc8lfmOJMEBekYg6tDaaiXJ4AtFAb4dwKMSrrrrSxxnVjYXivp777muB9nd78awBADCy50HgI62exvWROjOAbad55WsNblZvvvAFTW0UUtdGdYyZJhlW+w/7N1Yi9lQd+R2zR/wbdx4XGYnSSorVMJuFMkI5JZnLwJ4RmE7VlpeRyzdczZG28nzp9l9y8af/hlVf/Xv+8Dc/577x0YbGBLitcKIHwKlSZ7/VqI831ob3ule/yqeZNIDgwxw82BZe31bzrAFwjEP7Pg38slWXX6uGOdtowD3m54mnErsONBSfHe7s4tw16xb/oA9oCF5dbZZ6KeaqdFk3yvScf7kAigCzmO9wVyqYzn/X1hqmmo/nla8IKIfrwdhU0VCqZVNv8J7O5fO8/Ztf5dYnHitZ218vDxXmyB8nF+yFGuxf0CS0+5+ozYA7jm1nnMGa4VZKHYv/ZWTfZ1o4gbbiWQPgaTwc5XXASCsufmWowQSgfKE5LutMHg40dmJ99bbzfZpMZS40ErUl/5WiWpd1ozy217+xQsXT5D1z/hsACoJXhKrQqKjEdLq+bpY5C/aOFI2Bajahidmi8VAng4kk21b7b6wWkDxgLzTYRaNNoZqEmJ1DfbwxJfWXvqi5YcB5jKLLN9L8Xqpty7MGwHyO7BlDiP+PFuQDXBVq4KR6jMkm9V5/dG9DZXKvOvu8poQBLjZ9KKuayfinLFeJg+NFd7cfaBqjhRz78/5XuJ6mRehXGzSqHKd+rQVJMRywe6Q4RqXn0PMa9gJceXowHe3uLix8V5Voe8hlV4N218MNff/KF73Ip5nUhA3yVezb13gMZxnxrAFwPCN77wQ+0MxLRoXCBUZpxbGayFrNEQaamYN99XsBhju7OHvVWh8nVJpLjc7GB5ESppoRXpFw/xP+DOW4gbn/X2D6cE+heE8bcas7LhwahwNjlUv+jkw3ZMBddfpZdX+3EnfbxxkAbdb+txLK4QnUHXvr/v5zztlGLLp4XwRfkeLdHNr/6+ZetP151gAoxaF9/wzic8263Fl6HL1Uy996mGiSF+D+J+puEARw0UnBioL0KjqbNZ8WmVSmOY2XRsaLfxrFdbl7zodxSvB83QdDFYqbsh+letk87D1U3OhLhQWOGQp1snVoFb3xxVv41srdhYWaGrq2NHIAjqHffBeiTq0FXdM498xgPCslkXyG0b3/1rwLLh2eNQDKcWjv+4H/asalztXjtVZUlydfeKr7WqDkLXhwZ91fv3B9sAbAeXrHoq1Xq0YCk01KsrzvscZCDp4H2TyPZ/03BHUEZxo+bobTc/6IWEmKJapPHixdLTCZqlvYSQjBOavXNz7H49jl5BYkAur60qgCOIZI59B+dX/d37/w3HN9nE0FBN9ndN8fNediS49nDYDyeCju7wG/DfpCW7WYfwYAwPhsc9Jcdh0syrfWwUXrN/k8mYVs0aL+3tN0FvJNKBvO5OG3D9XvHp+eA9djT87/5MWNWgTTz9wN1ytu2H6ONzYFe0dPlBTee6huL845AVStSGC/O2+O2tJbirX7Hqs7FHDumWf6O5nS/BrhvgEqSDM+w1l6T10zOXgwR0h9CULcE+RlNmg+JwDZTvNq2O95rK4SxIFEgrXR4FTBtmh1iP9UQlJ0MzfDsDp4pP6qgCPTAOzJ+//79/2eAkxnoOBzeMUqFEsGD449venbLuwZrcuwOmcomH72e50mtp4OCOMnv0ZM1p5ouXF94KXAD6DJqzh4sEma3kuTZw2Axdi9exbhXA48GMTwUaEwoBj+7ytTqebUsLsu3Pq72g2O8WnOCPsUTy7BZi2C9PuuWrZ/mfqLsX0XPFFjuZWUsOsAs67NjON/SegWLdpICXhppIRxP/shzCOdK3qoxo/mB2RyRe9AjUbAtmgwGv173Xl7k+83tkkUbMzv3oyYqe0QsEo1iRsNVpOU5wEU91L2758O6gLLhWcNgGo4eHAKT38R4PsDtUENI8D/zcqTzSsLzFtwy721NQt6dA9rQ6W7rDVKUmj0KHowDf3GUw3VlleNlPD/2HvvMFmu8s7/c6qq0+SZm4NyQhJBgAELSQRhMsY2GLwOwsYJ2/xsjDFre+11WHux12FhAdtrg+FnZIJJMtggSygACgjFq6tw870zc2d67uTp3F1V55z9o2akST3T3VOnu2emPs+jB547Peecqa6q8543fN9Hj0E9ymtD5yBf4kzJTL7CJXYy/PsUguoVU0qWSgX35UJ+wGweTqdrNwJ8yZ6yNrJZDS0OAcjN245eZPMk/uVWRB0ll7EHnuTKPiO9D2bBey0jIzMmBt9qRAZArZw7OQnhhpUhiKuCAQMAgmYqobZGXQPXhTsfgqODrOsnPzoI6SkuMGQA7J+vUzeyTSvVvEqLBSPg/sPrK+DlCvDIMQBOG4j/AxywE+YiIJNzZrtaLuQHnBkNKi2ODq/feljrwKiSkvO7wvdWLTYAdDPySwwi8kWSn/kGTg2JwfaTp7CPnOGq/hC0T1YjnTZTA7sFiQyAWrn66jgQ+lvgYjuo/zX27hufbV67YKmC8sDbHwxisMvdmp4PjxyFQ8FLwpQHYL8V6NQbMaogKAsMo299rQydg1vvh6NDK0svtQ5q4e94KDDCgHHPzNr2WnFz2VS+NBcKWIzrBU2Gjg/BE6cCAabVytkqXpDkOi9YdGFXCKJSyxhZ7AEot7wX2cZxPWK33kfiC7dhrZYcLCXO/YeJfzMox3+OGQ9A3/y7OqIGNlfxaSuZLe/BgAdg37xUrW9qs/IlTMzB3pAEXGphOgP3HQ406Xf2QDweCBRNzi1xdV6UMmMA7Jv3APhGYgDzjM/C+XvAbpINXarAY8eC3IBdfdCVCr7b6cyKtrl5Gf5pcsBySAkL0Pha45hQcswWoTMFXU0QxSmWg/yAqTnY3R80UUomgid8oZR20f1zfnf4HoDiojJAVaxsmdOYNThGYnAM3d+DOrAL3ZlC5IpYQ2nEohLlA53h6ysAgkxmFy2SdN9sRAZAzfhGzNU9z2xWBuPKuSJ0JqG7yXKjFRdGq3vjejcqKVuFXVZQU230mvoKJjKwr4mGFQQG1Lm129AWZfiiRbvFs9+VROFgqHXtxCykdoPdhNa4Wgcn/FwxMAB29kGVlrx7O8JXrivoRXH/ZrWebiJiNou9RpnnfjMGAOjYTiIDoCa2itHZBLQR7crd8x4AafK0CoE2QDM07esgYZl5yXeIYFyJNpMIuEC+uOL03Q4UVfjfc3KRUqVRz4pUgceqmWgdyFufGoGJmVUT8jqc8I3V4iIDQDczpNQm7OswZQCoJusMb14iA6B2jPglu+ZfrL5prQopYWxmY/rrIZOwzNx+SzYr09d1Ym5DksgmKBgIAaSWGACGr2m+HGTrNxutg/LZUyNB6eCiao+UHb6zdLEBIMLWQtgE9JgqAxRm3tVbkcgAqBVDN1XnvCvVU8q8xkzZbV5pYA2Y8gCkFt3WrunNSmkYa2KiZQ0UDZSULTaqjF9TCHIbSi1yiysdzH9mNDAItKbDgFRvcdE9YyvVVvdQM+iKJUwNvXlaK7aYyACoFSWMmKsLJytNk16ss3nItYc4VkJY4WdVzo+7gKubEPZwvea7rdegYCAHYMk1bYZojSbwWPktFMjxZRASOHmWTgPGSFHLZ4x+gUCPr53b0Sx0RxLd0wWGPHQLdDmG+h8ojFkWW40oCbBWhPYMFAEgBc+kU7naJ2HGzljKxBwkYhBv7ddvCUHCsimHHLP2FhlSrlKYyldbQq4YXNN+M5UN9VBU4RsAi+P+PgqpNbaJSoDFSAnnZuDADjA915rrUKQK4ZfpKTQuisT8OUyNzWDvM5JrXBN6oBf3zdehDuwO/sH1sI8NEbvv8bqV/mrBNZCrAoClt15GpSEiD0DtGDk2L+4IVmmGBwCC+vzRqbZICkwZCAOUFhsAKJoj4E/gNjalaFcHJqoAystyKZriWYGg/HG89YquKcuMsbz4XlWzdShpho1jU/mJ1z67+QPEY8jnXUr5F34E+dzwOyIWfWO5M+3h4twERAZA7Ri5qUqLXqTlZkjMLuBLSE+3PO7YYSC5arFRpbRunmGlCdTmWqzqZsIDUF52DUvNMgAgCFk1qx1zFUwYqrA0EdAqVlqWpCsvPoDureK9ijm4b7kB+bxLQ52zZMBQDRDtV5rTpkQGQM2YuakWn6wkqjl5AAtUvMDF2kI6THgAlp1WSwY2xKooDemp8Dvc1UHJgGu1tNwAMOW+rcZMNhAKahGmDIDF19VGoFvk7dA964eu3Ndfix4ITxCp6Jt6RqzIAKiRyACoGWHEAzC7bHNq6mYFgeLZROtcrCY8AFm97Jo287QKQflYerplCWxTXvjx6lm91Kvha7Uk16IpTMy2LMRiogwQYEotva5ycBUJ3SYg8jXsmY6Nd8M1oc05VTLUWVN4kQFQI5EBUCuWb8QHOSqXvqybfrICyBRhvDVZ7B0GYqvLr6mrlHk9gOV4fqAz32QjwNOac274tuq48lYIAJV0k41VTeCxKjTfCOixzWSsD/vLvqsWlelaw+dqygmSl51fVS2xXs4WDP2ttt0CEYnNSWQA1MrIyDkg9Dfe2LITQEXL5p+sIJBEbUEp285Y+PIKI3JlErCJ0rh18fwg2bKJuR2jlYIRVUmpNZPLvAD5VlxTrYPywCYbAXvjKRwR/uvy7DJj1VEa3QKPnCiWcQ6v38kPx0b19YQy53DOSNKjx9DQhImBtyKRAVA7EjgX9qBptdJd25IXK0CmEEgGN5ELk+Grdo6udk2bHVpZwPVgdLppRsBw2Zz3c7lnxdNNzllZQOvAE1BqXgc9Wwj2xsPXlzkrVxoy8thw6PPUgvOdRxEz6z//IqTYvSEPQJrgXR1RA5EBUB9nwx5w2F/5Eitor1mFayuZyze17OpCAx0Bp5S3Imvd1yp0vYGaqbhwdhI88/OfKZvLlh+WqxmrLap4UDrwruSbV/F1MBG+AXDKX2kAiEyuJSW6ouKS+Nc7EGs08BEzmdA0AU5njLxnRkwMulWJDIC6EKEbAE/5KxNhpNbNTwZcTLYIY9NNKUm6IBG+B0ADR+TKk3BOtbA8byEnwHDfgEfz5qo6VrtXC8qjCSLWq7OgFphpTs7XQQP36qNedsXVs7VAHhkMfa5aEJkciX/+Bs6h44FeyOKflSrE/+O+0OZ6dGostLEW0Rr3ySYlUgKsCx26ATCmXGaUz8CyZLiMdI0kyNVMvhxsWPt3Gu15f2HSjHLe416eFzpLxy4qH08rYgZiuTXhy8ATsH8npMwoPj6aMycn+5S/cqNVQE56xlo718TELHge7AyvRG01DiY7Qh9zVFY4XM5yfixJjxV7Rl1RD5+D517cEgVEUa4Q+8/7ce49hLpoP7orhSiUsU4MI0IKu5wr5hkrGsnVizwAdRB5AOpBixqyZOpntZOVq1VrvQAQCNqMTBqtab8gHv5LFeDwKtcUIKNarBK6oBNgoB+D0prHC2Y9AKud9bPSQ7W6y+RsPqhkMbiMS6QZifkn/BxZ6TLqFZj0y5S1xFGgTrR2LxP5IvYTJ3G+9wT24ROhbf4Aj02Fnk4VoLWRd/RWJTIA6sHmkIlhH6+2WbUqvroY1w9OrYbqr+2xafpF+J6OQ97qp4uClGb72deCmk9iC7nq4kgxQ86YuArktOTMKklrCk1et8G9mi0EBquJXAsNF5TNxOUXnn9N4KUa90qM+SWKZ0Zb2wzJIA9OjJoZWGsj7+itSmQA1IV/GAMZpvd4q28EFS0ptNoLAEEscGw6dDlWWa6QLRR4fiz82OoZWWZy1Zi/ZnaVZLaWkCkEFQIhyTF/a8ZITHUJ97qrZ4lnpIdsXerqs5TdwAgIWY45NzbOZVbSSAOk1Z5/V0mm8xmKt90Pj5+C2dZKIYfNt0ZOmxjWJ2k/YWLgrUpkANTDyEgJOB72sI+4efJVMtRnZaXZEjbVmckGJ9eQNqyps8GGdY0Tfh6ABu5yVzesispvjeDSahTLcHYi2Lg2yLdmzavIfbeKAaC0Zm4V/YWW4EsYmQgMrBBQvmR2LkNKWFxghR8GWOv5n6kUUcPn4N7DcPdjcHIU3Da5zg2SdSuGPADiCIODre/GtYmIDID6Cd3F5KP5nr966Y3Umky7vFghiF0PjW+4Brs0PUfZDcYw4QEAuMOtXmY0KyvtcF4NcOcrBGZyDcewXa34bsa8/sn9Xha3yiLz0qPSLoaVJgixpKeDtsIbYHpoBD0fNrrKCT9npebnP1+EI4PwrUfgkWPBhMT0cAAAIABJREFU39c2N3Ht3Dl6Bk8ZONZoHgt/0K1NZADUz6MmBr2zUj0enJNuawRXquFLGJmCybmGSgWV6zM1/uxm9UKnO8zVPcO9bmZFE5sFPK3ay7DSBDKwI5NByWCd3DV7rik1+UUt+b5bvU58WlZa1dBudQplGJpoWDmwODlLsfzs774gZqZqpa7nX6kgkfT7T8GdD8OxYSi2SVirBv799FFTQ0cGQJ1EBkC9aH23iWG/UZmmmrNfA5P+8o7sbcBcIUgQrNN9PTE4vCRrfMByOGiH61oVwJVOBzNr5FBkpNs6caBqlF0YnggS2urg04NPG1rQSv6tMlX1Z55W7ZNjscBCc6aJuboUGWWlwuTEUq/Ky2PhyOAup+Hnv1SB42fhrkfg/idg6JxxrYmNUJY+Xzll6F61xV1mBt66RAZAvYwNPwZMhj1sTkvuXuMU4GvF9CqqYS2n4gVGwFSmptyAXHqcirfyBfXikE5WVzgdfLDzPL47cA1f7buaA+vUp0/JcuuEbKqhdFDSVqM3IJPP843ceBMWFnBrZZbCGh0Wc8qj2A7Jq8vJFAJvQC0lmBomzqyU/bjS6WDACr8x0Iaff60DD9LhU3D7Q/DAUy1pRrUen7vzDrJm7o0JRs5ECYB1EhkA9aNAGPEC3LLGyQqC5LVcq+vYqzGbh+HxNV2t5Zk5ZuZWf8m9OtbX8NT7rDjvTu3lS31XcVv/83hvx37Oq9GjILVm0iu3mwkQUHKDDWs6VzXUonzJp44fXnNDDpuiltyxxmYFQSigJU2t1kPKIJE1Pb1mueD0mbO4q+QOWAiuNeQFCO351zoIzz12HL71UPC/k5mmKHuuRWlwhM+OhJ5DvcAdbMqMiNYSKQE2glZ3IMQ7wx72zsocaemyf41T64zvYsdsOkQ4LTlDxZPBi7UjEaiyJZ49KXn5IuNj1ZPUXpXow8mLmmv0+4TDjYk+3pbYyXXxXjZSnFXWkmlZZqcdfmfCDaN1UH2RLcBAN/Q+mzCplWb81CA3Fw2JqqzBv5TH+ZHkjqo/V1oz4ZfY63QYKZ3bMIUyFMehpwN29CxRu8yePUe+VF1e+LpYD9+ohK+4aOT59+cTTEcmIRmD/buC//o6m6oyWBmf5pEHH+W7nqlmY+IOQwNvadpwF9kEdPXPIPjNsIdVBLHrV8TXPg2XlCQpbCPtSUPBk4G71fUhGUf5kvTgWdYy0JPC4l43w+gaJ5wOLH7Q6eQnnH4+0ncZb03u5Hw7uaHN/5klz59Wk1abPhJKB5tWvgRxB2IO06fP8t3CNB8rGhJVWYO0cnlFvI99a2xWCiij6LIcRCjfkgEqXnCvCgHJGMWpOaZn1lZT7LMcPl0K3+gy/vz7KtATGB4PSk8XGil1pjD59XizGca++yAfKYzyaBWBro1j/wa52ea2Mt0CtOlTuQnYf8HDwIvDHrZTWHxvx4voWcfCtxDsjiVJtKMnYDFCMKlcit76iWH/WBrjQ/mlvTxiCJ5npbg+1sWLRYrE/Euv345zRarxsEE1euw4/a3Uta+Rgg1TpTy/mDm+ZrmjSd6QGOD/9ly27ufiwmKPk8JqR0/AInzHYqyUR9UQuviRuad43MBm1pLnP+7A7gHYvwN29YMV3vfknZtk7P7HmFUe100fMhOq0vpBxoZfFv7AW5823z3amJ6+buB1YQ/roekSNi+NrV0ap4GCksSF1brmNuug0Uz5ZYo1lqf1WzH+uTSOheBKO8WPOr38WnwXr3K6udxOLfEflLXkvET4JVkVLVFak2plI6Z1KEifKbfEcb/InxaGWxb4PKPKvCWxY0Ujq+VINCUt6bAdrDY9c3haMe4Wa9r8AQpaVRVF2tA6WvH8SxWEmEangiqCQjHwiKSSGzIGKoNpzj34OFrDP5TGjFwvACzrb8jNPWBm8K1Nez6Nm4HzztuPtIYxYER1CotvD1zDrhqyjQUw4CToMpCZvBGkDjb/cp0W/5fLU7wy3sup4tJTbcpyVjRHuiTZwy7HTNy+04qxw4m3net6TrrP6Bf8XOYY366idtgsXhvv5xO9l9f0WUdY7HaSbWewlrVk0quvGmRMuVw3fchIBUnbPP8xG3YNwJ5+2N0feApqpPDECaaOnwE008rnlbOHqqodbhCFJc9nZKT5cbAtQOQBaJRsNkdP343AhWEP7c2fmG5M9Nf0+ZKSyPlTaztsV2UlmfBLeA0oF1zldJDxyisaISWEtSKrPCtdDsbNqAh6WlFUkqRlt0USm5z3puTnjaD7vSx/U2h959PTsswPxLo5v4YESoUmrzwcIYi3SegqI12m/fpVIbuFzX1ellEVvuZB2zz/SkOuCOem4XQ6aLtcccFxggTf1Z4LBTPffZi5s8/KUv+P/JDB2D93Mnr2b00NvtVpj6dws9LVn0DwFhNDPy2LvDE+wI4aLXtXK0raJyFat2Fpgk15WrroBk9GAniqtPJUm7TsFWqIGui14yQMJe4FG5aPjSDewuTA0rxBtfD3+1rznswJptqhAx9wTJb4L8ldNcf4i0oi0SQtu2UeFl9rpmSF/KoNo2ojryXfMeTWbsvnv+wGeh9D52BwPDAOAFJxsCxktsD4HfdTyj3buOioLPL7+UGTYaoPkctECoANEhkAGyG55zi2/2tA6H5oBRzy87wztavmuKnUwQnL15qksBFNNATKWjLplzcsADPmFVeV6O20nVVV+zLKZb+hXgILlLSkpHziltXUyguJZsZ3mVvWt+DvSmN83UAZWqNMKo+UsHjJOnHrxbhakVc+Fhgz4FZDA3npMrVBnQILQckrcpuXq9obYSO0/fMvZZA3kJ6CM2nc6TnGnziGv0jky9eaX8ocZ8ycdskcXvEXKBbbVByl/YkMgI1QnHbp6d0D4gdNDD+hPBLCWjchaDmeVhR0sBHHhGX0RVDRklnpMifdDcdDg9P/6hnt3XYMV8sVQQWpNX1O3LhLWc57AySKmLCMelmk1mSVx5RfwV2WQ3HEL/Kb2ZNtJwv9kJfjtcl+dtYRi9YExlVZSWwhjOYGaAIhnSm/TEH5G96ys9Jl0iuTQXLCQBgANtHz71WYzWbQywyqj5XS/JtZQ/VjjKe/YXKCrU5kAGyUjt4TWOL/w5Cq4kNejh9K9NeUELQYTXAqzysfBcSECK0Ma+HFPSMrzEk3NMW3UbewIva/QK8To6zUqj3n53yX/YZyAZbjakVOeXhaYQsRqkfA1Yo56TKtyqt6O1w0784cY3wDbmtTSOAxr8A7U7uw63TrSzQF5VNUPkKAI+odYe2x89JjWpbnn4WNn9YFgieLM0hgn3D4T1m9OdJG2azP/1N+gfdnT5k0VH20dRP5uaj2fwNEBsBGKWRm6e67BrjSxPAK+I6X4UcTO0k1sNloAis9pzxK8y9Aa/5lUM/rQKIpK0lGusz4FQrzrsYweXqV2D8EuUbddpyKVvirvGwkmg7LaWrpnqcVBeU/43IFgS1EXTFtrcElMChm/ApZtXbXxz/ID3J3i7P+12JSeYypCq9LDDT0+wpNSUly0qOiJRqBJai7dDBI4PSZky4zskJ5Fc/RRpj2K0zO6/J3Cpsz2mPMUD7GZnz+Z5XPTXPHmNUm+0GIrzA2+EmDE2wLWp/evBXYd9ErEOo7Jqe4NtbDzX3PIaw8X4EgZlnEhcDGwgIsEbxqldYogv88rXC1RhrVdRccLc0xV6WLXEwIdsVS5KVHtoqHwAJe1rWn4eTDsHCERVxYOEJgIxDz/6s0KBSKoLGLqxWe1tQqX/6J0hj/c5lIUrvyR10X8O7U3tDGs4QgLiziWPObF8Edu+iaSq2Da4pa0mkybCwEDxTGl/S9OqrK/HFlzNicsHmefw/NT88d4UEvt/6HN4S+nvTwfYYn2fJEHoAwyM8N0d13A3CxqSlGVIVJ7fGaeH947tH5l2ZFS8rziW5F5QdxWS3nT9za+KZa0JLhSvUXRtJ2SFo2iiAjfjU0UFE+A4Z0AWpl4aVZ0Wr+msr5a+rPX1OJp1Vdrug73Fl+N39m03Q6uc/L8jynk4tC6q2gCRLKll/Ton72XnV1EB4yfY1OVLIU5NKT7U7hcEJXGDd44t0Mz78Gfjd3hm8ZV6bUt5Ee/nPDk2wLIgMgLLp6nkaIX8KgV+VJv8Ck9rgxxJdAqxHA48WZNTfEDtshLiwEgsIaVQZFJdkdS7VF3X5YfMfN8KuZE3ibZvsP3NbfrMxwVayDi+1Uq5cTGhUlOV3FUD0gYtwlzZ562/n518Af5Qf5fLl6w6/wphI/QS5j1uWyTYgMgLDIZ9N09T0XwVUmp3nCLzAR8kmglZyp5MitIxXcbcew5+OWxXUyuKdkmYOxzrq3y2nlM6t8etqoGdBd7hzvyRw3UmZmGgXcVpnl+bEuLmzHLot1YgnBoeJU1VyCfuEwoj1GDGsztOPzv7D5f6Y03ozpvkB66OPNmGg70D5vu61Az8Bh0L+CoYqABZ70C5yWZV4d7yO2iU+7eelxZg3XPwQegl4n/szLzp13S1ZD6SCjfGcdoYCclvxM5iifKo1xXby37oxrE3yuNMEHcqc21cl/ORLNNyvT7LJjPNdpTpWGGQTHy5lnVBircamd5DaZNf6NtdPzX9SS9+dO8+XyZDOm87DV28lmW9P9agsSGQBhkpubprtvD/BS01MdlyW+7WZ4dbyP7jY6tdbDY8X1a4RjwqLTfja7X6KpqLUTkkpK0mXFamrtW9SSn80c43E/T0Ervl6Z5jI7xSVOa1zXPpr/nhvkI8XRtqv1bwQJ3OHOMat9boj1tn1HwNWY8yucdQvrfm6PncADnpIl42tqh+f/rKxwU+Yo93vmyiCXIPTHGDn7+eZMtj3YnDtHOxPbdS+OugnoMT3VpPK4pTLNPjvOFU6H6elCw0JwuDizZsnbAh2Ws0QpTiBqUhuc8cvsi3WsKYLiovml7HEeWPQCc9H8R2WajJZcG+8JLeu6Fo75RX45c6IJSVQBguaVAT3uF7jXy/Aip7tmedt2QGrNE6WZmj7b68S5xunkW16GvNGqmYBWPv+3lKf4lewJzhoSQVqFYbzSj0eqf+ESGQBhU5qp0NN3HPippkynFbdWZjjkF3hprKftvQECOF7JVBX8WU6PE1+S1GfXkAcAQVzynF+q2ixIas1v5k5xR5XN9pCf5+uVaS6wk6Fls1fDR/MPxTF+I3uSUXOyqSt4e2IXV8Q6OOoXmzLfmHL5fHmCEoqXxnvqFgxqNgLBo4VJaulhZwlBrx3HEYLzrATf8pqjT9Ps539cufxW7hR/V0xTbqqPSr2L8bEnmjjhtqC9d4vNSi5zgu7+q4GrmzXloCxzc2mcMe1yldNJd5t0W1vOWTfPuFeu6bMCsST+v4Cn9aqCQMvRwJRfZt+yXgEa+GDuDF+rTK35+xkt+Vplmof9PPvtOAftRE3rrhUXzefLk7w3e4JbK7M1bTRh0SscPtl7BTfEe/lCeYL6++E1hgIe9nLcUpkiISye43S0pSFgIXisOFWTlwogZdkk54WoDtpxTqsKQ807HRt//qeUx8eKad6XO8Ux33yIYxmfJz38oWZPuh1oz11iK5DsuwebdwNN881Jgizhm0vjjKgKPcJhv90+Pe0nvTJDbu1tQZOWTUcVdb/VpHJXw9earPTYHXs2pv/HdZYrDcsKXy5Pcbc7hxJwgZ0guQEJ4EFZ5ubyOL+VPcXXK9PkdDO3/oA/6rqAl8W76RA23ZbDXU1WGMxqyV3uHF8uT1JGs9eK09tEJce1EMCTpdm6Glt12bElvQyusTu53c9QakIoYIGwn3+F5vtejo8WR/nt3Gm+7+XYeBeFupnCt36Ewtz6SRgRddMeO8NW5eAFb0Lx7xiuCliLvVacNyQGeFGsi+c5nVxoJ1vypc/4ZY6X60sW6nfiq8r7KmDcK1KP4FuPHeO5qQH+sjDMx4vp9X9hDeIIfiDWzfXxXl4S6+ZyJ0WvqL55zSiPJ/wij/t57nTneNxcb/SaeGW8l/+/9znP3AcaeFfmKPcYam1bKy9wOvmhRD8vcLp4rtPBQAtyBSwheKo4u2pHymoIAXtjqRUb7cN+ng8UhluqTlnP868JjNMn/AKPeDn+szLLeBNDUqug0OLNjA3+ZysXsZWJDADTHDj/Q2jxe61exgI9wma3HadXOPQJh37LZp+V4Aqng1fGew2EDgTnvCKD65T7LccC9sQ6qJbDN+tXqqoCVuM2mePT7tpu/0bZZcXYa8Xpsxw6hEVGSeaUz5z2Odfal+gS+oXD7QPPX1HqOK5cXjfzBBmj+u31sdeK0ycc+iyHV8f7eE/HPqPzWQieKM2sq0uxnJTl0O/EV/3ZJ8rj3LxOqKmZLH/+Aea0z5zymFBeS7xRVdH8GWND/73Vy9jKRAaAeRwOXHAHmle2eiHrEUPwluQOPtBxMJR4t0Aw5OZIu/UnmXVYDn1VXqoQhABm/NpjrHf6WT7pTW/iqvqNIxB8svcyXhPvX/Xnt1dmeU/2eFteozcndvC3PZcaG18gOFScplSH23+BHbEkiSohIak17y2c4ekmlAZuMe4iPfQ6aGpqzLajZa7pbYSPpX4KaHvpSg/NLeUpbpx5nM+VNibpKRA8XZ5raPMH6Fgnmzlp2TVL/j4oC/yTN9OWG1sz+cXk7qqbPwh+PLWHD3ad39Q1tQO+VjxcmGho87cRVTd/CKpW/jh1gJ1rhIgiVjCKb/0U0eZvnCgJsBlkszm6++4CfhIIN5XcABK4052jjOb6eG/dv6+05pHSFCXZmDvZERY9a5z+F9DodbO0H1VFPuxObAlRnY3wMruTv+69dFWjyRaCPbEUXbbDq5L9PFDJcrrNTqyXOx28ucE2w9UQCGb8Mk+UZhu+P7rs2BKditXotGwuJ8Y9fn5TKzs2iTks+UOMDZ9u9UK2A5EHoFmkhx7DEj8CNK82aIP832Kaz9aRLW8JwZRf4qHCJP46an1r0VVj8leHtXaG8zFV5v+4tdVxb2UutRL8YcdB4qucVOPCYp/T8cwpNobFP/VdwYtj3c1eZlMRwNHyXN2JqcvH6KyhckEguCLWyW/H9xCLoq5r4YJ+ByMjUb1/k4gMgGYyMvhtEO+GzXMg/ZPcICNyfZtFac2h4jQny7kNnXFsBCm7NseULaqHCk7qCn/hnqPSxDKsduSgFed3E3u4MN614mdxYbHHWdk9cZed4JM9l3NZi+SQTSIQ5KTH9/MTzNaRQ7IaHZZTs7Rxp+XwXCfFe+I7IxNgdRRC/zTp4TtavZDtRBQCaDa5uSfp7psC3sQmSMKUBFnCr6/ifhXAUKXAsfIcXgibbbcdJ2HVbpc6wlrRIviscvmQO05hm2/++0SMP0js5Xwnxf5liogOFnuqtE52hIXSihvjfdzpzjHXBpUBYYQAfK15sjRD2iuG4ogfcBJ19TbQCPZis9tyeESWomDAsyi0/hXSw//S6oVsNyIPQCtID/0dmpuA1r9Za+A/ytPkl5XcCQRjXpEHChOMeeFodAjEksY/teAIsaTpz7j2+JA73l7lTC3ggBXjDxN7GRAOBxNLT/9CwK5Ycs0kyj47zj4rzpf7ruI59ubpM7EcAXhacaQ0y8OFybrEfdYiZTk1J6Eu0GXZWELwCrubX4/vjE5fAT5C/Dxjw59o9UK2I5EB0CrGhj6L5ifYBDkBLprveHNYBC/Tk5Us38uPM1TJ1yXGsx49dmOtd3qdZ3MG8lohN0+ExQiXigR/HN9Hv3DotWN0L8upGLATq+YDLKbDckgIi51WjM/1XcnzNlk7X0sI8tLnUHGaRwpTNfeeqAVBICxV9+8JQde8gXut3cVvxvc0tdlUG1JC6B9jdPCfW72Q7UpkhLaSfOYI3QMPgv5R2rw6YBc2nZ7HqFcM7RS1GEcI+pxEQ69DC4EGXK0YEA4vszo5pErkt6Eh8DK7k99O7KZDBAr7lyZ7iS/ykKQsm/4aNR4WwispYfH21E6GZIXjLaoOqCUEIICc8hiq5DlRzjDhl/DDtFDn6bJjpBpsuhMTNmUlUWgOWDGeYyd5VJVwt19AYA5LvJXRodtbvZDtTGQAtJrc3Cl6dnwF9I3A7lYvpxoD2LzIoCu4z0ks0VKvl7hlU5SBUnmnsHm53cnTqszsNgkFCOBtTh+/EN/5zKlyt5NkT7xj0WcEu2NJrBrNLEdYuErio3EQvCHRj4fmYa8+VccwuNzp4IcTA4j5uo/A4JNkpMeYV+SMm2OokmfSK9etEFkPlhAMOI3r6wuCssuFNe4SDtfbnRxRlW1zrwJH0byO9NDDrV7IdicyANqB3Ow0yfhnsOOX0cQOgvWwy3J4ub0ykzwMkpZNdwMu1cUIgpfzQpOghLC43u5kTksGdftI8ZqgR1i8P76H1zjdz2xLthBckepbEqfus+NVmytVI27Z5FXgPhcIrov38vxYF/d42aY2uumWcL4WnHULnHULjLgFxrwS036FgvKRBk76q9HrxIlvUC57wbCS86f+1Py9OqZ9RnV4oYo25QvI8ls4N7qxhhwRoRAZAO1CseiSm/sy3b1FEK+kzb6bXZbDDQYMAAHscJJ1ZVNXIyYsXC2f2QwcIfgBu5N9VpwnVKkVncyM8zwrxX9L7OUia6lb/+JEzxKjykaw00ki6rzOthBYCEqLTqcX2UnemtzBEb/I2Sa1vN0nHK5zWqtNkLRseuz1BapqIWHblJR85o50hOAH7U56hc3TuoLcevdqBS0+yNjQBykUtryVs1loq00mAshl7qOj59+wxIuBg61ezgIDlsOr7PBfwP1OfEmMeqMkLJuSWrrVn2/FebnVyQldYWaLuFk7sfj52A5uiu8gtSx00mvHuWBZ5n+/nVhSLVEPCcvG1Qp/0Ym/W9i8LbmLvVacB72c8Rj2Phyua6E4kRCCHXWW/a2FhcBe5LGCwBi+xEpwvd3FkHKZbIPyy5C4H6Xfwrmhf2/1QiKWEhkA7UghO0Eu82l6+jLADUDz+6Iuo0fYvCbkE1iYJ6oFgherteTFCkFewKudLvqFwwld2bRJVwK4weniA/HdXGmnVkSiHQRXdvRhLzIKLCHY6SQajlsDJIVNXi81rATwvFgnb0/uZFJ7HPfNJQi22gAI21CFwGPlabUiUbFTWLzC6aJT2BzX5c1RK7w6OeC3SQ/9GvnMxpqLRBghMgDaF00u8z06er+AJXYT5Aa0rGYoicUbnJ7QxrOx2BHb2KZUjZiwkCi8ZS9WgeBiK8GNThclrRjUm0uZ/Uo7yfvju3m907Pi1L/AZcleupblU/TYcVJ1xv6XYwlBTFirVoB0CZs3JgZ4daKfk7JE2kD74704XN8iA6DDcjaco1KNwGO10uEvEFxmJbjR7qasFUObq4uABH0zxH6c9Jk7YDMtfXsRGQDtTiEzSy7zFXq7b0GL/SCuoAWGgAf8WKwvlLEEgp2xxJJTatgkLYfKokSrxcSxeJHdwUvtDkpoRtv85Xq1leQ98Z280+mnf42ucgfiHeyJrazU2BlL1Jz5vxYxYWEB5SphlL1WnHcmd/HiWDejqsJoiIbAXuyWGABxy6K/wfLUWhAIEpZTtRNhQgT36rV2J9PaZ6y9kwQ1iC+jeSdjw58kN9t4o4WIphAZAJuFbHaCXOYL9A7citL9CC6jid+fRPN6p2fN1qe10u/E1+2gFgYJy6asq6dT9Qqbl9qd3GB1IUUgIdwuGQIxBNfaXfxSfCdvi/WxW6x9Au134lwU72F5iDopwg2zJCwbtU4XxgvsJO9I7uL6eG/gaZHlDV/XXdrmFbHwPFC1YAvBDieFZdjctue9K8vDVovpFjYvt7v4QbsTBYzit1OiYAX4EvCzpIc+Rj4z1eoFRdTGtpah2tTsvmgPjn436F8ELmnGlH+ROMCF1sY2kx47tsJFbRJPK6a9ck2SQDkt+Z4scK8scEKVW/J6vchKcJ3dySvtLrprLDfrtByu6ujHXuVx3uEk6dqg+385GpjwSlU9AcuZUT5fKk/ytcoUT/vFhuZ8norz+50HGvrdRhBCsNNOEKujL8VGySuPrF/bCb+A4i4/x91+jnTrvALHEPwj2vsM6XS06W9CIgNg82Ox98IbsPSbEbwRzXNNTfSB+B5esgExoG47ZiyWuhaelkx5LrqOLX1C+dyn8hySJU6qjZ9gq2FrOIjNpcrhZ3oOkFL1mR1Jy+bqVP+qIkoCwcF4Ryju/+UERkCZcp2Z6kfdPH81fZKTtmQEH1nj0q5WMf6w87y6vsNGsYCBWHJduWQT5KRHrk7Z4hHl8pAq8qAscsZsWaYGHkfoW9HiP0gPfY8ovr+piQyArcb+i88H+cPAx8Me+h2xPt7u9Df0u112rCH99LBwtWLaqzS0gVS04qiq8LQqcUJXGFEe2QbLCbu1YJ+22adtzlM252uLOIEL+IreHXVJ18Yti6uT/VXDKUlhsydmrqWvRjPlV+qShrYQfGbsaXylcdEMCcmIpRgTkjEhyYnV//6rVYw/7DoYau+J1RDAjhZt/gs0YgQscLM3wzf8TMgrQgHvwVbf5OzZSMBnCxEZAFuV/RdMAjvDHPIldgcfiO+p+/davfkv4M6HA8LYQwooxpTHmPLIIClpTRFFUUumvTIpLUgKQYcW9GhBv7boxyKlV3/kruwaQNu1bzpJYXFlamDN1sn9TpyeDYZs1kMD0355RUvmtbhnNs2p4tyqPysJzSyKWaHICk1RaMpas0NbvKtzH5bBgLwQgh12+OV+jZD1vWcUGOvhQ+45Doffr+EM6aGLwx40ovWEGxyMaCPEEdA3hDnimTqzugWBKE1HnS1+TREXFrtiSWb8yoabxHRicamV4NJlCnwl32OogRNYfzzFjKzNfdthOTwn1bfuKTW5RsVAWAhgp5PEli5ZWdv9cUmqt6oBkNKCFDb79cpN2NM+CUOSGA6CASeJE5LQz0bpcWI40iIjKzUbrJr6n9EaedrEoBGtJ2oHvFXfi3MPAAAey0lEQVQRHAl7yCntk6vR9S0QDMQSbbP5L+DMGwGJDeq5V6PQoOu21ozuXjvO1an+dTd/S4imurH77Ti7a5R03ptoLI8k75lJdosLix2xVNts/gt02DY76mjeNKm8mp/POjlqYtCI1hMZAFsVFb4BAPC0Kq/7mbiw2B1PGNtkN4pAsCOWoNOAcVLw6z+BxW1nXXevAA7GO3lOcmmDn2q04tqnLId9sdS6hkfMsnAayK4v+F6oMUtBUEGxI5bEbq+9/xniwmJnjTkJT9bwbDZI5AHYokQGwFZFCCMP7eOqenxREGT674wlsTfBrdVrx9kZC8/tK4CyrP8EdkGye81udknL5qpUPwfjnSvq/KvRqiQ2B4u9sY557YHVFyu15mCiflGfsvKrjlkvjgiMwF4n3vaJUI4Q7Iwl162gecKUAWDAmxjRHrT/WzqiQSqPYqBE51CVBKOYZbEzlmpJmd9GCE5YKTpDqJWXSqMbyC3YlVg9U99CcDDeyfM7Buq+rmEINjWKIAgJ7I+lSFbxRBxMddY9rtIaFUIL4g7bYVcsueG2vs2m247Nr3vld6vRPLmGcb4BPLT3uImBI1pPZABsVQJhjtC9ADPaZ2RRopEjBL1OnJ1OglibxVBrxSLo8747ltyQZn6+RhGX5TjLss6FCOR7n985wMF4Z0N1/E4LDYAFYsJiTyzFDiexImzRaHniRvIAEpbNLidJnx030oOiGcTmQwL9TnzJNT2mKqbi/4+STjem3hTR9rRXhlZEuGh9L0JcHfaw98sCP2Un6LRjdFjOJn2VrsQRFv1OnE7tkJMuFVXfaXPWbew9udBmVxB07TsQ72y4dS/zI7WDAbBAlxWj03IoSsmcdPFRdDuJ9X9xFWa9Mj3xeF2urYRl0205bVHeFxYpyyFpORSVT8H3uM/Pm5rqHlMDR7SeyADY0oh7gPeEPeq9qsD7Yge2zMa/nLiw2OEk8bWipCQF6aPW2XIEYk0t92o4loXUer6RTyoUt7Qj2u98KxB02g4dtkNR+uSVh2PZ+HVes1KNXhZBUC7ZYcc2rWdqPRaSGBMxi4fKpg7p4l5DA0e0AZEBsJUR9j0YELGdUB5P+EWe7zQuC7wZcIRFt23RZTtUtKIiJRUl8VcxBkrKayj+3xdLcmUqnC6LCzhtHNkTQKft0Gk7pCyHXJ0GgEZTkT7xVSo4HCFICJuEFfy3Nbf9lTwoC8yZcf9rcO8zMXBEe9C+b4qIjZM+PQz6hImhb/VmTQzblggESWHT68TZFU+tWoY3XW4sAWtvPHwjql1L2pbT4zSWMDq1yrW2EOxyUvQ6cZLbaPMHuMWdMTX041GTn61NZABseaxbTIx6u5thus5GMFuBvPRWlOxZCPJ+Y01Y+mKNxcLXYrNsf10NtinOSRd7mbNFoRuSzt3sjKgKD3kFM4MLvmpm4Ih2ITIAtjoCIwaAh+YrlWkTQ7ctvlbkV1H6m6kUG25SY6JsshahoHagq0EhJq01M97Kmvec9PBMdwtqM75UmVk3P6VhhPw3MwNHtAuRAbDVGR38PjBqYuivubOUQqjL3izMSnfFq9YSMO02Xn/dEYL+wHLEZjEAnMYbFU1VSquGOjINemI2IxPK5z9cY6G4k4yMPGFq8Ij2IDIAtj4aMGLJ57Tk89vEC5CTPt4qZYFFf/V/r5WNlfutTpWOum1Hb4MhAABPSUr+yhCUqxV5uT1CU/9cmcAzdfpHRO7/bUBkAGwHtPpXU0N/wZ1iUm/t2KunFbkqne4mN1h+FWtAE389NosHoG8DHgCA8Upx1WyHnHQ3ZJRtBoaVy63mTv+g1RfNDR7RLkQGwHZg7Ow9wFMmhi5rxSdKEyaGbguUhllvdbeyp2RDzX8W04jKn1GEgIEe2LcDesyWefZs0AAoeC7eKmWEGpiVFXOx8Tbgw6U0Bv0cjzM2/Ii54SPahUgHYLugxScR+sMmhr7dy/Bmv58XbDFdAI2eV65bfSM5VwpDfU0QfsuGBsd74eVwwwugr+vZf5uagwePwOGT4Ia75YSRrHiuXOC8jp4Vf7GvNbN+hR1OcsNztBt3ehke8Q1l/gNo8ffmBo9oJyIPwHbB9j8DGOkWotD8eWl0yyUE5qRfVd0vOP23Z+hDN+JVePO18MPXLd38AXb2wZuuhV/9MbhwbzgLnCeMjpF5z6VSpQNjRSmyVUI3m5UZ5fPR8jmTU+TxEp8zOUFE+xAZANuFkZEZBF82NXxaufxtedzU8E0nL71VS/4WGC3mQpnHhJO6bkXCay6DFz9n7c/0dsFNb4BXXNP4wpYRVrniWKn6d5GXPnm1NZICNfCXpTSzJv8eIT7H1LFwbu6IticyALYTmo9gZs8B4N/dGe72MqaGbxpFKcmusfnn3TLl0DLNw/86dD1jClH7pi4EvOqF8MYfDP7/Bgkr+6EkfXJe9ZN+1ncpboHKgC+509zvG92bFb78mMkJItqLyADYTqSHHgW+aWp4DXyomOaobyTS0BSKyicjq9eSK2CsEl7jFRPWWF3Jb1desNLtvx4vuTIwBDZImH/7uVIOvUbmf0a6FDexJ+Ahv8Dfm/awab7K+NknzU4S0U60WQpyhHEOXvRSlPq+ySl2Ww7/2HkJAwZEbkxSkD7ZVcR+FjNWzJNZRYVuMV9yyjxlhZsf8JbEDj7ec2lNn+2yYuyotd3uW6+Day6vf0Faw1e+DU8PrvjRT8w8yRdL4W5Wz1UOP+6n1vxMTzzB/lT3mp/ptmNG1BdNMigr/Gr+NAWM5thohPVCRs88bnKSiPYi8gBsN0bOPAj6NpNTTCif3ygMMrOJTlxz0iWzzuaf99x1N38Ay8C5vp4HVdazUezbVfdagCAE8Nbrg5LBZZh4qdRSLpl1K+smZuakR2aDpZvNZERV+EBhyPTmD/C1aPPffkQGwLZE/A/TMwyrCu8vDjFbZ7vXZqM0TPvldWPEvlKM1Vj2Z6K2v56Q+/JmRWuys7f+xSwQjwX5AMuwDAgRWTX+TeliDn+de66gfGa8SkPtm5vJWeXyvvxQM4S2NFr/melJItqPyADYjqSH7gdtTB1wgTOyzG8WzzCm2vPE5WrJpFeisp5qnIZ0KYessczRxENVT4e/mhviOA7YG1ztJQfgqguX/JOJboS1GhVSK9Kl/Lqbe1lLJvwyFd2eBurTssSvF840R2VTi5sj4Z/tSWQAbFeE/G0gDCWbNTkjK/xS/gwP+8anqhkNZKXLtFdB1uCun6wUKNZR828isaaeB1Wja/q7iIcUC3/tS5cYEkZCAHUc1ou+x3QNiZpSa2a8CllpTlG/Ee7ysrwv37QQWo64/t1mTBTRfkQGwHZldHQEzZ83Y6qs9vlgcZjPV6ZaLs9aVsGpPy+r6fstJetVmK7UV9Xg6PBNgHq3Aq8Wb8UqzXQaorcTnnvxs8Ma+I6dOsMKU5USWXf9fA1NoPkw6ZUot9gbUNSKvyql+ZPiWSrmY/4Bgj9haGisOZNFtBuRAbCd6Yz9DXCyGVNJrfn78ji/mj/DabX+izlsPKWY9svM+BX8Gl3kRd8lvYbITDU6DPgAplV9rmC3FgPA9cIzAq573jOJCpMGQj6pBmyKdDlfs+fGn/cGTPuV2kMoIfKwn+fd+VP8uzvbTBP5CHt3frR500W0G5EBsJ05ebKC4JehWccNOCJL/GLuFB8rjzHVhPhmRUlmfZdJv7x+rH/x70mfkWKuoWL1Rjar9Ziq1wCo9W/Nh2SM7eyDi/YDMGFAfrejkVeVhpFilkodIkCVeQ/RtF+h1AQX/GlV5r8Wh/itwlCzc2Uk6F/mkUfaU886oilEBsB2Z3TobuB/N3NKH/hSZYb/kj3Bh0tjjKjqwjuNja/JK5+JBl/kFSU5W8iiGjwJNrRZrUO9BkCl1uqLqbkGVlOFqy8CYHwNFcVGSTUYVlFac7aQrdovoBoLhuOEVyKvvPpKK9dbE5oHvDy/Wxjm3bnTPOC1ID9G8L9ID9/b/Ikj2onNpdQSYYaO2B9Q9F4LvKCZ07pobnFnuMWd4XI7yWvivVzn9HCeFa/Lia40+EjKUlHWEn8DTYkq0udsIbuhMUz0RJzVPgpdc4mhj0Jqvb7e/ugUXHowhBUCV16A+ub9RjLXN3JNfa0YLsxxXmcvSbu+V56vNVnfI4uHIyySwiZpWzjYWHXcpBUUh7wi9/k57vdzTNRp0IXMI+zd+ceMDrVyDRFtQGQARAShgD3n/Qy29RDQkv6px2WZ46Uyf884HVhcaie5yI7TKxx6hE0XNhPKY0hVmNbBib5X2BwUMa6xUpxnbay3PEDZ9zhbzNZXR78KnTp8D4CvNdPKZ5dVe+Z+WUs6xTqPeHpqgytbRDLO1L4+/OHwI0obvaZSa84Ws5zX0VO3EbCArxV5rcgrSGuPx2SRUe0xM588OGA5HBRxOoRNHp+8Ukxqn0FVZkz5LU+AnaeE5qbI9R8BkQEQscD42SfZf8GvA59o9VKKKA7LIodlbZr7nwUutRL8ZGyAq63G7Je855Iu5kJ5SfcZUtg+LovssmoX7ikpSed6csxDY0EioBPOq+CpLjN/e18IRpVUiqFChgOpbrpijRmMR1WZz3uzHFstkbU9JQWWId7L2OCRVq8ioj2IcgAiniU99EmE+D+tXkYjnFQV/rQyxie86brL0ObcEiMhbf4ASS2MVAI85dfXhKisa8h9cH04MdrgilbymCqENtYCXQhq7GywLlprRorZmnQCFiO15nPeLH9SGVt9898MaP436cFPt3oZEe1DZABELGV08APAN1q9jEa508/yYXeipsOY0ppzpTznSgXC7ss3oMI3AI7UaQBIrSnXkgx45EyDK1rJ47nZ0MZaYMBASGWyXGS8lK8p0VOh+Zg3ydf9ufZw4jeEvp2xod9p9Soi2ovIAIhYjiQufgY42uqFNMojsshnvOk1P+NKn+FChrkaxGIaYQA79DGfrtMAACjU4gU4fhZK4VRiPH5uJJRxFtOvzLymZt0yQ4W5dcsEP+PN8IAM37PRRI6SdN5J/XpSEVucyACIWMng4BzYrwcGW72URrndz/J0FVftnFvmTD5DuY768HoxcWo9JUuU66xOKKoaAiKuDw9tPCxc9jyeHgsvnLDAgMGu5RUpGcxnyFQxBJ9WZW7zs8bmbwKDYL+e06czrV5IRPsRGQARq5M+PQz2K9mkRoAGvuQvdUd7WjFcyHCulEcbdubuMVQJ8KBXnzKh0ppCLToIDx0Bb2MG0T0nj+LVWW9fC3t1+N6UxWg0Y6U8Q/k53GXr/6LXVGW+kNFnkfo1wbMcEbGSyACIqE769DCWfC0Q/rGuCRyRZYa1iyUEMSEYL9UuDbtR9hvatO5y6xfuydWizFcow8Mbi/rc+oSZdvL7DBhTq1GSPuOVAg4CW8Cwdjm6WRP+YBRbv5rx4dOtXkhE+xIZABFrMzJyEmHfCISXKdZEHpdltA5a5B7s6OGirj564gmEgZ71i+nHosuA6/ruSv0GgKtVbY1uvnMIsvXnGSxw61OHG/7danQj6DOQT7EYIQQ98QQXdfVxXkcPPhqlBY/LTbv5n0HYN3L27KlWLySivYkMgIj1GT19HOG/BNh00qGPqsISd3/Cdtif6ubS7gH2pbrocuKIkDZqIQRdsQQHOrq5rGcHF4YgTrScIVXmTAMb05xfgxfA9eC2BxpYFZyZmuTouXRDv7sWF4kEl/Xs4EBHULsfluEmgK5YnH2pLi7tHmB/qpvEIoEgjebhzZj4p/WD+Na1jJ4+3uqlRLQ/kRBQRG2Mjk6zf//rEbGb0byt1cuplWOywqz26V+miGcLQW88SW88idaagu9SVpKK9ClLH6+GZjpxyyZuOyQtm85YnKRlL9mgLhVJniTcPgcQhAF+IbW3rt+paElJSVLWOqfpI0Pw2Al44WV1jf/NJw/V9flaucROIoDuWILuWAI9X9pY8ILvy5U+bg2ljjHLImE7JG2HpOXQ6cTWNCZmtM+JkHtUGEfwVfBvYmK4cTdOxLYiMgAiaiedLgLv4MD5f4YWv8Mm8CApNPfKAj/sVFfQWzi5dy36N601PhqpFEprpFZYCGzLCnIKLGtdz8HVTop/k+EnX3+1PFW3AQAwKyskrRokim59APYOwL4dNY998wNmnENX20uVHYUQpGyH1LLTurfwPSmFQmOL4HtyhMCyrJp7KCxwjyy0i3RvLWjQ/4vR4d+niZ09IzY/bf8Cj2g7FKPD/w3064Hwfb4GuNvP1f0qF0IQExZJ26HDidEdSwSnfNshbtk1hQ2usJI4RhQBCxxuoIOcpxXZWhICfR++eCdkapvj8OhZvn8m/HBzDMEVNUg7CwRxyyZpO3TG4nTHEnQ4MZK2g2PZdW/+Gs23/fqqLVrIGOjXkx7+PaLNP6JOIgMgojHSw3eA9wIQX2/1UtYjrT0erbGvQJjEEVxM7c176uELlcmGfi+jXLxatAQyBfj0N2B6fQ/GP373robWsh6XihgxgxoA1XhIFhkz0NEwfPRteOJFpIe/1eqVRGxOIgMgonHS6SnSgz8K4ueBiVYvZy2+7rdGB+Ua20RzYPhaeYpCAy2LtYZJv1ybRyRbhE/fCifOVv1I0a3w2e/fV/c6auEFhq7derTqXqmDSeAXSA+/kcnBc61eTMTmJTIAIjaKJj34aeLiCoT+CG0qN3pMlXmkBVndz4+Z2cQKWvG1cmOtfD2tmPZrrCQoluDzd8DX74Pcyuv3rw9/n7mSGe/KNXankXHX4kFZ4GT7Jv/5ID5KXFxOeuhThN3AImLbYbbANmL7MDdXJpe5jc7er4K4EMGl0AL/7RoMKpcfcnqaavX2C5s7/CwVA+/qY7LETak92A1cZk8rtNak1msXvMC5aXjwaZiYBU9CsYw/Ps1P/ssnmDHQT6Efi5+O72jqDeSj+Rt3gnx7htL/E6nezrnhzzA3t2kFCiLai8gAiAiXfGaSfOZz9A7cAroLuJo28TTlUMSE4MoaEsvCQiCY0D6ndQ3Jd3WS1ZK9dpznO42dlCvzIYTkeqWBC2hgcg6ODcPhU/zzQ9/j09nq4YGN8Cq7ixc2OQTwVS/DgwbaGW8ABXwDy7qJ0cG/pJBt6zBbxOajLV7MEVuQkTOHGR16F5LLQXyUIG7Zcr7izTFsYDNei2vtrvU/1CAfL4xS2cCJNSPd+ZyA+jwUHpo/zZkTh7zWMXfNVmNQudzih9/KuEGmQHwUqS8jPfTDjJx5sNULitiaRAZAhFnGh86QHnwf6aH9KN6E4F+A+mvYQsJH8/HK5DOn32ZwpZ2g15CzbUy5fLa4sYNhUfmMeaW6rsmnC2nO+KUNzVuNPmwutxJGxl6NktZ8zJsg/DZGdVEAPovFm9m3cz/pwfdFOv4RpmmrGG3ENmH//g50/AbQNyB4JfASoHlvfODldie/Ed/dtPk+5U5zuzTTVnaH5XDXwAvoFRvX9eqyHXqsODFR/WyQU5KrJh5gxJBW/hucHn4uVrsI0UbQwEfcCb7f/ATRCvAQgu+ixD0I97vzQlsREU0jMgAiWs/BgymU/UKEuAytLwEuBi4hMAyM5am8I9bH251+U8Mv4aSu8Adlc7pJ70zu4i+7Lw5tvKSwSdk2CeEEanoItNZINL+eOcY/FMz9LR9K7OfiJnkAvujN8lW//gZLdSCBh4BTIE4hOA36ODHxGIODUTJfREuJDICI9mX/hf8K+p0mp3hXbAdvcnpMTvEMv1cZ5Ywyk38ggM/0Pocb4tUlj8PgkJ/n7XNPI7WZCrSLrQQfSuw3MvZybvezfMqbNj3NF0gP/aTpSSIiGiHKAYhoX7T8K9NT3OxN803fjGt+OTcaNDQ08Hv5MxRrafvbIB6a/5o7bWzzB3iN3W1s7MXc7mf5tPnNH7T+a/OTREQ0RmQARLQvY2cfBu42OYUGPuNNm3YDA3C91Ulyjdj6RhmRFT5cGDU2/scLoxw3lPgHkBSC6wyL/2jgy/4sn/Kmm6Gicydjw4+YnyYiojEiHYCI9qa7dxTEu0xP85QqM6Y9rrFTRhr4AMSEYFL7xsIAAIf8AlfHOrjYToU67n1eht/LDxrdNF9td/PSBjUNaqGiFX/rTXF7kzw+CH6RXGawOZNFRNRPZABEtDe5zGm6e68Fcanpqc5qj0dliSvsJL3CzKOxV8T4lqFqAAhOuHe7c7wxMUB/rSp/65CWLjdljlI0WDopgPcmdtNt6LoPaZe/cMd5SpnzYCxB803SQ/+zOZNFRDRGZABEtD+9A4fR+j00IWk1g+Tbfh5bCC6zkqHHyHqEzbD2GDXYbc5F8z0vy9uSO4lvMOTgovnZ7DEGDZX8LfAyu5PXGciRkMDX/Dk+7k4yZzA/YsW0Sv14pNwX0e5EBkBE+5OdG6e77wLghc2YTgFPqhIPyAJ7RIy9VrgtffcIhzul2X7z08pnSFZ4U2JgQ1bTH+QHuaNiXiHvvfFd9IegY7CYR1WRv66M84AsNFvd/584N/xPzZ0yIqJ+IgMgYnPQ03UfWD8LNE0jNofiXpnnSVWmXzihGQL9wuG4rjCuzTZOPCFLHJclXh3vJy7qMwPKWvE7+dN8sWxewfn5doq3On2hjXdIlvh7b4qv+5lWNPYZw9E/RiYT1fhHtD2RARCxOcjlSvT0DoN4R7OnntI+98o8D8oiPpq9IkZiA651jWZWK55sQjz6pCzx9co0l9kpLrBra4L0oJfl3Zlj3O81rzzyCiuB2ICvIqcld8o8/+hN8U0/w7Rh46oqmp9jdPix1kweEVEfkRBQxOZi/wW3AD/ayiU4BB0FX2SneL7VwX7LWXfzklpzQlc4pErc6+eZasEG9dbEDt7feZCLqhgCI7LCx4qjfKk8hWpyq/mdwuF6p4trrBSXiQT2Oh4LjWZUeRxWZR6VRY6oUqu1/AHxJdKDRoWrIiLCJDIAIjYXBw7sQNuPgTiv1UtZoAOLS6wE+6wYe4RDv3AoakVeKybxGFUeQ7pCyaCATq0I4AVOF6+I97LfjmMhSEuX+70sD3u5pm/8q5ESggtEggNWnF04dAmLDmExq33GtU9aeZzSFUpNbOhUA4M4+kUMD7dNS8GIiPWIDICIzcfBC1+G0t8F/l979xMbRRnGcfz7zrZaisWiSG0rXatpjATRRILGGEgkUAwETJSoSROuXrgYJUbjVQ8e8YLxACaiBzEif6JoiZFggURJJZCgpO2U7dRaJSwLbbHsPB6WC1ZTW3b37ez+PteZnf1lksn77LvvM+9tvqOIAJM4VjMU9vgOIjITWgMgyXP50hALFl4FOn1HEQF7lWhwr+8UIjOlAkCSKXfpOA2NiynsGCjih3MfEIVv+44hMhv6C0CSLEXL/Z+DbfIdRKrSQaLwOcBTy4HIrdFmQJJkef66vQuzk76DSNXpIT/xIhr8JcFUAEiy/XEux7yadcAJ31GkavQwUbuekZGrvoOI3AoVAJJ8fX1Z6lKdwHHfUaTi/cBE7Xouni/TloIipaMCQCpDX1+WidpOsK99R5EKZRxicqxTg79UCnUBSOUYv3iNXPYTGhoXoe4AKa4PGQ67GBvTO/6lYqgAkEpj5LKHWNB4BXgGzXLJrZnE3GsMh29B+XcWEikltQFK5bqvfSVx/CnQ7juKJFIG7CWiwWO+g4iUgn4dSeXK9J+EyZXg9vuOIklj+3DXH9PgL5VMMwBSHVrbtmDufWCx7ygyp/2Os9cZGvzIdxCRUtMaAKkOuexZGubvgqAJ3HJU/MrNYmAXQX4zQxfUTipVQQWAVI9cboxc9gsaGg8AHSRvbUAM7AEMuNdzln/qBbqBZSSvuPoW2EIU7uTy5XHfYUTKRWsApPpE4U9E4RoCNgBJ2cK1G1hBFHYRhSuA7cCY50xQyLCdKCxkK7RfHvGc6f86hrlnicK1ROEp32FEyi1plbpI8bW0PQ3BdrCNzK1nwnB8RRy/y/CFo1OONqXbSbED2FD+aAAcJM82RsL+KUea21cRxG9grGdu3dMYbD/wnhb4SbWbSw+miF9NbQ+QCraCbQXSHpNkgT24YCdD/b3Tnt3atgZzb1J470E5HMHZOwwNdk97Zmv7o8T5V3DuZeDO0kf7T/1gu4mD3fw2MOAxh8icoQJAZKqA1vRqcJsx2wg8WIbvHAc7jLEXd30vUTTz6f2mJcuoSW3DrAuoL3K+MeBjgvwOMpnTM/50S0s9VvM8LngBbC0wr8j5/s15nB3ABfvIDHyPXuQjchMVACLTaU4/jLO14J4EnqI4swN5oBfnjmJ8R378m6LtLtfWtpBJtuDcJmANUDfLK00A3Zh9SSr+jEzmYlHyNTXNJ6hbR+BWY7YKWE5xFiQPAD1gPZA6TNR/rgjXFKlYKgBEZiqdbmbSloHrwFkH5jqARcDdwD0UprpzFPaK/xMYARdhlsFxlsCd5trVM4yOXil51paWeiz1OC54AsdyjHawNLg7gIYbZ+XAroALcfRj/IzFJ3D5H2c1EzFTix5qoO7aUmJ7BGMpsARHM4VOh7uAmhtZs8AohXs6irPzEPyCxb9S684QhsMlzypSQf4Gi9N/FaoI9m8AAAAASUVORK5CYII=;" vertex="1" parent="1">
          <mxGeometry x="374" y="450" width="40" height="40" as="geometry" />
        </mxCell>
        <mxCell id="P-ReLISwFB9qMGB5_NRq-3" value="" style="shape=image;verticalLabelPosition=bottom;labelBackgroundColor=default;verticalAlign=top;aspect=fixed;imageAspect=0;image=data:image/png,iVBORw0KGgoAAAANSUhEUgAAAgAAAAIACAYAAAD0eNT6AAAACXBIWXMAAHYcAAB2HAGnwnjqAAAAGXRFWHRTb2Z0d2FyZQB3d3cuaW5rc2NhcGUub3Jnm+48GgAAIABJREFUeJzt3Xm4XVV9//H3vQkZIIQwh1EZQpBJGRQFtTKKQO2PtlSt1rZPW1v1V0XRHw7VOrUOtVatVVForT+tiiIqs0WQ2SLKoAJBQRQQESEhEyRk6B/rXHJyc++555679/6uvff79TzfJyEk56y19v6cu88e1gJJkiRJkiRJkiRJkiRJkiRJkiRJkiRJkiRJkiRJkiRJkiRJkiRJkiRJkiRJkiRJkiRJkiRJkiRJkiRJkiRJkiRJkiRJkiRJkiRJkiRJkiRJkiRJkiRJkiRJkiRJkiRJkiRJkiRJkiRJkiRJkiRJkiRJkiRJkiRJkiRJkiRJkiRJkiRJkiRJkiRJkiRJkiRJkiRJkiRJkiRJkiRJkiRJkiRJkiRJkiRJkiRJkiRJkiRJkiRJkiRJkiRJkiRJkiRJkiRJkiRJkiRJkiRJkiRJkiRJkiRJkiRJkiRJkiRJkiRJkiRJkiRJkiRJkiRJkiRJkiRJkiRJkiRJkiRJkiRJkiRJkiRJkiRJkiRJkiRJkiRJkiRJkiRJkiRJkiRJkiRJkiRJkiRJkiRJkiRJkiRJkiRJkiRJkiRJkiRJkiRJkiRJkiRJkiRJkiRJkiRJkiRJkiRJkiRJkiRJkiRJkiRJkiRJkiRJkiQBDEU3QKWaDuwE7ArsAOwC7Nj5s3mdmttVm3f+3Vxg2qjXWgss7fx+aee/FwMPA4901W+B+zp1L/BrYF3hPZOab5iU1acCO5MyvH1XbQ1sCczp1Nyuf7fVqNdaAqzv/P5RYDmwAljW+X8PkrL7UOf39wO/AB7o+ndqGA8AmmF3YH9gH2DvrnoKsFlguwCeAH4F3AUsAu7o1J2kDxg/XNRmw6ScLgT27dQC0g/9XYEZYS1LVpMO5u8Gfgzc1vXro4HtUgE8AKiXacBBwCGdXw8Cnk76JlBHy4FbgB921W3AmshGSSXZjA35fUanDiJ9e6+je9n4gODGzu8941cTHgDkbS7wHOAI4EjgcOr7YdGvx4HvA1d36lrSaUqpbrYjZXekDgNmh7aofEtImb2GlN8bgVWhLdK4PADIy0zSB8VxnTqEdIqwzdaSzhJ8F7iE9KHyeGSDpHFsATwPOKZTT8f8Pg7cwIYD+quAx0JbpCd5ABBvD+DFwAuB55M+RDS+lcAVpIOBi0n3FkhR9gRO7tTzSQfxGt8K4NvAt4ALSDceKogHADEOAE7p1MHBbam7W4GvAeeSrkNKZXsGcCopv08LbkudrQWuIx0MfAP4WWxzpPIsBN5LuhN+vVVK/QR4D+lOaqlIBwLvw/xWkd+9+twmUta2Bl5FuiFmHfEBa1PdCLyedCOWNIju/Ebvz22rGztj3/SbntUwQ8DxwNdJd79GB6nt9ThwTmebeMlLExkm3Y9jfvOoR4HPkJ6GkrK1NfAG0gQ30aGxxq47gNex6Sxp0rbAm4CfEr+fWmPXbZ1tZH6Vjf2Bs0h3t0YHxOqvlgGfxBu4lPaBz5AeTYveL63+ainwYWC3MbanVInnku5e9dp+fWstcB7wbNQ2R5EeQzO/9a3VwOdJN2hKpRsCfo8001X0zm8VW98FTsD7BJruROB64vc3q7haR5oT5GikkpwM3ET8zm6VW98nHQioOYaA3yXNSBe9f1nl5/d4pII8l/TtMHrHtqqt60iniVVvR5Kmn43en6xq6zLgUKQBPRO4nPgd2Yqti0kzv6leDiFNFx29/1hxtQ74Ek4spEnYGfgc6Qax6B3YyqPWAp8FdkS525l0Y5g391kjtQr4OLA90jhmA39HWqM+eoe18qxHgTNwwZcczQLeSnrEM3o/sfKspcDbgRlIXX4P+AXxO6hVj7qLdDe58nAyaZtE7xdWPeo20sqNarmdSKcLo3dIq551PrArimJ+rUFrHWnfca2QFhoG/i/plG70jmjVuxYDrybtU6rGNNJCT0uJ3/5WvetB4OWoNRbiRCBW8XUtsACVbQFOxGUVX5fi0wKNNkRaCMY5+62yagXwWpxNsAzDwGmYX6u8Wgn8Lea3cXYnTQwRvYNZ7ahv470BRdoduJL47Wq1o87HRwYb4+XAEuJ3KqtdtRh4KZqqU4FHiN+eVrvqV8CxqLZmk5bpjd6RrHbXmaR9UZMzBzib+O1ntbfWAh8ENkO1shC4hfgdyLLWAz8B9kf9Wgj8iPjtZlnrSQsMeYNvTfwJzgZm5VdLgT9GE3kJ5tfKr5aS9k1lajrwUeJ3FMvqVf9Meo5dG9sM+Bjx28eyxqt1wHvxKYHsbAP8N/E7iGX1U9/Fu4y7bYNP6Vj1qQuAuTRAE45kFgLf7Pwq1cVdpDUofhLdkGD7AN/C/KpebiXl957gdkxJ3Q8ATgS+DGwZ3ZAauB+4G/gN8Gvgoc7vH+j8/iFgDWmildVd/24t6frXDGCrrtqadBQ88t+7AHsAe3Zqq7I71ADLgD8irVvfRieR1ms3vxMzv/n5DfAHwDXRDRlUnQ8A/gL4NOnav5J1pCPS20krXt1B+oZ5B2ndgyptQ/og2YN0B+1hwDNxgpzR1gCvAv4juiEV+2vg3/B+iG7mt35Wk9YC+ffohrTJu4i/DpRDrSRdT34vcAL1uC61E/BiUpsvwUle1pM++N85lUGtkSHgfcSPeQ5lfptT757KoKo/02n35D4rSNNUvhl4Dum0XhM8HXgLabrXJ4gf56j6LM0+ozUd+Bzx42x+i2V+U/0L9T6rnrUZwLnEb+Sq6xHgHOCVtONa6RbA75Jm0LuP+PGvus4HZk15FPNjfs1vG+rzNPsgPsRs4GLiN25VdS/wCeAY2r0zDQHPAj4O/Jb47VJVXUyzpg/egrRAUvS4mt9qtTW/X8bpgwszB7iC+I1adq0i7TjH4GmkscwATiE98rma+O1Vdl1O2vfrbivSXdLR42l+Y7UtvxfQrIP4EPOA64jfmGXWHcCbcGKYydgeeD3wQ+K3X5l1LfV+HGsucD3x42h+89KW/F5BOy77lGIOzf3wWAV8Afgd/LYwVc8jTSSzjvjtWkZdRz3PBGxJOoCJHj/zm7em5/da0iUwTcJs0inQ6I1XxgfH54G9ihsqdexNmkt+JfHbuei6hnp9iGxOMy/bmd/yNDm/lwEzixuqZptJ8274Ww58GJhf4DhpbDsBHwCWEL/di6yLqMdjYzNp3rz+5rc6Tc3vOTjp1YSmA+cRv7GKqiWkSU+2K3KQ1JctSZNzLCd+Pyiqvk7ed5VPo1mP+pnfOE3M72fwklFPTZnkZzXwEdJ824q1M2m/WkP8flFEnVXs8BRmCPOr4jUtvx8odnia453Eb5wi6iJg34LHRlN3AM25tJTjtMHvJ35czG9zNSm//6/gsam9P6f+d4HeQVqdUHk7FriJ+P1lKrUO+LOCx2UqXkX8mJjfdmhKfv+y6IGpqxdS74khlgBvxJmf6mQa6dntOt9xvBo4vuiBGcALqff87+a3fpqQ3yeA44oemLrZj7TMZfTGGLQuJl2jUj0tIC1gEr0fDVqPAvsXPir9OxDzqzh1z+9iWny5aWvgTuI3wiC1gjSTlXd01t8Q6RT2UuL3q0HqbmLuUt8GuGuA9uZQ5rc5mpDf1s0iOY20lnT04A9SVwJ7Fj8kCvYU6rtPXkK1zxhPp74TdZnfZqpzfi8n78d7C/dh4gd9svUYcDowXMJ4KB+vBR4nfn+bbP1TGYMxjo+V2A/zq6kwv5l7GfGDPdm6g9hrrarWM4F7iN/vJlsvK2EsRvuTwP6ZX/WjjvldB5xawlhkZR/qd63mm6RVzdQu2wAXEr//TaaWAQvLGIyO/ajfzGzmt53qmt/9yhiMHMyiXss/riPN2uQpw/YaIt0sVqfH3G6lnHXIZwE3Z9A/86t+1TG/PyYtptU4ZxI/uP3WEuDkcoZBNXQ08CDx+2W/9ckSxuDfM+iX+dUg6pbfT5czDHHqdN3/J6RLFVK3vajXY6t/WGDfzW/+5pK202eBG4DfkCaLWt35/Q2kxWheSlpop23anN9Qu5EmPIge0H7qctoZDvVne+B7xO+n/dRiUvamyvzmbR/gbNLcBv2O0wrSAjsLAtobqY35DTVEfRZw+BblXDtVs2wOnE/8/tpPXcbUJrsZBr6TQT/M76Zmkx6nnsr17dXAh0j3d7RFnfL7HWo+WdXriB/EfuoLOBe4+jcN+BTx+20/9TdT6OfpGbTf/G5qAfAjihu/64GdKu1BrDrl97UljUHpFjK501JR9VFqfpSlMH9P/P47US1jsJnvFpImz4luv/nd2MGka/pFj+O9wEEV9iMHdcjvCmp4qWYYuI74wZuoclxXXfXyFuL344nqSib3ONwwcFUG7Ta/G1tAOT/8R+peYH5lvclDHfJ7NTV7nPU1xA/aRHVaab1X27yL+P15onr1JPpjfvNT1TwMN9KueymgHvn967I6X7SdSc/hRg9Yr2rbNweV7/3E79e9ajH9fbvbnfxn62xjfqtcP+XdFfUpJ7nndwk1Wbr6XOIHq1d9oryuq+U+SPz+3au+2EcfzsugneZ3Y/tQ7Wx2y2jfpQDIP79fLa/rxfhd4gepV/0n7bphSNUaAv6N+P28Vx3Xo/0vyqB95ndTZ1P9WJcxm2Tu6pDfF5XW+ymaBdxN/ACNV9+gZWsuK8QQ6bG06P19vLqTsZ/7ngX8NIP2md+NzSXmaarltG9SJcg/v4uAGaX1fgreRvzgjFeX067JLhRrFnk/BfPWMdr8jgzaZX43FTkN80sq6F+Ocs/vGeV1fTA7ka4bRQ/MWPUT2nkkq1g7ku+a5I922jdiZ/Jd5rft+f0scWN/ZgX9y1XO+V0G7FJazwfwOeIHZaxaCjytvG5LPe1Hvk/EdK84lutKf+Y3LeITNf7XV9C/nOWc3/8osd+TchiwlvgBGV1rcUlQxTsZWEN8HkbXGuAA0uxvObbP/CYPEbcNHqygf7nLOb8Hltjvvv038YMxVrXxWWHlKdc59S8GLsmgHeZ3fKuI2waPV9C/Osg1vxeW2el+HEX8IIxV36SdjwspX18hPhd1KfO7QfS2UJJrfo8qs9MTuXacRkXWImCrMjstDWAr4OfE5yP3Mr8bi94eSnLN73VldrqXk/tsYJX1GLB/mZ2WpuBIqp3RrW5lfjcVvU20Qa75fWGZnR7LEHBTAQ0vuk4vs9NSAd5JfE5yLfO7qehtoo3lmN/Kn9Z4cUENL7KuAaaV2WmpAMOkiW2i85Jbmd+xRW8XbSzX/FZ6FuCakjoxaC0D9iy1x1JxdgceIT43uZT5HV/0ttGmcszvNaX2uMvzKurQZKo2ayVLHa8gPje5lPkdX/S20dhyzO8Rpfa448Kgzo1X38ZHhlRPlxGfn+gyv71Fbx+NL7f8nldud9PMQ+sy6OhILSGzOZGlSVhImmwlOkfmN1/R20jjyy2/aztt6tvwJDv8OvI6Wn8PcH90I6QBLQI+FN2IQOZXdZZbfoeBN5T14vOIWZd6vPopma6LLE3CTOAO4vNkfvMUvZ3UW275XQFsXUZH35RB57rrRWV0UgpwPPF5Mr95it5Omlhu+T2t6A4OAz/LoGMjdVHRHZSCnUN8rsxvfqK3lfqTU37vpOBL9Sdm0KmRWg3sW2TnpAzsTdq3o/NlfvMSvb3Un9zye1w/je73JsC/6vPvVeFfSddcpCb5GfC56EZUwPyqiXLL758U9ULbEbsmdXctoaQbHKQM7EZaECc6Z+Y3H9HbTP3LKb/LgS0manA/ZwBeRj536/4rsDi6EVJJ7gU+Hd2IEplfNVlO+d0COKWIF7qR+KOZkSOa7YvokJSx7YClxOfN/OYhertpcnLK76UTNXaiMwD7AYf20ekqfAp4KLoRUsl+C3w8uhElML9qg5zyeyxTnGnzH4k/illPuq6y01Q6ItXIPPL5FmF+Y0VvO01eTvk9vVdDJzoD8Pv99rhkZwEPRDdCqsgS4D+jG1Eg86s2ySm/Az8NcBDxRy/rSU8g7DZoJ6SaWkheC2+Z3xjR20+DySm/B47XyF5nAP5gsj0uyVdJd1dKbbIIuCS6EQUwv2qjnPL7h4P8o9uIP3JZDzx/kMZLDXAC8fkzv7Git58Gl0t+b5psw/fNoNHrSTOG5bT8sFSlIfJaacz8Vi96G2pwOeX3KWM1cLxLACcO2uOCfRZ3QrXXetLkOXVlftVmOeX3xZP5y5cSf8TyOE4cIm1JWuM7Oo/mN0b0dtTU5JLfMe9HGOsMwGzgeVPpcUHOw4lDpGXA+dGNGID5lfLJ7/NJP9s3MtYBwAvG+osBPhvdACkTX4puwADMr5TkkN/ZwJH9/MWPEn+64l68eUgaMZO0iE50Ls1v9aK3paYul/x+cHTDxjoDcNSUuzt138CdTxqxCvh6dCMmwfxKG+SS32Mn+gvzgLXEH6kcPfW+So1yLPG5NL/Vi96WKkYO+V0DzOnVyJMyaOTDwPR+RlRqkWHgfuLzaX6rFb09VYxc8vuC0Y3q9tyiejsFF5COVCRtsI50Z33uzK+0qVzye3j3f4w+AMjh8b8crpVIOfp2dAP6YH6lseWQ32d3/0f3nbozSGsYz6y0ORtbSZo8ZGVgG6RczSXvU+zmt3jRp+F9mqM4OeT318BOI//RfQbgAGJ/+ANcjh8e0niWAjdEN6IH8yuNL4f8zgeeOvIf3QcAB1felE1dFd0AKXOXRTegB/Mr9ZZDfp+8DJDbAcA10Q2QMpfDB8h4zK/UWw75PXysP7yG2McTVpLuQ5A0vs1IpxKjHycyv9WI3q4qVg75ffJM3XDXr08vpbv9uwFYHdwGKXdPkOepdvMrTSyH/C4c+c3IAcBTmWCGoApcHfz+Ul18L7oBYzC/Un+i87sDsA1sOABYOP7frYzXD6X+3BTdgDGYX6k/OeR3AWw4AFgQ2BBIsyRdH9wGqS5ujm7AKOZX6l8O+V0IGw4A9glsCMA9pBsjJE3sfuDB6EZ0uQfzK/Urh/zuA/lcArgt+P2lurklugFdzK80OdH53egMQPQlgDuC31+qmxxOI44wv9LkROf3yQOAacAusW3xG4Q0SdEfIN3MrzQ50fldAEybTnokIHpxkduD3x/SQg0nAUeT5kR4KjCPNHGD2usJYAnpOvfNpPnuLwSWBbYJ4Nbg9+9mfpur7pMBmd+xzSIt3MUziZ9taqty+9rTPsDZwIox2mVZY9UK4CxiL53NGaNdUWV+rTqV+U11EMD/CW7EfVMcyEHNBj5MOkKM3hBWPWs18CHS0XSExX20sewyv1Zdq+35PXYY2Ln0bvZ2d8B7LiBNXXo68Zc/VF+bAW8GrqBrje0K3RvwnqOZX9VV2/O7/TAxHe9W9fOQBwPXAgdU/L5qrmeTfiAdVPH7Rn+AgPlV/bU1vzsM05kTONCvK3yvBcCldG5+kAq0K+nmovkVvmfU6fdu5ldN0Mb8bj9MulM20m8qep9ZwFfxw0Pl2RW4gHR9ugrR3yDA/Ko52pbfHYaBrYMbUdUHyPuIX/JYzXco8JaK3iv6AwTMr5qlTfndYZjYR3igmg+QfYDXV/A+EsAbqeZUYlU/fHsxv2qatuQ3izMAVdxEdAbeLazqzAHeWcH7rKzgPSZiftU0bcnv5sOkzkZ6qOTXnwu8tOT3kEZ7JbBlye8R/QEC5lfN1Ib8zhgGZgQ34rGSX/8kYPOS30MabQvgxJLfo+zs9MP8qonakN/NhomfK3ttya9/dMmvL42n7H0v+hsEmF81V9Pzu1kOZwDWlPz63jmsKGVPLBL9DQLMr5qr6fnN4gxA2R8ge5T8+tJ49iz59aO/QYD5VXM1Pb+tOACYW/LrS+Mp+xHb6A8QML9qrqbnd7Ph4AZA+R8gUlOti24A5lcaVHR+ZwyTlkSMVPZNREtLfn1pPI+W/PozS379fphfNVXT8zt9mLSedqShkl//5yW/vjSespfKjf4AAfOr5mp6flflcABQ9jW+m0t+fWk8t5T8+tEfIGB+1VxNz+/yHA4Ayr7R4vKSX18az3dKfv3oR3jB/Kq5mp7f5TncA1D2csQXACtKfg9ptBXAxSW/Rw4z5JlfNVEb8rtiGFgW3Iiyv0EsB75c8ntIo/0Xad8r07Ylv34/zK+aqA35XT4MLAluRBXLEX+Q+Esdao/VwAcqeJ/tKniPiZhfNU1b8tuaA4CfAh+t4H0kgI9Q/h3EEP8NAsyvmqct+V0xDCwObkQVHyCQ1nf+XkXvpfa6HnhXRe+1TUXv04v5VZO0Kb8rcjgDsEtF7/M4cApwb0Xvp/b5FXAqsKqi99u+ovfpxfyqKdqW32U5nAGocrGPXwMnA/dV+J5qh3uBE4D7K3zP3St8r/GYXzVBG/P7q2HggeBGVL3a163AIcBVFb+vmut64FnAjyp+3xxWyjO/qru25vfeYao94hnLXgHv+RBwPPAefMZYg1sNvB84ivTttGrRHyBgflVfbc/vfQCHAeuDK/JmiPnAJ0nPfEaPg1WPWg6cSfnrhfcym7SaWPRYrMf8WvUq85tq7yFgJ9LND5GeCdwY3IY5wEmko8FnkI7O5hE/XaNirSbdKPtz4CbgCuAiyp8kZCL7AT8JbsMI86tcmd/xbQ4wMh1w5JHIqSV3VGqaPyT+m5T5LV/0tlU5ovP7EKQf/uuIvw9gQfD7S3VzQHQDuphfaXKi83sfpAMASDNtRTo0+P2lunl6dAO6mF9pcqLzey9sOAC4M7AhkB7BkNS/6G8Q3cyvNDnR+f0l5HMAsCvpZkRJE9uC2DuYRzO/Uv9yyO+PIZ8DAEh3Ekua2GFsyG4uzK/UnxzyewtdjVgU2JARfoBI/TkiugFjML9Sf6Lzu57OI4gjBwC/AJaFNSfxOqLUn+dGN2AM5lfqT3R+7wGWwoYDgHWkObYjHQYMBbdByt0Q8OzoRozB/EoTyyG/T/6s774OcVNAQ7ptAxwY3AYpd/sTv474WMyvNLEc8vvkokc5HQAAnBjdAClzR0c3oAfzK/WWQ36zPQB4UXQDpMydEN2AHsyv1FsO+X3yEkD3NbsZpBsDZlbenA3WANuTFm+QtLFZwMN0FvHIkPktXvR8/N7XUZwc8rsM2BpYCxufAVhN/Ipe04Hjgtsg5ep3yPeHP5hfqZcc8nsNnR/+sOlkBFdV25YxeR1RGlsOpw8nYn6lseWQ354/408ifvnJB/C0kzTaEGlN8+h8mt9qRW9PFSOX/D6nVyPnkU4PRDfSSUWkjR1OfC7Nb/Wit6WKkUN+lwObdTdq9CWAJXQWCQj2iugGSJl5SXQDJsH8ShvLIb/XA09M9Jf+hfgjld+SnkqQlE4f/pL4XJrf6kVvS01dLvl9x+iGjbUi0SVT7u7UbUu6H0FSWjxkt+hGTIL5lTbIJb9Xjv6DsQ4ArgIeK78tE/rT6AZImfjz6AYMwPxKSQ75fRy4od+/fAnxpyueAHYcuLtSM8whTdAVnUfzGyN6O2pqcsnv+WM1bqwzAACXDtzd4kwnjxsnpEh/DGwZ3YgBmF8pn/yeN5m/vJD4I5b1wA8H66vUGP9DfA7Nb5zobaipySG/I1N0T8qPM2j4euB5k2241BAHE58/8xsrevtpcLnk94rxGjjeJQCAr026u+V4c3QDpCBvjG5AAcyv2iqX/H59kH90IPFHLuuBdcD+g3RAqrFdgFXE58/8xorefhpMLvldB+w+XiN7nQH4EXDHJDtdhiHyOZKSqnIazZhMx/yqjXLJ742kSYgG8g/EH8GsJz3DuPOgnZBqZi5pWu7o3JnfeNHbTpOXU37f1quhvc4AAHyx3x6XbCbwuuhGSBV5LbBVdCMKZH7VJrnkdz0F3Mt3A/FHMeuBxaQjK6nJtgIeJj5v5jcP0dtNk5NTfq+aqLETnQEA+Hwff6cK84DToxshlewNwDbRjSiB+VUb5JTfs4p4kW1I1/Cij2bWAyvJY1EFqQzzSN+Uo3NmfvMRvc3Uv5zyuwTYfKIG93MG4BHggj7+XhVmA38f3QipJGeQPkSayvyqyXLK7xdJB9yFOIH4I5qRWgMcUFTHpEzsQVqFMzpf5jcv0dtL/cktvwcX2bkhYFEGnRqpi4rsnJSBc4nPlfnNT/S2Un9yyu+NZXTwDRl0rLuOK6OTUoCjiM+T+c1T9HbSxHLL76vL6OQ8YHkGnRupm4BpZXRUqtA04Gbi82R+8xS9ndRbbvldQYlzEJyZQQe7601ldVSqSG5n1sxvXqK3kXrLLb+fKLOz+5MWF4ju5EitBBaU2WGpRE8BlhGfI/Obr+htpPHllt+1wN6l9hj4ZgYd7a5r6e9xRik33yI+P9FlfnuL3j4aX275nfK0v/04Mqhzveo1pfZYKt7Lic9NLmV+xxe9bTS2HPN7RKk97nJVRR3qt5aSTsdIdbAz8BDxucmlzO/4oreNNpVjfr9bZodHO6mEDky1vkOar0DK2RBwIfF5ya3M79iit4s2lmt+jymz06MNAT8ooRNTrdeW2WmpAG8kPie5lvndVPQ20cZyzO+1pfZ4HCcO2NgyazUVXgeRJukA8pouNLcyv5uK3ibaINf8nlBmp3u5us8GVln3kM9yjNKILYHbic9H7nUP5rdb9PZQkmt+rymz0xN57jiNiq4L8dEi5WMIOIf4XNSlzO8G0dtCeef3BeV1uz+XEj8IY9Xby+y0NAlnEJ+Hseoi4JIM2mF+x7eKuG3weAX9q4Nc8/utMjvdr0NIMxBFD8boWgMcXWK/pX4cTdoXo/Mwup4gzex5UKbtM79J5ONmD1bQv9zlmt+1wIEl9ntSziJ+QMbbgfcqsd9SL3uR3/PCI/Wprnaa33zdQNz4X19B/3KWc37PKrHfk7YDsIT4QRmrfgbsWF7XpTFtA9xB/P4/Vi0F5ne1dWfyWunT/G7wGeLG/tMV9C9Xued3p/K6Pphcr5OsB74PzCmv69JGZgCXE7/fj1dnjNHmt2fQLvO7qZcSN+6nVtC/HOWe3zeX1/XBzQTuIn5wxqvzgeml9V5KhoAvEb+/j1eLSFkdbSZVUmIrAAANeElEQVRwZwbtM78bm0PM2ZnltPOgK/f8/oyx85uFFxE/QL0qq+smaqQPE7+f96pje7T9+AzaZ343FXGPxmcq6Vl+cs/vyeV1vRhfIX6QetXfl9d1tdw/EL9/96ov9NGH8zJop/nd2ALSLIlVjfEqYM9KepaX3PP7lfK6Xpz5wCPED1avemdpvVdbvYH4/bpXLaG/G4d2BhZn0F7zu7EPUd34vr+iPuUk9/w+CuxSWu8L9jfED9hE9a6yOq/WeT3x+/NE9TeT6M9rMmiv+d3YLNJjeWWP63VkfI25JHXI76tL630JhklzFEcP2kTVxiNdFeutxO/HE9V3mdzUusPkuc5H2/M7H/gl5Y3n/dToW2ZBmpjfLCwg32eLu+sjuA65BpP7NcP1wDJgjwH6tpA8Vz5re34PAu6l+HH8JRnNLFeRuuS3tvdj1OFU4nrgTGp4hKUwQ8C/EL/f9lOvmkI/T8ug/eZ3U9sDV1Lc+F3HxhNDNV2d8vuaksagEkPku1jQ6PoC6Tqb1MtM8n5OuLsuYWrfjoeAyzLoh/nd1Ezg3UztLOsq4B9p1zX/OuX3MhpwdmsX8n8qYKSuo93Tjqq3banHtfH1pMztWkCfdyX/pwLanN/5wCeZ3IHActJZk9qeWh5QnfL7IBlO9zuoPyJ+QPute2jftTBNbC/SLHrR+2e/9fsF9j1yOlrz2585wEtI8/d/j/QDZFWnHuz82adIn8VtnOGvTvldS5qUq1E+RfzA9ltLqcGMS6rM0eS7KthY9YkSxiByURrzq6moW37/oZxhiDUT+AHxg9tvraN9zxprY0OkZ4SrnIVtqnUrMLuEsZgF3JRB/8yv+lXH/F5Fg9e8WEA6Oo8e5MnUV4B5ZQyGsrYl8DXi97/J1FJgnzIGo+Np1OPRXvOrOub3IYq5bydrdbqeOFL3AEeWMBbK0zOA24nf7yZT60jZKtvLgvpnftWvuub3xDIGI0f/RPyAT7aeIM1BPq2E8VAehoA3Ao8Tv79Ntj5YwniMJ/cV08xvO5nfmhgGLiB+0Aep62nf4zNtsCNwIfH71yB1KdX+YJsGXFxCP8yvBlXn/F5Mg6/7j2ce9XksY3Q9Aryi+CFRkJdTr7uEu2sRMde4twPuHqC9OZT5bZY65/cW0v0KrbQvaZnS6I0waH2HNGe66ukp1Peb7HpSdp5W+Kj0bz/Mr+LUPb+/AnYrfFRq5jjq9ZjG6HoceA/tmoa07qaR5rlfRvz+M2itAo4pemAGYH5VtSbkdzlwaNEDU1cvI90FGb1RplJ3AS8qemBUuBdQr+fZx6p1wJ8WPC5T8RfEj4n5bYcXUP/8rgVOKXhcau/txG+YIuorwN4Fj42mbg/gq8TvH0XU2wsemyK8j/hxMb/N1aT8vrHgsWmMM4nfOEXUatLUqa2/vpOBbYD3U4+17fupM4sdnsIMYX5VvKbl95PFDk+zTKd+szf1qsdI607vUOQgqS9bkaaCrfNNaqPrHPJ+jn0acC7x42R+66+J+f0yeec3CzOo7/Oc49Uy0ilSpyQt31zgbcDDxG/3Iut8YLMCx6kss0jzEkSPl/mtp6bm9wLqkd8szKDej3f0+iA5E9i/uKFSx3zSN4ZHiN/ORddl1Osu9ZmkA5bocTO/9dHk/F4DbFHYSLXEFqSBi954ZdQ64CLgBNK1Uw3uYOD/U+9H0XrV1dTzw2MWaR+PHj/zm7em5/dKYE5ho9Uyc2nuQcBI3QG8lhbPBjWALYG/Av6H+O1XZl1FykBdzaR5l/PM79S1Jb/fpZ4H71nZgjRjV/TGLLtWAF8Cfo/0wamNDZFWdDuLek8A0m9dRjM+PJp6OcD8Tk7b8nsFzchvFmbT/G8S3bUYOBs4lnbfNToEHA78M/BL4rdLVXUB9brmP5EZwLeIH1fzW60253fzAsZPXWbQrEeM+q0HgH8DXky9Twf3axZwPOnxq58TP/5V17mkfb1pzK/5bUOdTQtX9qvKdNIEHdEbOaqeAK4F3g08j2Y8VjJEuqv6b0k3Vq0gfpyj6kya/eExDfgY8eNsfotjfjfUe/Gm0Eq8g/qvHVBELSOdbvo74CRgl6kMakW2AJ4PvJXU9iY+9jPZWkee0/uW5TTSfOjR4x5d5rcZtQZ49VQGNUqdj1b+jHQ2oAlH0UV6CLiZtGDGzcCPgHtIq09VaTawJ2m52gOAA4GDOn82XHFbcvYE8JfA56MbUrFTgC+S9hNtYH7r5THg5cB50Q0ZRJ0PACBda/oq7bi2NlVLgPuAX3R+vb/z+1+TfggtJS0xu5J0Gm818Cjp2+kc0oHWNNJYbwZs26ntOr/uQJo7/amkhTt2rKRX9fYocCrw39ENCXI46eZAp9qdmPnNz2LSvR3XRDdkUHU/AIB0hPpNYEF0Q6RJWER6ZGxRdEOC7Um6drwwuiHSJNxOOotV6/w24VTO7aRvEpdGN0Tq08WkfbbWHx4FuRs4gjTXh1QHX6Mh+W3KM6qPkybhmAk8N7gtUi8fJ92/8lhwO3LyGGk62MeAo2nGmUk1z1rSQkWnkS63KEN/TLoeFn1nqGV118j1fvX2QtKNcNHby7K66zekg1PVwD6ku2ijdxrLWg/8ANgb9WtXmr8GiFWf+gHp5kjVyCzg08TvPFa7619xbvhBbAZ8BOf7sGLr05jfWnsp6XGN6B3Jalf9Fvh9NFWnYH6t6utXpMmZ1ADzSbNWRe9UVjvqUuoxq1tdzCdNtBK9Xa121Dmk+RHUIEPAq2jHUpRWTK0AXo93sZflVNKZlejtbDWzFpN+RqjB9gGuI35ns5pVV5ImtVG5dqZdSwtb1dSFpH1LLTAMvIY0vWb0jmfVux4mzeXvt/5qvYI09tHb36p3LQb+CvPbSjuT1hKI3gmtetYXcB77SPOBc4nfD6z61Trg3zG/Ak4mTUkavVNa9ahFwHEoF8cCtxK/X1j1qBuBZyN1mUG6getR4ndQK89aDJyBzwXnaBh4JfAg8fuJlWc9QvqMb8oU+CrBdsDHgDXE77BWHrUW+DyeLqyDecAHSOuDRO83Vh41kt/tkfp0CGmd9uid14qt84EDUd3sQ9p20fuPFVfrgG8AT0ca0O8AVxO/M1vV1neA56C6ewFwOfH7k1VtnQ8cilSQE4DvE79jW+XW9cAxqGmOBC4hfv+yyq2LgWchlWAIOJE06Uv0jm4VW5eR7iZXsz2L9O3QRYaaVd/GM3aq0LNJ85OvJX7ntwartcDXgGeitjkY+DoeCNS5VgNfxh/8CrQvcCauMVCnWgp8Alg4xvZUuywkLTv8CPH7pdVfPQi8DxfcUkbmkhaScEKSfGsR6Tn+rcfZhmqvmaTFhnzyJ9/6IekzdvY421AKNwQcBXwFeIz40LS9VpKm7D2q10aTuhwGnE1a3TF6/217rQT+i3QTp1QrWwN/DVyD1xqrrHWkRzf/gnRmRhrEPOBvMb9V1xrSExuvxPyqIfYC3gXcRnzAmlo3A+/ojLVUpN2AN5AeE/VgoJy6nnTAtWOf20SqpX2Bt5HmFfDDZGr1feAtwN6T2gLS4HYHTgf+B/M7lVpHWpjn7/CgPYRrIMfbHXgx8ELSrGVzQluTv2WkWfouIU368cvY5qjlngqcRJo86ijSZQON77ekZ/Yv6fz6YGxz2s0DgLzMAI4gLTV7PGk9guHQFsVbQ7r790rSh8Y1pOd/pdxMI00/ewxpUqkjgFmhLYq3lnSm5JJO/YD0zV8Z8AAgb3NJEw4d0anDaf5NMStIHxhXk37YX9/5M6luZpPuXj+aNFnNocCWoS0q33LgBuBaUnavIy2xrgx5AFAv04D9SWcGDurUM4BtIxs1BUuBm0jf8H/Q+fVO0rcGqWmGgaeRpiM+hLTK5EHUd16KR4FbSLkdyfHtmN/a8ACgGXYBDiDdCDdSewF7kiY4ibQKuA+4izQRzx2dXxd1/lxqu11JB/Z7ku4pGKk9iF/D/lHgZ8BPO7+O/P6nwEOB7VIBPABotmFgPrBTp+YDO5Mes9mOdDqyu7q/iUxj48sNj5Ku3a0k/VBfDSzu1CNdvz5MujHvvk55k480uC3YcDCwOym323bVNqT7DOaQMjy98+9Gn1VY3Pn1CdJp+pWkTI/Uw6Qf6A+QMvsgcDf+kJckSZIkSZIkSZIkSZIkSZIkSZIkSZIkSZIkSZIkSZIkSZIkSZIkSZIkSZIkSZIkSZIkSZIkSZIkSZIkSZIkSZIkSZIkSZIkSZIkSZIkSZIkSZIkSZIkSZIkSZIkSZIkSZIkSZIkSZIkSZIkSZIkSZIkSZIkSZIkSZIkSZIkSZIkSZIkSZIkSZIkSZIkSZIkSZIkSZIkSZIkSZIkSZIkSZIkSZIkSZIkSZIkSZIkSZIkSZIkSZIkSZIkSZIkSZIkSZIkSZIkSZIkSZIkSZIkSZIkSZIkSZIkSZIkSZIkSZIkSZIkSZIkSZIkSZIkSZIkSZIkSZIkSZIkSZIkSZIkSZIkSZIkSZIkSZIkSZIkSZIkSZIkSZIkSZIkSZIkSZIkSZIkSZIkSZIkSZIkSZIkSZIkSZIkSZIkSZIkSZIkSZIkSZIkSZIkSZIkSZIkSZIkSZIkSZIkSZIkSZIkSZIkSZIkSZIkSVIL/C+Plxe+da1u9wAAAABJRU5ErkJggg==;" vertex="1" parent="1">
          <mxGeometry x="447" y="637" width="56" height="56" as="geometry" />
        </mxCell>
        <mxCell id="P-ReLISwFB9qMGB5_NRq-4" value="" style="shape=image;verticalLabelPosition=bottom;labelBackgroundColor=default;verticalAlign=top;aspect=fixed;imageAspect=0;image=data:image/png,iVBORw0KGgoAAAANSUhEUgAAAgAAAAIACAYAAAD0eNT6AAAACXBIWXMAADsOAAA7DgHMtqGDAAAAGXRFWHRTb2Z0d2FyZQB3d3cuaW5rc2NhcGUub3Jnm+48GgAAIABJREFUeJzt3X+QVeWd5/HPc27f2/xoumm6G5oA6hJBNDW7hViabGVXSbQW82MEa0dXYg070agBZWKS2ZmMCj0wbnZrK1EzoV1dNyZV0drEVMRScd3gUFv7q9IBdbYSQAys2i2NdAPdfVua/nHPs38QqHSwb/+69z7POc/79X/f5wPnfM/53HPPvUcCAAAAAAAAAAAAAAAAAAAAAAAAAAAAAAAAAAAAAAAAAAAAAAAAAAAAAAAAAAAAAAAAAAAAAAAAAAAAAAAAAAAAAAAAAAAAAAAAAAAAAAAAAAAAAAAAAAAAAAAAAAAAAAAAAAAAAAAAAAAAAAAAAAAAAAAAAAAAAAAAAAAAAAAAAAAAAAAAAAAAAAAAAAAAAAAAAAAAAAAAAAAAAAAAAAAAAAAAAAAAgGQzrgMAv8/+YtUfyepOSZ+VdImk2W4T6UNJ70jaLWueMv9i768d50kUD7en79jfUDEUAHjB7rq0Wpm6R2R0t6TIdZ4xFCTzH9Uz8HVzy2+GXIfxWUK2p+/Y31BWFAA4Z3ddWq1s3SuyWu06ywT9vXrO3MhB+aMlcHv6jv0NZUEzh3tVdY8m7GTxGc2t/o7rEN5K3vb0HfsbyoIrAHDqd58Rv6nkldGC4uifmDW/+o3rID5J8Pb0HfsbSo4hhVtnbxBL4n6YUaZwh+sQ3knu9vQd+xtKjkGFa9e7DjBl1tzgOoKHkrs9fcf+hhKjAMC1i1wHmDKji11H8FByt6fv2N9QYhQAuFbjOsCUWc1xHcFDyd2evmN/Q4lRAAAACBAFAACAAFEAAAAIEAUAAIAAUQAAAAgQBQAAgABRAAAACBAFAACAAFEAAAAIEAUAAIAAUQAAAAgQBQAAgABRAAAACBAFAACAAFEAAAAIEAUAAIAAUQAAAAgQBQAAgABRAAAACBAFAACAAFEAAAAIEAUAAIAAUQAAAAgQBQAAgABRAAAACBAFAACAAFEAAAAIUJXrACiBP7EZrchfHSlebaVVxpgVkhZKqpGUdZxuHJ9xHWBaoi291nUGvyR7e/rOwf42LKlf0lFr7VvGaG8cmT1SbZtaTFzhLCgxCkCSPXBiSZTJbpJ6b5fMIsnIuM4EIE2ykuol1RtjPiHp5iiWpHyHtvb9ODbDO9TS0OE0IaaMjwCS6Fv5pmhr3xNRpuq3kv3Lsyd/AKgUu1jW/lUUVx2OtvS26lt9Da4TYfIoAAmTeah3fZSND8rauyTlXOcBELScpK9GWftWZkvPra7DYHL4CCAp7rLZaGFvq7W603UUAPgDDVbmv0Rbe6+LTe19ajEjrgNhfFwBSIKWo7NMc98LsoaTPwB/Wd1j4r6dajk6y3UUjI8C4Lu7bNbEs39mpBtdRwGA8Rjp8yae/VO1WK4we44C4LloYW8rJ38ASWKkz0dx3/dc50BxFACPZbb0fonL/gAS6quZh3pucR0CY6MA+OpbfQ1WetR1DACYKmtMq1r6Gl3nwEejAHgqyunfSmJwACRZQxTbFtch8NEoAD5qObFY1v5r1zEAoATu1AOn+bEyD1EAPBTF2XvFj/wASIfqKDOyyXUIXIgC4JsWG0n6kusYAFA68Z/qT2zGdQqMRgHwTSF/jWQXu44BAKVjFukTfatcp8BoFADPRIpXu84AAKUWFSzPivYMBcAz1ugq1xmAqcoXZrqOkFp9hWT/uq5VxBUAz1AAPGNklrvOAExV++AC1xFS672E/98aE1/mOgNGowD4Z6HrAMBU7e7hTV65/OJU0i8OGo5tnqEA+KfGdQBgqv7zsc+pYDmslFrBRvrBB4l/JMgc1wEwGpPqH77/j8T69el/pCeO/bHrGKnT2rlW+09f4jrGdFW7DoDRKAAASuobR76qv++50nWM1Hit50r9xTv3uI6BFKIAACipIZvV53/zbe04upaPA6ahYCP93dGb9fn9/07DcZXrOEgh9ioAJTdks9p8ZLOeOPbH+nLzLl0/d58uqT6mmsyA62he6y/M1DuDzfrFqav0gw9uTMNlf3iMAgCgbH5z+hJ948hG1zEAfASuzwEAECAKAAAAAaIAAAAQIAoAAAABogAAABAgCgAAAAGiAAAAECAKAJxK8vPjk/58dgBhowDAqSQ/Pz7pz2cHEDYKAJxK8vPjk/98dgAhowDAqaQ+Pz4lz2cHELDkHXmRKkl9fnxKns8OIGAUADiXtOfH83x2AGlAAYBzSXl+PM9nB5AmxnUAjBZt6bWuM7j0iVnvePX8eJ7PDpROvK2Oc45H2BieCb0AAEgvCoBf/L3eCgAAyoYCAABAgCgAAAAEiAIAAECAKAAAAASIAgAAQIAoAAAABIgCAABAgCgAAAAEiAIAAECAKAAAAASIAgAAQIAoAAAABIgCAABAgCgAAAAEiAIAAECAKAAAAASIAgAAQIAoAAAABIgCAABAgCgAAAAEiAIAAECAKAAAAASIAgAAQIAoAAAABIgCAABAgCgAAAAEiAIAAECAKAAAAASIAgAAQIAoAAAABIgCAABAgCgAAAAEiAIAAECAKAAAAASIAgAAQIAoAAAABIgCAABAgCgAAAAEqMp1AKRPxsS6es4BXVf3plbVHNJlM9u1MHdCNdGAJKk/nqmjQw06NLBE+/qXa0/PSrXlVyhOTR+1Uv+QbN+gdHpIdmBEGipIsZWsrWwUY6TISLmMzMwqaVZOpnaGVJOrbI6AMQ/wlXEdAKNFW3orfIYonSXVXdq48Hl9qek1LarumtTfdgw16pkPblBr5zp1DDWWKWGZDRVkP8jLdg9IwyOu0xSXy8g0zJJZMEfKZVynSaXg5+EjxNvqOOd4hI3hmSQWgKZsj7Zf/ANtWPCqcmZ4Wq81ZLN6+tgabXnvy+oeritRwjIbKci298p2n678O/zpMkamabbM4jqpinecpRD8PBRBAfALG8MzSSsAt81/Td9b+j3Nq8qX9HVPDNfqviN/rp90rS7p65aaPXFa9t1T0kjsOsr0VEUyl9TLzJvlOkmihT4P46EA+IWN4ZmkFIBsNKIdSx/THc0vl3WdJ499QZuPbNZw7NntKtbKvtMj29XvOklJmfmzZS6uP3vvACYs+HmYIAqAX7jmh0mbFQ1q5+UPlv1gJ0l3Nb+k5y9/SLOiwbKvNWGxlT3UnbqTvyTZ4x/Kvt199oZFTEjw84DEogBgUrLRiJ67fKvW1LdVbM0b63+pnVc8MO3PU0vCWtm3u2V7z7hOUja254zs213Ju5/BgeDnAYlGAcCk7Fj6WEUPdud8du7renTp9yu+7h+y7/Sk+uR/ju0dlH23x3UM74U+D0g2CgAmbH3T7opc5hzL3Qtf1C2Ne5ytb0+cTuVl/7HY4/2yJ0+7juGt0OcByUcBwIQ0ZPv0yNIdrmNox6WPqjHbW/mFR+Kzd/sHxr6Tgm84lEHw84BUoABgQh6++CkvDjTzqvJqueiHFV/XtveEeSIciWU73G9334Q+D0gHCgDGtTjXrQ0LXnUd47w7mnfpourjlVtwqHD2R34CZbs+lAYLrmN4I/h5QGpQADCuTR/7uVd3HOfMsO5pfqFi69kP8mHfEW+t7PHS/rBNkoU+D0gPCgCKihRr/fzdrmNc4Pb5u5Uxlbkkb0+E++7/HNs9ICngEvQ7zAPShAKAoq6pPaDFuW7XMS6wqLpLq2YfKv9C/YNnn+QXuuERqd+fd72uBD8PSBUKAIq6ru5N1xHGtLr+jbKvYfv4xbVzbJ7/i9DnAelCAUBRV9X4+65iVc1b5V/kQ971nvchBSD4eUCqUABQ1LKZ7a4jjGn5jI6yr2HPUADOsQN8FBL6PCBdKAAoamHuhOsIY6pItmFOeucNj7hO4Fzw84BUoQCgqJqMv797PyczUP5FCtz5fh7/F8wDUoUCABQT8vf//xD/F0CqUABQVH9hhusIY8oXZrqOgMAwD0gTCgCK6hxqcB1hTD5nQzr5vM/5nA1+ogCgqLcHlriOMKZDZxa7joDAMA9IEwoAitrbv9x1hDHtza9wHQGBYR6QJhQAFLWnZ6XrCGPa0+tvNqQT84A0oQCgqLb8CrUPNrmOcYH3BudrX36Z6xgIDPOANKEAoKhYkZ49fr3rGBd4tut6xey+qDDmAWnCHoNxtXau05DNuo5x3mCcU2vnTa5jIFDMA9KCAoBxdQw16ulja1zHOO+pY5/T+x5ehkUYmAekBQUAE/Lgu3eqe7jOdQydGK7VtvYNrmMgcMwD0oACgAk5OTJHm49sdh1DGw/f78WBF2FjHpAGFABM2E+6VuvJY19wtn5r51r9rPtaZ+sDv495QNJRADAp9x7+ml44+emKr7vr5Cd1/5FNFV8XKIZ5QJJRADApBRvp9oMP6JVT11RszZdPfUq3HtyqEZup2JrARDAPSDIKACbtdFytdQe264nOL5Z9rdbOtbp5/zadjqvLvhYwFcwDkooCgCkZjqu08fD9uu3gQ2W5CalreK5uPbhV9x3ezDsdeI95QBJRADAtP+1erSte/5Ee77xJg3Fu2q83GOe04+haXbHvR9zghMRhHpAkxnUAjBZt6bWuM0zVououbWreqfXzd2tJddek/rZ9sEnPdN2g1s6bvPpRk7it3XUEr0RX+/s4XN+kcR6mK95WxznHI2wMzyS5AJwTKdZVNYe0uv4Nrap5S8tndGhRdZdqMmckSf2FGeoYbNLbZxZrb36F9vSu1L78Mi9/y5wCMBoFYPLSNA/TRQHwS5XrAEifWJHa+leorZ/nkwPMA3yVvooJAADGRQEAACBAFAAAAAJEAQAAIEAUAAAAAkQBAAAgQBQAAAACRAEAACBAFAAAAAJEAQAAIEAUAAAAAkQBAAAgQBQAAAACRAEAACBAFAAAAAJEAQAAIEAUAAAAAkQBAAAgQBQAAAACVOU6ANInY2JdPeeArqt7U6tqDumyme1amDuhmmhAktQfz9TRoQYdGliiff3LtadnpdryKxTTR5FCzAN8ZVwHwGjRll7rOsNULanu0saFz+tLTa9pUXXXpP62Y6hRz3xwg1o716ljqLFMCScvbmt3HcEr0dVLXEdIjDTOw3TF2+o453iEjeGZJBaApmyPtl/8A21Y8KpyZnharzVks3r62Bptee/L6h6uK1HCqaMAjEYBGF+a52G6KAB+4RoTpuW2+a9p/6oN+krzS9M+2ElSzgzr7oUvav+VG3Rr054SJAQqh3lAklAAMCXZaERPXvod/Xj5w5pXlS/56zdk+/TsZdv1+KXfVTYaKfnrA6XEPCCJKACYtFnRoHZe/qDuaH657Gvd1fySnr/8Ic2KBsu+FjAVzAOSigKASclGI3ru8q1aU99WsTVvrP+ldl7xQEkuqQKlxDwgySgAmJQdSx+r6MHunM/OfV2PLv1+xdcFimEekGQUAEzY+qbdFbnMOZa7F76oWxq5EQp+YB6QdBQATEhDtk+PLN3hOoZ2XPqoGrO9rmMgcMwD0oACgAl5+OKnvDjQzKvKq+WiH7qOgcAxD0gDCgDGtTjXrQ0LXnUd47w7mnfpourjrmMgUMwD0oICgHFt+tjPvbrjOGeGdU/zC65jIFDMA9KCAoCiIsVaP3+36xgXuH3+bmVM7DoGAsM8IE0oACjqmtoDWpzrdh3jAouqu7Rq9iHXMRAY5gFpQgFAUdfVvek6wphW17/hOgICwzwgTSgAKOqqGn/fVayqect1BASGeUCaUABQ1LKZ/j4Od/mMDtcREBjmAWlCAUBRC3MnXEcYk8/ZkE4+73M+Z4OfKAAoqiZzxnWEMc3JDLiOgMAwD0gTCgAAAAGiAKCo/sIM1xHGlC/MdB0BgWEekCYUABTVOdTgOsKYfM6GdPJ5n/M5G/xEAUBRbw8scR1hTIfOLHYdAYFhHpAmFAAUtbd/uesIY9qbX+E6AgLDPCBNKAAoak/PStcRxrSn199sSCfmAWlCAUBRbfkVah9sch3jAu8Nzte+/DLXMRAY5gFpQgFAUbEiPXv8etcxLvBs1/WK2X1RYcwD0oQ9BuNq7VynIZt1HeO8wTin1s6bXMdAoJgHpAUFAOPqGGrU08fWuI5x3lPHPqf3PbwMizAwD0gLCgAm5MF371T3cJ3rGDoxXKtt7Rtcx0DgmAekAQUAE3JyZI42H9nsOoY2Hr7fiwMvwsY8IA0oAJiwn3St1pPHvuBs/dbOtfpZ97XO1gd+H/OApKMAYFLuPfw1vXDy0xVfd9fJT+r+I5sqvi5QDPOAJKMAYFIKNtLtBx/QK6euqdiaL5/6lG49uFUjNlOxNYGJYB6QZBQATNrpuFrrDmzXE51fLPtarZ1rdfP+bTodV5d9LWAqmAckFQUAUzIcV2nj4ft128GHynITUtfwXN16cKvuO7yZdzrwHvOAJKIAYFp+2r1aV7z+Iz3eeZMG49y0X28wzmnH0bW6Yt+PuMEJicM8IEmM6wAYLdrSa11nmKpF1V3a1LxT6+fv1pLqrkn9bftgk57pukGtnTd59aMmcVu76wheia7293G4vknjPExXvK2Oc45H2BieSXIBOCdSrKtqDml1/RtaVfOWls/o0KLqLtVkzkiS+gsz1DHYpLfPLNbe/Art6V2pffllXv6WOQVgNArA5KVpHqaLAuCXKtcBkD6xIrX1r1BbP88nB5gH+Cp9FRMAAIyLAgAAQIAoAAAABIgCAABAgCgAAAAEiAIAAECAKAAAAASIAgAAQIAoAAAABIgCAABAgCgAAAAEiAIAAECAKAAAAASIAgAAQIAoAAAABIgCAABAgCgAAAAEiAIAAECAKAAAAASoynUApE/GxLp6zgFdV/emVtUc0mUz27Uwd0I10YAkqT+eqaNDDTo0sET7+pdrT89KteVXKKaPIoWYB/jKuA6A0aItvdZ1hqlaUt2ljQuf15eaXtOi6q5J/W3HUKOe+eAGtXauU8dQY5kSTl7c1u46gleiq5e4jpAYaZyH6Yq31XHO8QgbwzNJLABN2R5tv/gH2rDgVeXM8LRea8hm9fSxNdry3pfVPVxXooRTRwEYjQIwvjTPw3RRAPzCNSZMy23zX9P+VRv0leaXpn2wk6ScGdbdC1/U/is36NamPSVICFQO84AkoQBgSrLRiJ689Dv68fKHNa8qX/LXb8j26dnLtuvxS7+rbDRS8tcHSol5QBJRADBps6JB7bz8Qd3R/HLZ17qr+SU9f/lDmhUNln0tYCqYByQVBQCTko1G9NzlW7Wmvq1ia95Y/0vtvOKBklxSBUqJeUCSUQAwKTuWPlbRg905n537uh5d+v2KrwsUwzwgySgAmLD1TbsrcplzLHcvfFG3NHIjFPzAPCDpKACYkIZsnx5ZusN1DO249FE1Zntdx0DgmAekAQUAE/LwxU95caCZV5VXy0U/dB0DgWMekAYUAIxrca5bGxa86jrGeXc079JF1cddx0CgmAekBQUA49r0sZ97dcdxzgzrnuYXXMdAoJgHpAUFAEVFirV+/m7XMS5w+/zdypjYdQwEhnlAmlAAUNQ1tQe0ONftOsYFFlV3adXsQ65jIDDMA9KEAoCirqt703WEMa2uf8N1BASGeUCaUABQ1FU1/r6rWFXzlusICAzzgDShAKCoZTP9fRzu8hkdriMgMMwD0oQCgKIW5k64jjAmn7MhnXze53zOBj9RAFBUTeaM6whjmpMZcB0BgWEekCYUAAAAAkQBQFH9hRmuI4wpX5jpOgICwzwgTSgAKKpzqMF1hDH5nA3p5PM+53M2+IkCgKLeHljiOsKYDp1Z7DoCAsM8IE0oAChqb/9y1xHGtDe/wnUEBIZ5QJpQAFDUnp6VriOMaU+vv9mQTswD0oQCgKLa8ivUPtjkOsYF3hucr335Za5jIDDMA9KEAoCiYkV69vj1rmNc4Nmu6xWz+6LCmAekCXsMxtXauU5DNus6xnmDcU6tnTe5joFAMQ9ICwoAxtUx1Kinj61xHeO8p459Tu97eBkWYWAekBYUAEzIg+/eqe7hOtcxdGK4VtvaN7iOgcAxD0gDCgAm5OTIHG0+stl1DG08fL8XB16EjXlAGlAAMGE/6VqtJ499wdn6rZ1r9bPua52tD/w+5gFJRwHApNx7+Gt64eSnK77urpOf1P1HNlV8XaAY5gFJRgHApBRspNsPPqBXTl1TsTVfPvUp3Xpwq0ZspmJrAhPBPCDJKACYtNNxtdYd2K4nOr9Y9rVaO9fq5v3bdDquLvtawFQwD0gqCgCmZDiu0sbD9+u2gw+V5SakruG5uvXgVt13eDPvdOA95gFJRAHAtPy0e7WueP1HerzzJg3GuWm/3mCc046ja3XFvh9xgxMSh3lAkhjXATBatKXXus4wVYuqu7SpeafWz9+tJdVdk/rb9sEmPdN1g1o7b/LqR03itnbXEbwSXe3v43B9k8Z5mK54Wx3nHI+wMTyT5AJwTqRYV9Uc0ur6N7Sq5i0tn9GhRdVdqsmckST1F2aoY7BJb59ZrL35FdrTu1L78su8/C1zCsBoFIDJS9M8TBcFwC9VrgMgfWJFautfobZ+nk8OMA/wVfoqJgAAGBcFAACAAFEAAAAIEAUAAIAAUQAAAAgQBQAAgABRAAAACBAFAACAAFEAAAAIEAUAAIAAUQAAAAgQBQAAgABRAAAACBAFAACAAFEAAAAIEAUAAIAAUQAAAAgQBQAAgABRAAAACFCV6wBIn4yJdfWcA7qu7k2tqjmky2a2a2HuhGqiAUlSfzxTR4cadGhgifb1L9eenpVqy69QTB9FCjEP8JVxHQCjRVt6resMU7WkuksbFz6vLzW9pkXVXZP6246hRj3zwQ1q7VynjqHGMiWcvLit3XUEr0RXL3EdITHSOA/TFW+r45zjETaGZ5JYAJqyPdp+8Q+0YcGrypnhab3WkM3q6WNrtOW9L6t7uK5ECaeOAjAaBWB8aZ6H6aIA+IVrTJiW2+a/pv2rNugrzS9N+2AnSTkzrLsXvqj9V27QrU17SpAQqBzmAUlCAcCUZKMRPXnpd/Tj5Q9rXlW+5K/fkO3Ts5dt1+OXflfZaKTkrw+UEvOAJKIAYNJmRYPaefmDuqP55bKvdVfzS3r+8oc0Kxos+1rAVDAPSCoKACYlG43oucu3ak19W8XWvLH+l9p5xQMluaQKlBLzgCSjAGBSdix9rKIHu3M+O/d1Pbr0+xVfFyiGeUCSUQAwYeubdlfkMudY7l74om5p5EYo+IF5QNJRADAhDdk+PbJ0h+sY2nHpo2rM9rqOgcAxD0gDCgAm5OGLn/LiQDOvKq+Wi37oOgYCxzwgDSgAGNfiXLc2LHjVdYzz7mjepYuqj7uOgUAxD0gLCgDGteljP/fqjuOcGdY9zS+4joFAMQ9ICwoAiooUa/383a5jXOD2+buVMbHrGAgM84A0oQCgqGtqD2hxrtt1jAssqu7SqtmHXMdAYJgHpAkFAEVdV/em6whjWl3/husICAzzgDShAKCoq2r8fVexquYt1xEQGOYBaUIBQFHLZvr7ONzlMzpcR0BgmAekCQUARS3MnXAdYUw+Z0M6+bzP+ZwNfqIAoKiazBnXEcY0JzPgOgICwzwgTSgAAAAEiAKAovoLM1xHGFO+MNN1BASGeUCaUABQVOdQg+sIY/I5G9LJ533O52zwEwUARb09sMR1hDEdOrPYdQQEhnlAmlAAUNTe/uWuI4xpb35F+RcxpvxrJAX/F8wDUoUCgKL29Kx0HWFMe3orkC3DSe88/i+YB6QKBQBFteVXqH2wyXWMC7w3OF/78svKv1A2U/41kiJb5TqBc8HPA1KFAoCiYkV69vj1rmNc4Nmu6xVXYPc1M7JlXyMpzEzKUOjzgHRhj8G4WjvXacj6cyIcjHNq7bypMovN9uff7dzsatcJvBD0PCBVKAAYV8dQo54+tsZ1jPOeOvY5vV+hy7Cm1t/vfVeaqaUASGHPA9KFAoAJefDdO9U9XOc6hk4M12pb+4bKLViTk3Jc+lZ1Rpqdc53CG8HOA1KFAoAJOTkyR5uPbHYdQxsP31/xA69pmFXR9XzE/8FoIc8D0oMCgAn7SddqPXnsC87Wb+1cq591X1vxdc2COWF/B94YmQU1rlN4J9R5QHpQADAp9x7+ml44+emKr7vr5Cd1/5FNFV9XkpTLyDTNdrO2B8z82XwFcAxBzgNSgwKASSnYSLcffECvnLqmYmu+fOpTuvXgVo1Yd5/Fm8V1UlWA41IVySziEvNYQp0HpEOARzRM1+m4WusObNcTnV8s+1qtnWt18/5tOh07vgO9KpK5pN5tBgfMJfPCLD6TEOQ8IBUC/mDTT9GWXus6w2Tc0rhHf/fx76kx21vS1+0anqt7D/+5d59x2ndOyh7/0HWMijALamQuDq/0TEdo8zBZ8bY6zjkeYWN4JmkFQJIasn36m4ue1pcXvKLqaGharzUY5/TUsc+p5b0/08mROSVKWEpW9u0TsqcGXAcpKzN3psyyhrBvfpyisOZhcigAfmFjeCaJBeCcRdVd2tS8U+vn79aS6q5J/W37YJOe6bpBrZ03+f+jJrGV/W23bM8Z10nKwtTPlPl4gxRxeJiOYOZhEigAfmFjeCbJBeCcSLGuqjmk1fVvaFXNW1o+o0OLqrtUkzl7wuwvzFDHYJPePrNYe/MrtKd3pfbllyXrt8ytlX23R/Z4v+skJWUW1MhcNJd3/iUUxDxMEAXAL2wMz6ShAITEnjwt+84paSR2HWV6qjIyl9TLzJvpOglSjALgF77cC0yDmTdLpnaGbEevbNeHkk1YfzNGZv7ss1/1425/ICgUAGC6fvcVQbNojuyxftkTp6WhgutUxeUyMo2zzv7CHz/yAwSJyQdKJVsls2SuzJK5Uv+QbH5Q+nBQdqAgDY9IBVv5KwTGSBlz9oQ/o0qaXX32qX482AcIHgUAKIeanExNTtIcbrQB4CU+9AMAIEAUAAAAAkQBAAAgQBQAAAACRAEAACBAFAAAAAJEAQAAIEAUAAAAAkQBAAAgQBQAAAACRAEAACAb9WzgAAAFZElEQVRAFAAAAAJEAQAAIEAUAAAAAkQBAAAgQBQAAAACRAEAACBAFAAAAAJEAQAAIEAUAAAAAkQBAAAgQBQA/8SuAwBAGXBs8wwFwD+nXQcAgDLodx0Ao1EAvGN6XCcAgDLg2OYZCoBnjOLDrjMAQKlZa37rOgNGowB4xsr82nUGACg1Y+xvXGfAaBQAzxjZ/+E6AwCUmpH9764zYDQKgGcKUfSapGHXOQCghIYKkdnjOgRGowD4pqW221q96joGAJSKlV5RS91J1zkwGgXAQ5ExT7rOAAClEkXimOYh4zoAPoo10Zbef5DMH7lOAgDT9Ga8rfZKyVjXQTAaVwC8ZGwU6ZuuUwDAdEWy3+Tk7ycKgKdGWub+Nxn91HUOAJgyo2dHts19zXUMfDQKgMdiE98t6f+5zgEAU3A4PlPY6DoExkYB8FlLfU8c2X8pqc91FACYhN44Ktysfz+v13UQjI0C4LuWua9HkV0nHhIEIBk+jKN4rVrm/V/XQVAc3wJIiof6PhUZ+6KkBtdRAGAMXbHVF7W97peug2B8XAFIiu21/ycujKw00v92HQUA/pCRfhXH9hpO/slBAUiShxvaC8dqr5PMN8WztQH4oU/S1wtR7T/V387lpuUE4SOApPrr/gVRduTrsuYeSbWu4wAITp9kHo8j8121zDnuOgwmjwKQdC1HZ2UKs9daY9ZKdrWkRteRAKRWl4z2GKudhXztTj1iBlwHwtRRAFLFGj3Ye0lVlbnMFszHrGyNjJ1ZnqVkZKK5kuZZq48bY6+UNLcsawHJ9aG15lfG2HdldEKxPSGjgutQE2bNgJHpN8a+PxLbQ/rbunf4Vb/0oACgRKzRg/0roqhws6RbeY4BAvaOpB/G1r6kTN0/qMWMuA4EfBQKAMrjofy1RnaLMfYzrqMAlWCkX5rIbhlR3W61mNh1HmA8FACUVVVLz2fiOHpEsv/YdRagPOz7xpq/KmyvfYbL40gSCgDKr8VGmULf7dboP0ia7zoOUDrmuTiy96il7qTrJMBkUQBQOS2n5kZx5q8ke7+knOs4wDR8YGTuLmyrfcF1EGCqKACovJa+5Sa23zXS511HASbPPBcP66v6du0J10mA6aAAwJmqlp7r49g8JukK11mACThuovirhZb6n7sOApQCBQBu3WWzUXPfRkl/I6nOdRzgo5nn4mGzSd+e0+U6CVAqFAD44Vt9DVHObpHVJkkZ13GA3+kx1v5lYfvcJ10HAUqNAgC/tPRcmYnNo1b6Z66jIGzWapfNVH1FLbOPus4ClAMFAF7KbOn7opX9nqRLXGdBcHqNtf+Gd/1IOwoA/NVydFYUz7pPMg9KqnEdB+lnpVdtNHKnWho6XGcByo0CAP89cHpRlBn+tqTbxT6L8ugz1v5FYXvdf+LX/BAKDqZIjpb8P4/i+FFJK11HQXqc/ay/8FW1zHvPdRagkigASJYWG2UK+T+1xj4o6eOu4yDR9keRvjHSUvdfXQcBXKAAIJlabFWm0PevYpk/M8ZeK746iIkZsVa7ImOeKhyYs0vPmYLrQIArFAAk31/3L8hUxWussVcZq5VWWiSpXvywUOhOSOo2sh9YY/YaE/+vgqr+p1rmHHcdDAAAAAAAAAAAAAAAAAAAAAAAAAAAAAAAAAAAAAAAAAAAAAAAAAAAAAAAAAAAAAAAAAAAAAAAAAAAAAAAAAAAAAAAAAAAAAAAAAAAAAAAAAAAAAAAAAAAAAAAAAAAAAAAAAAAAAAAAAAAAAAAAAAAAAAAAAAAAAAAAAAAAAAAAAAAAAAAAAAAAAAAAAAAAAAAAAAAAAAAAAAAAAAAAAAAAAAAAAAAAAAATN//ByRdK6ooiI6WAAAAAElFTkSuQmCC;" vertex="1" parent="1">
          <mxGeometry x="439" y="580" width="72" height="72" as="geometry" />
        </mxCell>
        <mxCell id="P-ReLISwFB9qMGB5_NRq-5" value="" style="shape=image;verticalLabelPosition=bottom;labelBackgroundColor=default;verticalAlign=top;aspect=fixed;imageAspect=0;image=data:image/jpeg,/9j/4AAQSkZJRgABAQEAYABgAAD/2wBDAAMCAgICAgMCAgIDAwMDBAYEBAQEBAgGBgUGCQgKCgkICQkKDA8MCgsOCwkJDRENDg8QEBEQCgwSExIQEw8QEBD/2wBDAQMDAwQDBAgEBAgQCwkLEBAQEBAQEBAQEBAQEBAQEBAQEBAQEBAQEBAQEBAQEBAQEBAQEBAQEBAQEBAQEBAQEBD/wAARCAIAAgADASIAAhEBAxEB/8QAHwAAAQUBAQEBAQEAAAAAAAAAAAECAwQFBgcICQoL/8QAtRAAAgEDAwIEAwUFBAQAAAF9AQIDAAQRBRIhMUEGE1FhByJxFDKBkaEII0KxwRVS0fAkM2JyggkKFhcYGRolJicoKSo0NTY3ODk6Q0RFRkdISUpTVFVWV1hZWmNkZWZnaGlqc3R1dnd4eXqDhIWGh4iJipKTlJWWl5iZmqKjpKWmp6ipqrKztLW2t7i5usLDxMXGx8jJytLT1NXW19jZ2uHi4+Tl5ufo6erx8vP09fb3+Pn6/8QAHwEAAwEBAQEBAQEBAQAAAAAAAAECAwQFBgcICQoL/8QAtREAAgECBAQDBAcFBAQAAQJ3AAECAxEEBSExBhJBUQdhcRMiMoEIFEKRobHBCSMzUvAVYnLRChYkNOEl8RcYGRomJygpKjU2Nzg5OkNERUZHSElKU1RVVldYWVpjZGVmZ2hpanN0dXZ3eHl6goOEhYaHiImKkpOUlZaXmJmaoqOkpaanqKmqsrO0tba3uLm6wsPExcbHyMnK0tPU1dbX2Nna4uPk5ebn6Onq8vP09fb3+Pn6/9oADAMBAAIRAxEAPwD9U6KKKACiiigAooooAKKKKACiiigAooooAKKKKACiiigAooooAKKKKACiiigAooooAKKKKACiiigAooooAKKKKACiiigAooooAKKKKACiiigAooooAKKKKACiiigAooooAKKKKACiiigAooooAKKKKACiiigAooooAKKKKACiiigAooooAKKKKACiiigAooooAKKKKACiiigAooooAKKKKACiimu6xq0kjBVUbmZjgAepoAratq2l6DptxrGtahb2NjaRmSe4uJAkcajuWPAr5V+J37aF7LPNpPwp02OK3UlP7X1CIl5Oo3QwHG0dCDJk88oK85/aH+OF58VvEUml6PdunhTTJitlGuQLx14Ny47552A9F5wGYgeRUAdRr3xS+JXiiZ5te8e67deYctGL14ofwijKxj8FFc//AGlqR5OpXhP/AF8P/jVeigCx/aOpf9BK7/8AAh/8aP7R1L/oJXf/AIEP/jVeigCx/aOpf9BK7/8AAh/8aP7R1L/oJXf/AIEP/jVeigCx/aOpf9BK7/8AAh/8aP7R1L/oJXf/AIEP/jVeigCx/aOpf9BK7/8AAh/8aP7R1L/oJXf/AIEP/jVeigCx/aOpf9BK7/8AAh/8aP7R1L/oJXf/AIEP/jVeigCx/aOpf9BK7/8AAh/8aP7R1L/oJXf/AIEP/jVeigCx/aOpf9BK7/8AAh/8aP7R1L/oJXf/AIEP/jVeigCx/aOpf9BK7/8AAh/8aP7R1L/oJXf/AIEP/jVeigCx/aOpf9BK7/8AAh/8aP7R1L/oJXf/AIEP/jVeigCx/aOpf9BK7/8AAh/8aP7R1L/oJXf/AIEP/jVeigCx/aOpf9BK7/8AAh/8aP7S1IcjUrwH/r4f/Gq9FAHUaD8U/iX4XmSbQfH2u2vlnKxtevLD+MUhaM/ipr3v4Y/toXkc8Ok/FbTY5LdiE/tfT4iHj6DdNAM7h1JMeDxwhr5cooA/U3StW0zXNOt9X0bULe+sbuMSQXFvIHjkU9CrDg1br4F/Z3+ON58KfEUek61du3hTU5gt5GxyLKRuBcoOwHG8DqvOCVAP3yrK6h0YMrDII5BFAC0UUUAFFFFABRRRQAUUUUAFFFFABRRRQAUUUUAFFFFABRRRQAUUUUAFFFFABRRRQAUUUUAFFFFABRRRQAUUUUAFeK/ta+OJvCXwpn0qxmMd54lnGlqVPzLAVLTn6FF8s/8AXUV7VXyH+3NfSSa94Q03nZBZ3lx9S7xL+nl/qaAPmOiiigAooooAKKKKACiiigAooooAKKKKACiiigAooooAKKKKACiiigAooooAKKKKACiiigAooooAK+7/ANkzxxN4u+FFvpl9MZLzw1MdLZmPLQKqtA30CME9zGTXwhX09+wzfPHrfjDTckpNa2Vxj0KPMv67x+QoA+uqKKKACiiigAooooAKKKKACiiigAooooAKKKKACiiigAooooAKKKKACiiobq7tbKE3F5cxQRL1klcKo/E8UATUVzVx8TfhvZsY7z4heGoGH8MmrW6n9XqD/hbnwp/6Kd4T/wDB1bf/ABdAHWUVyf8Awtz4U/8ARTvCf/g6tv8A4uj/AIW58Kf+ineE/wDwdW3/AMXQB1lFcn/wtz4U/wDRTvCf/g6tv/i6P+FufCn/AKKd4T/8HVt/8XQB1lFcn/wtz4U/9FO8J/8Ag6tv/i6P+FufCn/op3hP/wAHVt/8XQB1lFcn/wALc+FP/RTvCf8A4Orb/wCLo/4W58Kf+ineE/8AwdW3/wAXQB1lfHH7cP8AyOnhn/sFzf8Ao0V9N/8AC3PhT/0U7wn/AODq2/8Ai6+WP2yPEHhfxN4g8L6l4Z8TaTrCLZ3UE32C9juPKKvGy79jHbnccZ67TjoaAPnqiiigAooooAKKKKACiiigAooooAKKKKACiiigAooooAKKKKACiiigAooooAKKKKACiiigAooooAK+k/2Hf+Rw8Uf9g2D/ANGtXzZX0N+xv4i8L+Gde8U6h4m8TaTo6PaWkMP2+9jt/OJeUts3kbtu0Zx03D1oA+0qK5P/AIW58Kf+ineE/wDwdW3/AMXR/wALc+FP/RTvCf8A4Orb/wCLoA6yiuT/AOFufCn/AKKd4T/8HVt/8XR/wtz4U/8ARTvCf/g6tv8A4ugDrKK5P/hbnwp/6Kd4T/8AB1bf/F0f8Lc+FP8A0U7wn/4Orb/4ugDrKK5P/hbnwp/6Kd4T/wDB1bf/ABdH/C3PhT/0U7wn/wCDq2/+LoA6yiuT/wCFufCn/op3hP8A8HVt/wDF0+P4rfC+ZtsPxI8LSMey6xbk/o9AHU0VT07WdH1hDJpOq2d6g53W86yD81Jq5QAUUUUAFFFFABRRXAfF74zeF/g/oa3+sZu9Sugw0/TInAluWHUk87IxkbnIOM4AZiFIB2esazpPh/TZ9Y13U7XT7G2XdNc3MqxxxjOOWYgDkgfjXzp4/wD21PDumtLYfDnQZdZmGVF/e7re1B9Vjx5kg7YPl+xNfNXxG+KPjT4p6sNU8XaoZY4mJtbGHKWtqD/zzTPXnl2yx6E4AA5OgD0nxV+0Z8ZvFrOt141utOt2bctvpI+xqnsHT96R7M5rzm9uLjUrg3mpXEt5cN96a4kMrn6sxJplFADQqjooH4Uu0egpaKAE2j0FG0egpaKAE2j0FG0egpaKAE2j0FG0egpaKAE2j0FG0egpaKAE2j0FFLRQAUUUUAFFFFABRRRQAUUUUAFFFFABRRRQAUUUUAFFFFABRRRQAUUUUAFFFFABRRRQAUUUUAFFFFABSUtFACbR6CjaPQUtFACbR6CjaPQUtFACbR6CjaPQUtFACbR6CjaPQUtFACbR6Cjav90UtFADFjjV1kWNVdTlWAwQfUHtXa+G/jN8VvCLK2heP9ZjRBhYbi4+1Qgegjm3qPwArjaKAPp/wN+21qlu6WnxG8LRXUXQ32k/u5F92hkYqx7kh19lPSvpbwT8Q/BnxG006r4N1631GFMCZFyssBOcCSNgHQnBxuAzjIyK/Mqr+g+INc8K6vBr3hvVrnTdRtjmK4t22sBwSp7MpwMqwKnoQRQB+pNFeE/AH9pbT/iV5XhPxcINO8UKp8lk+WDUQBkmPP3JAASYz1A3KSNyp7tQBz3j/wAbaR8O/CGpeMNaYm30+Lcsan5p5SdscS/7TMVUHoM5PAJr84/G3jTxB8QfE174s8TXXnX1633Vz5cEYzshjB+6ig4A6nJJyxJP0B+2540mudc0L4fW8hFvZQHVrpQeGlkLRxA+hVVlP/bUV8yUAFFFFABRRXU+EfhX8RvHlubzwj4N1HUbYEr9pVVigYg4IWWQqjEEcgEkd6AOWor0z/hmf47/APRObn/wYWf/AMeo/wCGZ/jv/wBE5uf/AAYWf/x6gDzOivTP+GZ/jv8A9E5uf/BhZ/8Ax6j/AIZn+O//AETm5/8ABhZ//HqAPM6K9M/4Zn+O/wD0Tm5/8GFn/wDHqP8Ahmf47/8ARObn/wAGFn/8eoA8zor0z/hmf47/APRObn/wYWf/AMeo/wCGZ/jv/wBE5uf/AAYWf/x6gDzOivTP+GZ/jv8A9E5uf/BhZ/8Ax6uR8WeAfG3gSaO38YeF9Q0kzHbE88f7qRsZKpIpKMQOSAxIoAwaKKKACiiigAooooAKKKKACiiigAooooAKKKKACiiigAooooAKKKKACiiigAooooAKKKKACiiigAooooAazbVLHoOa+x1/Yd8E/wDLTxx4gP8Aupbj/wBkNfGl3/x6zf8AXNv5V+r1AHzmn7D/AMO/+WnjDxSf92S1H84TUv8AwxD8MO/ivxhn2ubT/wCRq+h6KAPnxP2JfhWv3vEXi1/967tv6QCp4/2LfhIv3tS8Sv8A719F/SIV75RQB4Wn7GvwdX739vP/AL2of4KKnT9j34Kr97T9Xf8A3tSk/pivbaKAPGU/ZF+By/e8P6g/+9qtx/RxU6fsm/AdfveD7h/97WL3+kor1+igDyQfso/AMHP/AAg8n46xfn/2tUyfst/AeP7vgND/AL2oXbfzlr1WigDzFP2afgbH934e2Z/3ridv5vVhP2dfglH934c6Uf8AeV2/m1ejUUAcAnwC+C8f3fhpoJ/3rUN/OrEfwP8Ag5H934X+GD/vaXC381rt6jknhj/1kyJ/vMBQB8Q/tbeG9B8FfETQk8G6LZaCn9lpcqNMt1tcTrcSYlHlgYcYXDdRtHPAr6G/Zw+MjfFjwe8Osyp/wkeilINQCrt89SD5dwAOBv2sCB0ZWwApWvDf22pIJ/HXh2a3mjkH9kupKMDjEx9PrXnv7O3jSbwT8XtBvPMK2uqTjR7xc4DR3DBVJJ6BZfKcn0U+tAFv9qK4kuPjx4pWRyywGyijH91fscLY/wC+mY/jXllenftN/wDJefF3/Xaz/wDSK3rzGgAooooA7r4H+A7T4kfE/RvC+phjpzM91fKrEF4IlLFMgggOwVCQQQHJHIr9GLS0tdPtYbGxtYra2to1hhhhQIkaKMKqqOFAAAAHAAr4Y/Y+/wCS1Qf9gu7/APZK+7aACiiigAooooAKKKKACiiigArL8TeGtE8YaDe+GvEWnx3mn38RimicfkynqrKcFWHKkAjBFalFAH5eeLfD83hLxVrHha4mMz6Rfz2XmkY80RuVV8DpuADY96yq7f44f8li8Y/9hef+YriKACiiigAooooAKKKKACiiigAooooAKKKKACiiigAooooAKKKKACiiigAooooAKKKKACiiigAooooAayq6lGGQwwa9S/4af+Pf/RRJQPT+yrD/AOMV5fRQB6a/7THx4k+98Rrn/gOn2a/yhqqf2kPjXOcD4l3zH/Yhtx/KOvOZv9S/+6a/UXwjIZvCmizE5L6fbNn1zGpoA/P/AP4Xp8crj7vj/Xnz/wA80X/2VKX/AIWt8e7j7vjHxe2f+efmj/0Fa/RWigD86f8AhOv2grj7viTx+2f7j3Y/kKP7d/aKuPu6x8T3/wCuc2pD/wBBNfotRQB+dq3H7S0wwtx8WpAfR9VamyWH7SMv+ssPiu/+9Dqh/mK/RSigD86f+EW/aGuPvaF8SWz/AM9Ir/8A9mo/4V18f7j73hXxy2f+ei3I/wDQjX6LUUAfnT/wp3473H3vBPihs/8APQt/7M1H/DP/AMcLj73w71hs/wDPSSIf+hPX6LUUAflRfaV9hvbiwv7FIrq1meCeNlBKSIxVlOOMggj8Kh+y23/PvF/3wK6X4iJ5fxE8WR/3Nf1FfyupBXP0ANWOOPiNFXPoMVNbXEtpcw3cDbZYJFlRvRlIIP5io6KAPTv2m/8AkvPi7/rtZ/8ApFb15jXp37Tf/JefF3/Xaz/9IrevMaACiiigD2v9j/8A5LVB/wBgu7/9kr7tr4S/Y/8A+S1Qf9gu7/8AZK+7aACiiigAooooAKKKKACiiigAooooA/N744f8li8Y/wDYXn/mK4iu3+OH/JYvGP8A2F5/5iuIoAKKKKACiiigAooooAKKKKACiiigAooooAKKKKACiiigAooooAKKKKACiiigAooooAKKKKACiiigAooooAbIN0bL6g1+gHg/48/B/T/B+hWeofELR4rmDTbWOaMzZZHEShlIA6g5FfANFAH6HyftH/BCP73xE00/7qyN/Jagf9pz4Fx/e+IFsf8AdtLhv5R18DeH9L/t3xBpWhG5+zjU763svO8vf5XmyKm/bkbsbs4yM4xkda+m0/YUb/lp8VM/7uh4/ncGgD1Z/wBqj4DR/e8d5/3dLvW/lDUf/DV/wE/6HeY/9wa//wDjNeap+wvZf8tPiZcn/d0pR/7VNTp+wzof/LT4i6i3+7Yxj/2Y0Ad8/wC1p8CV+74ru3/3dJu/6xioH/a9+CK/d1rUn/3dLn/qorj0/Yb8J/8ALTx7rR/3YIR/MGp0/Yd8Cf8ALTxr4jb/AHfs4/nGaAOhk/bG+DK/dudaf/d01v6kVXf9s74QL9238Qv/ALtgv9XFZyfsQfDX/lp4t8WH/dmtR/OA09f2IfhcDz4o8YH2N1af0t6AJ3/bW+E6/d0fxQ/+7Zw/1mFQt+278LVPy+F/F7e4tbX+txXM/FT9lP4d+Bfhzr3izSdW8RT3umWhnhW5uoWjLAgfMFiUkcnvXylQBr+MNYtvEXjDX/EVlFLFbatq15fwxzACRI5p3kVWAJAYBgDgkZzgnrWRRRQAUUUUAenftN/8l58Xf9drP/0it68xr079pv8A5Lz4u/67Wf8A6RW9eY0AFFFFAHsn7I95b2vxu06GaQK15Y3lvD/tP5fmY/75jY/hX3pX5Y6TqupaHqlprWj3j2t9YTpcW06YzHIhypweDyOQQQRkEEGvsHwP+2l4J1DTYovH2l3ujakigTS2sDXFpKf7ybSZFzydrKcZA3N1oA+jaK8a/wCGuvgb/wBDFf8A/gquf/iKP+Guvgb/ANDFf/8Agquf/iKAPZaK8a/4a6+Bv/QxX/8A4Krn/wCIo/4a6+Bv/QxX/wD4Krn/AOIoA9lorxr/AIa6+Bv/AEMV/wD+Cq5/+Io/4a6+Bv8A0MV//wCCq5/+IoA9lorxr/hrr4G/9DFf/wDgquf/AIij/hrr4G/9DFf/APgquf8A4igD2WivGv8Ahrr4G/8AQxX/AP4Krn/4ivPfil+2Vpc2j3GjfC2xvTe3KNH/AGreRCJLcEY3xRklnfrjeFAODhvu0AfP3xkvLfUPi14wurVw8R1q6RWHQlJChx6jKmuPpPxJ9yck0tABRRRQAUUUUAFFFFABRRRQAUUVteFfBPjDxxcfZfB/hnUdXYNsd7aEmKNvR5ThE/4EwoAxaK+gPC/7F3xK1ZUm8TazpHh+JxzGC15cJ9UTbH+Uhr07RP2JPh7Zqj694n17U5V+8sTRW0Lf8BCM4/77oA+MaK/QGx/ZZ+BVhhl8Di4cdWuNQupc/wDAWk2/kK2YfgJ8GIV2r8M/D7Y/56WaufzbNAH5y0V+jM3wB+C9wu1/hpoKj/pnaiM/muKw9Q/ZT+Bd8GK+DpLSRv47bUrpMfRfMK/pQB8BUV9j65+xB4JulZvDfjLW9OlboLpIrqJfooEbfm9eXeKf2N/itom+bw/PpXiKFfurBN9muG9ykuEH4SGgDwmitLxD4Z8SeErwaf4p0HUNJuGzsjvLdovMx1KFhhx7qSKzaACiiigAooooAKKKKACiiigAooooAKKKKANjwW/l+NPDsn9zWLJvynQ1+oFflbY3k2n31tqFttE1pMk8e4ZG9GDLkdxkCvY5P2vvjW+duoaMn+7po/qxoA+76K+BZv2vPjSG2t4m0yI+n9nw/wBc1XP7Wnxum/1Xja1H/XPTbU/zQ0AfoFRX5+/8NN/tBT/6nxxcf9s9Hsz/ADgNSL+0P+0lMMR+LtUf/d0K0/pb0Aff1FfAX/C6v2mrrhPEHiV8/wDPPRIv/ZYKx5f2gvjcWZJfiNqyspKsvlxKQR1BAQYNAH2t8fk8z4L+Ml9NJnb8hn+lfnNXY6t8ZPirrun3Ok6x4+1e7sryNobiCSQbJEYYKkADgiuOoAKKKKACiiigD079pv8A5Lz4u/67Wf8A6RW9eY16d+03/wAl58Xf9drP/wBIrevMaACiiigAooooAKKKKACiiigAooooAKKKKACiiigAooooAKKKKACiiigAooqaxsr3Ur2DTdNs57u7upBFBbwRl5JXPRVUck/SgCGu5+GvwW+IPxUmDeGNH2acGKyapeExWiEZyA2CZCCMYQNg4zt619AfBv8AY/s7BYPEXxbSO8u+JItEjkDW8Xf/AEh14lbp8iny+CCZAePpu3t7ezt4rS0gjhghQRxxxqFREAwFUDgAAYAFAHhvw9/ZD+HPhTyr7xVv8VaimGP2tNlmp9rcEhh6iQuPYV7hZ2dpp9rFZWFrDbW8KhI4YYwiIo6BVHAH0qaigAooooAKKKKACiiigAooooAqarpGk67YyaXrel2moWcwxJb3UKyxOPdWBB/EV4H8RP2NfBevLLf+Ab6Xw5fHLC2fdPZSHk42k748nAyrFQOiGvoeigD80fiB8LvHPwxvxY+MdDkto5G2QXkZ8y1uDz9yUDGcAna218clRXK1+p2qaVpmuafPpOtafbX9lcrsmt7mJZI5F9GVgQR9a+T/AIzfshXGmxz+JPhKst1bIDJNoksheVB3Nu7cuMf8s2O7g7WYkJQB8w0Uro8cjxSRskkbFHR1KsrA4KkHkEEEEHpikoAKKKKACiiigAooooAKKKKACiiigD7w/ZDfd8EdNX+5e3q/+R2P9a9or5p/Ze+KXw78J/CeDSPFHjTR9MvY7+6f7PdXSJIEZ8htpOcHNeqv+0D8FY/vfErQz/u3G7+VAHoNFebv+0b8EY/vfEXTD/uiRv5LVeT9pr4Fx/e+IFqf921uG/lHQB6hX5deKk8vxVrcf9zU7tfymevu5/2p/gNH97x3n/d0y8b+UNfCPiq8tNQ8Va3qGnzeba3Wp3c9vJtZd8TzOyNhgCMqQcEAjPNAGZRRRQAUUUUAFFFFAHp37Tf/ACXnxd/12s//AEit68xr079pv/kvPi7/AK7Wf/pFb15jQAUUUUAFFFFABRRRQAUUUUAFFFFABRRRQAUUUUAFFFFABRRRQAUUVd0TRdW8SaxZ+H9BsZL3UdQmEFtbx9ZHPueAAASWOAoBJIAJoAn8L+F9e8Z69a+GvDOnSXuo3jbY4l4AA+87N0VFHJY8D64FfePwR+Afh34Q6aLuRYtS8S3MeLzUmT7gPWGAHlIx3P3nIy3AVVsfA/4KaP8AB/w95OYrzXr5VbUr9V+8eoijzyIl7dCxyx5OB6XQAUUUUAFFFFABRVTVNW0rQ7GTU9a1K00+zhGZLi6mWKNB7sxAH4mvIPFP7XXwd8Os8Gn6hf8AiCdCVK6Za5QH/rpKURh7qWoA9qor5J1j9ubUnLR+H/hzbxAH5Zb3Umcke8aRjH/fZrmpv21vi0zHydD8JRoegazuWI/H7QB+lAH23RXxJF+2t8WlYedonhKRR1AsrlSfx+0HH5V0mkftzapGVTX/AIc2swJ+aSz1JoyB7I8bZ/77FAH1vRXifhf9rz4PeIHSDUrzUfD8zkKBqVr+7J/66RF1Ue7la9g0nWNI16xj1TQ9Vs9Rs5f9XcWk6zRP9GUkH86ALlFFFABRRRQB4j8fP2b9J+J0MvibwukGneKo05fG2HUABwk2Oj44WTrjAbIC7fh7VNL1LRNSutH1ixmsr+ykMNxbzLteJx2I/IgjgggjIINfqfXi/wC0T8A7X4qaSdf8PQxQeK9PixA5IRb6IZPkSE8A9djH7pOCQpOAD4Pop9xb3FncTWd5by29xbyNDNDKhR4pFJDIynlWBBBB5BBplABRRRQAUUUUAFFFFABRRRQAVreE/CuueNvEVn4V8N2q3OpX5kEETSrGG2RtI3zMQB8qMefSsmvUP2Yf+S+eEf8Arpe/+kFxQBop+yX8cG+94esE/wB7Uof6E1m+Lv2b/il4H8NXvizxFY6bFp+nqjTGO+Ej4Z1QYUDnlh3r9Ca8y/aWTzPgb4sX0tY2/KaM/wBKAPz0ooooAKKKKACiiigAooooA9O/ab/5Lz4u/wCu1n/6RW9eY16d+03/AMl58Xf9drP/ANIrevMaACiiigAooooAKKKKACiiigAooooAKKKKACiiigAooooAKKKKAEZgqlmIAHJPpX21+yr8El8E6CvjzxNZFfEOswg28Ug+axs2wVXHaR+GbPIG1cAhs+E/sv8AwoX4kePBqur2ok0Lw40d1dK65W4nJJhhIPVcqXYcjCBSMOK+9aACiiigAoormviB8QvC/wAM/Ds3ibxVfeTbxnZDFGA01zKQSsUS5G5zg9wAASxCgkAG5qGpafpFjPqerX1vZWdshkmuLiVY44lHVmZiAo9zXzD8Uv2zoIGm0f4UactywyraxfRsIx7wwnDN7M+0ZH3GBzXh3xc+NnjD4valu1eY2WjwSb7PSYZCYYvR5Dx5smP4iMDnaFyc+f0Aa/ijxf4q8bah/a3i/wAQXur3QJKtcyZWPPURoMJGPZAB7VkUUUAFFFFABRRRQAVq+GfFnifwXqP9reEtevdIuzjdJaylRIByBIn3ZFz/AAuCPasqigD6t+Fv7Zys0Wj/ABY08R5wq6xYREr25mgGSO5LR55I+RRzX1Dpeqabrenwato2oW19ZXSeZDcW8qyRyL6qykgj6V+WNd58J/jR4w+EOqC40S4N3pU0m+90maQiCfoCynB8qTAHzqOw3BgAKAP0corl/h18SPC3xQ8Ox+I/Ct4ZIifLuLeQBZ7WXGTHKoJ2sPYkEYIJBBrqKACiiigD5Z/a6+Caz28vxc8L2Z8+BQNdgjX78QAC3QA5ygAD/wCxhuNjE/JtfqpcW8F1BJa3UMc0MyGOSORQyupGCpB4II4INfnX8cvhfJ8J/iBd6DAjnSbofbNJkbJzbsT+7JOctGwKHJyQFY43UAef0UUUAFFFFABRXW+AvhT46+Jwvj4J0mK/OmmMXStdxQmPzN2w4dhkHY3T+6ayPFfhXXvBHiC68L+JrH7HqVls86LzFkA3orqQykqwKsOh9R1BoAyaKfb2813cRWltG0k08ixRovV3YgKo9ySBXf8Ai34A/FjwN4fuvFHibwzHa6ZZGMTzLfQSld8ixr8qOWPzOo4HGcnigDz2up+F3jSL4d/EDRvG02nyXyaU8ztbxyBGk3wSRcMQQMeZnp2rlq7HwH8IPiF8TLW7vvBegrfQWMqwzu11FCFcruCjewzxg8eooA+gX/bosR/q/hnct/vaqo/lEa5X4j/tdD4geCdX8G/8K7Nkuq2/k/aTq3meV8wIbZ5I3dOmRXj1p8NfGV946f4a2emxS+IY5JIWtVuotodIzI6+Zu2ZCg9+oI612X/DKvx2/wChOh/8Glr/APHKAPJqK7vxr8D/AInfDvRR4g8XeH47KwMyW/mLewyne2do2oxPY9qzfAfwx8bfEy4vbXwXpKX0mnpHJcK1zHDsVywU/vGGc7W6elAHLUV6z/wyr8dv+hOh/wDBpa//AByj/hlX47f9CdD/AODS1/8AjlAHk1Fd34q+B/xO8EyaVF4l8PxWra3fR6dYgX0EnmXD8Kp2sdoPqcCt7/hlX47f9CdD/wCDS1/+OUAeTUV6Xrv7N/xj8N6LfeINa8LQwWGm28l1cyjUbdtkaKWY7Vck8A8DmvNKAPTv2m/+S8+Lv+u1n/6RW9eY16d+03/yXnxd/wBdrP8A9IrevMaACiiigAooooAKKKKACiiigAooooAKKKKACiiigAooooAKTn+FWY9lUZJ9gO5pa9S/Zn8Er44+L2kxXUPmWWig6xdA9D5JXyh6HMzREjuoagD7I+Bvw5T4YfDfS/DssarqMq/bdUYfxXcgBcZHBCALGD3WNTXfUUUAFFFFAGJ408YaF4B8M33izxJdGGxsI977Rl5GJwsaDI3OzEKB6kdOtfnl8VPih4i+LPimTxHrreTDHuj0+wV90VlAT9xem5jgF3wCxA6KFVe6/ai+L8nxE8ZN4a0e6LeHfDszRRbGyl1djKyT8cEL8yIeeN7A4fA8VoAKKKKACiiigAooooAKKKKACiiigAooooA6v4Z/ErxF8KvFEPibw9JvHEd7Zu5EV7BnJjfrgjkq+CVPPILKf0P8D+NtA+Ifhiy8WeGrky2V4udrjEkLjh45FBO11OQRkjuCQQT+Ytexfsy/GCT4aeNE0XV7sp4c8QSpDdh2wlrcHCx3HPCjojnj5SGOfLAoA+9qKKKACvGv2qPhyvjr4Z3GrWVvv1Xwzv1K2IHzPCB/pEQ78oNwA5LRoK9lpGVWUqygg8EHvQB+U/WlrrPix4L/AOFe/EbXvCMcZS2s7ovZ/wDXrIBJCM98I6qT6qa5OgAooooA9z/Y58Uf2L8Wm0OWRhD4h0+a3Vexni/fIT9ESYf8Cra/bb8N/YfHGg+Ko1wmr6c9pJgf8tbd85PuVnUfRPavC/BfiRvB3jDRPFaswGk6hBdyberRK4Mi/wDAk3L+NfZX7Ynh1dd+EA123w76FqFvehl5LRSEwsAfT96rH/coA+Yf2efDf/CU/GbwvYvGWhs7v+0piP4RbqZVJ9jIsa/8Cr7v+InhtPGvgPxF4Uj2NLqOnz2seT9yZoyY2PoQ2xufavmX9h7w39o8QeJvGEsZAs7SHTYG7MZX8yQfUCKL/vuvTPgb8Sv+Es+LHxU0R5wYk1SO6sV3ZDJCos5GX2It4G/4HQB8Lo25FbaRkZwe1fd37Lmk2vgr4D2+vakTbrqD3et3bN0WMfKrfQwwxt+NfJHxf8I3Xh/4u+JfCen24MsmrMbKFem25IlhQfQSov4V9d/H68tfhp+zrdeG9Om2hrC18N2gbjfGyrE4/wC/Cyn8KAPjfw/8SvEfh74gP8T9NS1/tia6u70rcRmSISXIfzMgFScea2OR2+lfcf7PPxE8RfE74ejxN4nWzF79unt/9FiMabE244LMc8nvX56V9yfsbf8AJHB/2Frv/wBloA+d/jN8dvHfjttW8C68mlDTLHWJfJNvaukv7mV0TLFyDx14/KvQP2Gf+Q94w/687L/0Oavnvxp/yOniL/sMX3/pQ9fQn7DP/Ie8Yf8AXnZf+hzUAdR8bP2nvGPwy+Il74P0fw/o11a20EEqy3Pm+YS6BjnawHX2rhP+G3PiJ/0Kfhz/AMj/APxdem/F/wDZXvfil47u/GUPjqDTEuoYYvszaWZivloFzvEy5z16Vxf/AAwrqX/RUrb/AMEbf/JFAHmnxG/aP8YfEg6FJqWi6RZSeHtSj1W1a3WQ7pU+6HDMcrnqBg+9fRX7MPxo8afFyfxRH4uXTANIWxa2+x27Rf643G/duds/6pcdO9fInxM8DyfDfx3qvgeTVF1JtLMAN0sHkiTzII5fubmxjzNv3jnGeM4r6A/YT/4+vHf/AFz0r+d3QBn/ALSHx68eab4y8YfCi1XSf7Ce3isyXtWNx5c9pE7/AD78ZzI2Dt44618016j+1B/yXzxb/v2P/pDb15dQB6d+03/yXnxd/wBdrP8A9IrevMa9O/ab/wCS8+Lv+u1n/wCkVvXmNABRRRQAUUUUAFFFFABRRRQAUUUUAFFFFABRRRQAUUUUAFfYP7EPhdbTwr4h8YzR4k1O+SxhLD/llAm4sp9C8zA/9cx6V8fV+iP7OuhroHwT8JWoHNzYDUGPcm5Zp+fwkA/CgD0eiiigAryr9pT4kS/Dn4Y3k+m3Jh1fWG/szT2VsPGzqS8owcgpGHIPZ9gPWvVa+H/2yPGDa98UIfDEMhNt4as1iK+lzOFlkPv+78gexBoA8GVVRQqqAFGAPSloooAKKKKACiiigAooooAKKKKACiiigAooooAKRlDKVYZB4IpaKAPvv9mH4jyfEH4Y20OpXJl1bQG/s28Zmy8qqoMUpycndGQCx6uj167Xwx+x94wfw78Vv+EellK2via0e2Zc4X7RCGliY/RRMo95BX3PQAUUUUAfIX7cHhdbfX/DfjSGM4vrWXTbhscBom8yL6kiSX8EFfMlfdX7YWiLqnwYudRxltF1G0vV/wCBP5B/Scn8K+FaACiiigBCNwKnoa++vhvIvxe/Zqs9JuJAZ9Q0KbRZnY5KzxK1uJD7lkEn4g18DV9c/sO+JvO0PxN4Nmf5rK7i1KAE8lZk2OAPRWhU/WT3oA2/2f1/4Vf+zNfeNry3aK5miv8AXJIZBglkUxxJz/eWGPA9WrwD9l3xM/hv41aGbi4xHrCTaVcSMcljKu5PqTNHF+dfRn7XetW/hn4Mjw7YRpANZvrbT444/l2RITM2AO37kKf9/wB6+JtM1S70PU7LXNP4utNuYr239pInDr+qigD7I+Jnw2/tf9qj4f64IP8ARLy2a8uGUdJdPJkVz9Wktl/CuX/bj8UbpvC/gmGbhfO1a5j9D/qoW/W4FfT+my6TrsGneKLNEmE9nvtLjHPkTBHOPZtsZP8Auivgb9pXxR/wlPxo8QzRzeZb6XImkwf7IgXEi/8Af4zfnQB5jX3J+xt/yRwf9ha7/wDZa+L/AAx4X1/xprlt4a8L6ab/AFO83+RbiWOPfsQu3zSMqjCqx5I6etfdn7MvgnxV4B+GY0HxhpDabqH9o3E/ktPFL8jbdp3RMy84PGc0AfC/jT/kdPEX/YYvv/Sh6+hP2Gf+Q94w/wCvOy/9Dmryv4sfCH4keENS1nxd4k8LvZaPeaxceTdG8tpA/myu0fyJIzjI55XjvivVP2Gf+Q94w/687L/0OagCt+0h8ZPih4P+LWo6D4Y8ZXmnafDbWrx28cULKrNGCxyyE8n3rzH/AIaK+OH/AEUfUP8Avxb/APxutz9rT/kuGq/9edn/AOihXj1AGh4h8Ra34s1q58ReI9Qkv9SvNnn3EiqrSbEVFyFAHCoo4Havpb9hP/j68d/9c9K/nd18wWFjd6pf2ul2EPnXV7PHbQR7gu+R2CouWIAyxAySBzzX2T+yX8LfiB8NrjxbJ448ONpS6kmni13XVvN5vlm53/6qR8Y8xOuM7uM4OADwD9qD/kvni3/fsf8A0ht68ur6C/aV+D/xKvviP4v+Iln4WeTw4sUF0199stgBFFZwrI3lmQScMjjG3JxwDkV8+0AenftN/wDJefF3/Xaz/wDSK3rzGvTv2m/+S8+Lv+u1n/6RW9eY0AFFFFABRRRQAUUUUAFFFFABRRRQAUUUUAFFFFABRRRQBHO22GRvRSf0r9S/Demrovh7S9HVdq2FlBbAegSML/Svy2ZFkUxt0f5T9DxX6tUAFFFFABX5iePtebxR468ReIvMLrqOqXVxGSc4iMjeWPwTaPwr9Lddvm0zQ9R1JeDaWss4/wCAoW/pX5Y267beNfRAP0oAkooooAKKKKACiiigAooooAKKKKACiiigAooooAKKKKANbwjrx8LeLdE8Tbio0nUra8bnGUjkVmB9ioIPsTX6hV+Uky7oXX1Uiv1E8IX7ap4T0TVJG3NeadbXDH1LxK39aANeiiigDhPjvYR6l8GfGkEgyI9FurkfWKMyj9UFfnFX6ZfFCNZvhr4tib7r6Hfqfobd6/Mxfuj6UALRRRQAV1nwz+J3iX4T+IJvEvheKwlup7R7KSO+ieSJo2dHztR0O4GNcHPc+tcnRQB33xU+NnjL4w/2Wviq30m3TSfOMCadDLErmXZkuJJHyR5YxjGNzdc8cDRRQB7N4U/ay+KXg/w1pnhXTdP8NXFppNslnbyXdncPL5SDagYrOoOAAOFHAFeP3t5c6jfXOo3khluLuZ7iZz1eR2LM34kk1DRQBv8AgPxtrHw68V2PjLQYbOW/0/zfKS8jZ4j5kbRtuVGVj8rnGGHOPpXrn/Da3xf/AOgN4P8A/AC6/wDkmvBKKAPUfiT+0b4++KnhweF/E2neH4bMXEd1usbWeOXemccvM4x8xzxWN8LPjF4r+D91qV54Vs9JuJNUjijm/tCCWQKIyxXb5ciY++c5z0HSuHooA6P4g+Pdb+Jfii48XeIbexhvrmOOJ0so3SLCLtGA7uc46/NXOUUUAW9H1O40XWLDWrRInn066hvIllBKM8Th1DAEErlRnBBx3Fe4f8NrfF//AKA3g/8A8ALr/wCSa8EooA9o8UftafE/xd4b1Pwtquk+Fks9WtJbOdreyuFkVJFKkqWuCA2DxkEexrxeiigD079pv/kvPi7/AK7Wf/pFb15jXp37Tf8AyXnxd/12s/8A0it68xoAKKKKACiiigAooooAKKKKACiiigAooooAKKKKACiiigCO4ZlgkZeGCkj64r9WYZY54UmibKSKGU+oPIr8qGXcpX1GK/TH4W6t/b3w08KawzBnu9Gs5ZMdnMK7x+DZH4UAdTRRRQBj+MIWuPCOuW8fLS6bcov1MTCvy8h5hQ/7Ir9WXRZEaORQysCrA9wa/LDUNMn0TULvRbrPnadcS2cmeu+NyjfqpoAgooooAKKKKACiiigAooooAKKKKACiiigAooooAKKKKAGyHEbH0Br9Ofh3C1t8P/DNvJw0Wj2SN9RAgr8y4LK41K4i02zXdPeSLbxD1dyFUfmRX6oWtvFZ20VpAu2OCNY0HooGB+goAlooooA5L4u3H2X4UeM7kdY/D+osPr9nfH61+aY4AHpX6E/tNar/AGR8DvFMythrmCKyUdz500cZ/wDHXJ+gNfnvQAUUUUAFFFFABRRRQAUUUUAFFFFABRRRQAUUUUAFFFFABRRRQB6d+03/AMl58Xf9drP/ANIrevMa9O/ab/5Lz4u/67Wf/pFb15jQAUUUUAFFFFABRRRQAUUUUAFFFFABRRRQAUUUUAFFFFABX3d+yH4iXWvgzZ6ezlpdDvbnT5M9cF/OT8Akyj/gNfCNfR/7E/jBdN8Ya34KuZcR6zaLeWwZuPPgJDKo9WSTJ9oaAPsmiiigAr89f2lvCzeFPjR4ghWHZb6q66vb/wC2s4zI3/f5Zh+FfoVXzZ+2p4DbVPC+l/EKxhzNocv2S92jrazMArE9Tsl2gD/pqx7UAfHVFFFABRRRQAUUUUAFFFFABRRRQAUUUUAFFFFABRRRQB6R+zr4Wfxb8ZfDdmY2aDT7j+1rhh/Atv8AOhPsZREv/Aq/RCvmT9ijwG1joWrfEa+t8SatJ/Z+nsw5+zxN+9ZT6NL8p94K+m6ACiiigD5v/be8QrZ+CdA8LpIVl1XU2umH96G3jIYH/gc0R/Cvjevaf2uPF6+Jvi7PpVvLutfDlrHp64bKmZv3krD3+dEPvFXi1ABRRRQAUUUUAFFFFABRRRQAUUUUAFFFFABRRRQAUUUUAFFFFAHp37Tf/JefF3/Xaz/9IrevMa9O/ab/AOS8+Lv+u1n/AOkVvXmNABRRRQAUUUUAFFFFABRRRQAUUUUAFFFFABRRRQAUUUUAFbXgnxZe+BfF+j+MdPV2m0m7S4KKcGWP7ssee2+NnT/gVYtFAH6naXqVjrWm2msaXcpcWd9BHc28yfdkidQysPYgg/jVqvm39jT4mrrHhy6+GeqXGb3QwbrT9x5ksnb5lHr5cjY/3ZIwPumvpKgAqjrmi6b4j0a+0DWLcXFjqNvJa3ER43xupVhkcjg9R0q9RQB+ZfxF8C6r8NfGWpeDtX3O9lJm3nK4FzbtkxTDt8y9QM4YMvVTXN198/tG/BNfix4ZS+0SGJfE2jqz2LswT7TGeXtmY8YbGVJ4Vh1AZs/BM0M9rPLa3VvLBPBI0UsUqFHjdSQysp5VgQQQeQQaAGUUUUAFFFFABRRRQAUUUUAFFFFABRRRQAVv+AfBOr/EXxdpvg7RVIuNQlw823K28I5kmb2VcnGRk7VHLCsGOOSaRIYYZJZZWEcccalndicKqqOSSSAAOSTX3l+zZ8Ef+FV+HH1jX4Yz4n1mNWusYb7HD1W2VvUHlyOC2BlgimgD1Tw7oOl+FdB0/wAN6Lb+TY6Zbx2tunUhEUAZPcnGSe5JNaNFFABWF468Xaf4D8H6t4w1TBt9LtXn2bsGV+iRg/3ncqg92FbtfI/7aHxNF5f2Xwr0q4zHZFNQ1baespXMEJ+inzCD/eiPagD5m1DUL7VtQutW1Obzry/nkurmT+/LIxd2/FiTUFFFABRRRQAUUUUAFFFFABRRRQAUUUUAFFFFABRRRQAUUUUAFFFFAHp37Tf/ACXnxd/12s//AEit68xr079pv/kvPi7/AK7Wf/pFb15jQAUUUUAFFFFABRRRQAUUUUAFFFFABRRRQAUUUUAFFFFABRRRQBseDfFmseBfFGm+LtBkC3umTCZFY/JKuCHjb/ZdSynvg5HIFfpF4H8Z6L8QfCun+LvD8xez1CLeFb78Tjh43A6MrAqe2RxkYNfmLXr37Onxuk+E3iRtN1uaVvC2ryD7aoy32SbAVblVHXAAVwOSoBGSiqQD76oqO3ube8t4ryzuI54J0WSKWNgyOjDIZSOCCCCCKkoAK+ff2jP2bV8fed448DQRReJUT/SrXIRNSVRgcnhZgAAGPDABWIwGX6CooA/Ku5trqyuprG+tZra5tpGhmhmjKSRSKcMrKwBVgeCDyKjr9A/jJ+zz4Q+LUTalxpHiJFCxapDHu8wAYCTpkCVcYwchhgYbGQfir4ifCfx18Lb77L4u0Zord32QahATJaXHXG2TAwTg/I4VuM4xzQByNFFFABRRRQAUUUUAFFFFABT4YZ7qeK1tbeWeeeRYoYYkLvI7HCqqjlmJIAA5JNdR8Pfhb44+KGofYfB+jPPEj7Li+mzHaW/TO+XB5GQdqhnxyFNfafwZ/Z18J/CZI9WmYax4kZCr6lNHhYQwwVgTnyxg4LZLHJycHaADj/2cf2a/+ELaDx54+to318rusrEkMunAj7zEcNMQcccLk4yea+iqKKACiiqOt63pPhvSbvXtcvorKwsYmmuJ5DhUQdT6k+gHJJAHNAHMfF74maZ8KPBN54ovgstz/wAe+n2pOPtN0wOxP90YLMR0VWIycA/nLqmqahrepXetavdPdX1/O9zczN1kkdizNgcDk9BwOg4rt/jZ8XNR+L/jB9YdZbfSLLdBpNnIeYoiRmRwDjzHIBbHQBVyduT5/QAUUUUAFFFFABRRRQAUUUUAFFFFABRRRQAUUUUAFFFFABRRRQAUUUUAenftN/8AJefF3/Xaz/8ASK3rzGvTv2m/+S8+Lv8ArtZ/+kVvXmNABRRRQAUUUUAFFFFABRRRQAUUUUAFFFFABRRRQAUUUUAFFFFABRRRQB9Afs3/ALRjeAZIfA3ji6ZvDcr4s7xuTprk/dbuYST/AMAJz90nb9qwzQ3EMdxbypLFKoeORGDKykZBBHBBHevyqr2j4E/tI618K2j8OeII5tV8LM3ywq2Z7Anq0OThk9Yzgd1KncHAPvCisrwz4o8PeMtGg8QeF9Wt9S0+5GY5oWyM91YHlWHQqwDA8EA1q0AFQX1jY6nZzafqVnBd2twhjmgnjEkcinqrKwIIPoanooA8C8efsc/DvxI0l74RvLnwveOd3lwr59mSeT+5Yhl9gjqo/u14T4o/ZL+Mnh1mfT9LsvEFuMnzNOulDhf9qObYc+y7q+86KAPzA1jwX4z8O5/4SDwfrmmqP4rrTpolP0ZlAI9wawftNuelxGf+BCv1dqC4sbG6/wCPqzgm/wCukYb+YoA/Kk3NuOtxGP8AgQrc0fwb4w8Q4/sDwjrepBv4rTT5pV/FlUgD3Jr9ObewsbTm1soIT/0zjVf5CrFAHwT4X/ZN+M3iJle+0ez0C3bB8zUrpdxXviOLe2fZtte6+A/2Nfh/4eaO98Y3914nu0O7ynH2ezB6j90pLN7hnKn+7X0DRQBX0/T9P0myh03S7G3s7S3URw29vEsccajoqqoAA9hViiigAoornfHXj/wp8ONCk8QeLdVjs7ZfljT70txJ2jiQcux9B0GScAEgA2NU1TTdE0651fWL6CzsrSMzT3EzhEjQclmJ4Ar4S/aC+P178WtS/sXQ2mtfCljLugjYFXvpB0nlHUKP4EPT7zfNgJm/Gr49eJPjBqH2VlfTPDltJutdMV8lyOks5HDv3AHyp0GTl28woAKKKKACiiigAooooAKKKKACiiigAooooAKKKKACiiigAooooAKKKKACiiigD079pv8A5Lz4u/67Wf8A6RW9eY16d+03/wAl58Xf9drP/wBIrevMaACiiigAooooAKKKKACiiigAooooAKKKKACiiigAooooAKKKKACiiigAooooA6bwB8SvGXwx1Y6x4P1d7VpCv2i2ky9tdAdFljyA3cBhhgCdrDJr7B+Fn7V/gPxwsOl+KZI/DGtNhdl1KPsk7f8ATOc4Ck8fK+05IC7+tfDFJ14PIoA/Vmivzj+H3xy+JnwzWO18OeInl06Pppt+DcWoH91VJDRjnOI2XPfNfRfgv9tfwfqIjtfHnh+90Oc4DXVpm7tvdiABKv8AuhH+tAH0jRXNeFfiV4A8bKv/AAinjDStSkZd3kQ3K+co/wBqI4dfxArpaACiiigAooooAKKK5DxZ8Xfhn4H8xPFHjbS7OeL71qJvNuR/2xj3SH/vmgDr6jnnhtYZLm5mSKGJTJJJIwVUUDJYk8AAd6+ZPG37bmj26yWvw98K3F9Lyq3uqN5MIPZhEhLuPZjGa+dPHvxa+IXxMkP/AAl/iS4ubXduSwi/c2iEHIxEvDEdmfcw9aAPqT4qftgeFPDIl0n4dRw+JNTXKm8JP9nwnn+IEGftwhCkH7+Rivkbxd4y8UePNafxB4u1q41K9cbVeQ4WJOuyNBhY19lA5yTkkmsaigAooooAKKKKACiiigAooooAKKKKACiiigAooooAKKKKACiiigAooooAKKKKACiiigD079pv/kvPi7/rtZ/+kVvXmNenftN/8l58Xf8AXaz/APSK3rzGgAooooAKKKKACiiigAooooAKKKKACiiigAooooAKKKKACiiigAooooAKKKKACiiigAooooAa0aPjeitj1FdVofxS+JfhsIuiePtftY4+Fh+3ySRL9I3JT9K5eigD1rT/ANqz46WOPN8XQXwHQXWm2/8AONEJ/OtuH9s74xRrhrXwvL7yafNn/wAdmFeFUUAe5z/tl/GSZdqQeGYPePT5c/8Aj0xrC1D9qb46X+QvjRLNG4K2unWw/Vo2Yfga8pooA6DXfiJ4/wDEyvH4h8b67qEUn3oZtQlMJ/7Zg7P0rnVRI12xoqj0AxTqKACiiigAooooAKKKKACiiigAooooAKKKKACiiigAooooAKKKKACiiigAooooAKKKKACiiigAooooA9O/ab/5Lz4u/wCu1n/6RW9eY16d+03/AMl58Xf9drP/ANIrevMaACiiigAooooAKKKKACiiigAooooAKKKKACiiigAooooAKKKKACiiigAooooAKKKKACiiigAooooAKKKKACiiigAooooAKKKKACiiigAooooAKKKKACiiigAooooAKKKKACiiigAooooAKKKKACiiigAooooAKKKKACiiigD1j9qixns/jt4jmmXal6llcxe6fZYoyf8AvqNvyryevq/9trwHNLHonxKsoWdbZf7J1Bhk7EZi9ux9FDtKpJ7yIK+UKACiiigAooooAKKKKACiiigAooooAKKKKACiiigAooooAKKKKACiiigAooooAKKKKACiiigAooooAKKKKACiiigAooooAKKKKACiiigAooooAKKKKACiiigAooooAKKKKACiiigAooooAKKKKACiiigAooooAKKKKACrGm2M2qalaaXbqTNe3EdtGPVnYKP1IqvXrf7LvgObxt8WdOvZIC2neGiurXT4OBIp/wBHTPZjKA4B6rE9AH3X4k8PaT4s0G/8Na9aLc2GpQNbzxnurDqD/CwOCGHIIBHIr86/iv8AC3X/AIS+KpfDusq01tLul06/C4S8gB+8OwdcgOn8JI6qys36TVznj74f+F/iV4dm8M+K9PFxbSfPFIp2zW0oBCyxP/C4yfYgkEFSQQD8yqK9S+Lv7PHjj4UyzagYX1nw8vzLqlrGf3K+lwgyYiP73KHI+YE7R5ZnPI5FAC0UUUAFFFFABRRRQAUUUUAFFFFABRRRQAUUUUAFFFFABRRRQAUUUUAFFFFABRRRQAUUUUAFFFFABRRRQAUUUUAFFFFABRRRQAUUUUAFFFFABRRRQAUUUUAFFFFABRRRQAUUUUAFFFFABRRRQAUUUUAFFFdT8Pvhj41+KGqf2Z4P0d7hUcLcXkmUtbXOOZJMEA4OdoBcjopoAw9E0TV/EusWfh/QNPlvtRv5RDbW8Q+aRjz34AABJY4CgEkgAmv0K+CPwnsfhD4Li0NZIrnVLpvtOqXiA4mnIxtUnny0HyqOOhbALNVL4LfAfwz8HtPeaBhqWv3abLzVJI9rbeD5US5Plx5AJGSWIBYnChfTqACiiigArxv4gfsq/C3xvJJf6fYyeG9Skyxn0sKkTt/twEeWeeSVCsT1avZKKAPiHxV+xn8UNGZ5PDd9pXiKBfuKkn2S4b/gEh8sf9/a811f4OfFnQpGj1L4b+Ihs+81vYvcoP8AgcIZf1r9KKKAPyzuNE1yzYpd6JqMDDqstpIhH5rUP2G+/wCfG5/78t/hX6pUUAflb9hvv+fG5/78t/hR9hvv+fG5/wC/Lf4V+qVFAH5W/Yb7/nxuf+/Lf4UfYb7/AJ8bn/vy3+FfqlRQB+Vv2G+/58bn/vy3+FH2G+/58bn/AL8t/hX6pUUAflb9hvv+fG5/78t/hR9hvv8Anxuf+/Lf4V+qVFAH5W/Yb7/nxuf+/Lf4UfYb7/nxuf8Avy3+FfqlRQB+Vv2G+/58bn/vy3+FH2G+/wCfG5/78t/hX6pUUAflb9hvv+fG5/78t/hR9hvv+fG5/wC/Lf4V+qVFAH5W/Yb7/nxuf+/Lf4UfYb7/AJ8bn/vy3+FfqlRQB+Vv2G+/58bn/vy3+FH2G+/58bn/AL8t/hX6pUUAflb9hvv+fG5/78t/hR9hvv8Anxuf+/Lf4V+qVFAH5W/Yb7/nxuf+/Lf4UfYb7/nxuf8Avy3+FfqlRQB+Vv2G+/58bn/vy3+FH2G+/wCfG5/78t/hX6pUUAflb9hvv+fG5/78t/hR9hvv+fG5/wC/Lf4V+qVFAH5W/Yb7/nxuf+/Lf4UfYb7/AJ8bn/vy3+FfqlRQB+Vv2G+/58bn/vy3+FH2G+/58bn/AL8t/hX6pUUAflb9hvv+fG5/78t/hR9hvv8Anxuf+/Lf4V+qVFAH5W/Yb7/nxuf+/Lf4UfYb7/nxuf8Avy3+FfqlRQB+Vv2G+/58bn/vy3+FH2G+/wCfG5/78t/hX6pUUAflb9hvv+fG5/78t/hR9hvv+fG5/wC/Lf4V+qVFAH5W/Yb7/nxuf+/Lf4UfYb7/AJ8bn/vy3+FfqlRQB+Vv2G+/58bn/vy3+FH2G+/58bn/AL8t/hX6pUUAflb9hvv+fG5/78t/hR9hvv8Anxuf+/Lf4V+qVFAH5W/Yb7/nxuf+/Lf4UfYb7/nxuf8Avy3+FfqlRQB+Vv2G+/58bn/vy3+FH2G+/wCfG5/78t/hX6pUUAflb9hvv+fG5/78t/hT49L1SZtsOl3sh9Et3P8AIV+p9FAH5l6b8M/iRrDKNL+H3iW4D9HXSpxH+LlQo/E16B4b/ZK+NGvMrX2k2GhQnB8zUb1SxHskPmHPs238K+9KKAPnnwN+xj4F0N47zxrq134kuE5+zqptbTPUZRWLtj3fae69q980zS9M0Wwh0rRtOtbCytl2Q21rCsUUa9cKigADnsKtUUAFFFFABRRRQAUUUUAFFFFABRRRQAUUUUAFFFFABRRUdxcQ2lvLdXUqxQwoZJHY4CqBkk+wFNK+iAkorxr/AIbK/ZX/AOi9eDf/AAZJR/w2T+yv/wBF68G/+DJK9v8A1Yzz/oDq/wDguf8A8iZe3p/zL7z2WivGv+Gyf2V/+i9eDf8AwZJXoXgP4jeBfihojeJPh54q07xBpaXDWrXdhMJYxKoUsmR3AZTj3Fc2LyXM8BT9tisPUhHa8oSivvaSKjUhJ2i0zo6KyPFHi7wp4H0eXxF408TaVoOlwsqyXup3kdtAjMcKDJIQoJPAGea8I1D/AIKJfsa6XeS2Nz8abZ5Im2s1vo2o3EZ/3ZI7dkYe4JrTLeH83zmLll2FqVkt+SEp29eVMU6tOn8ckvVn0dRXingz9tT9lXx9IIfD3xw8NJKxCpHqUzaa7sTgKq3axliSegya9oiljnjSaGRZI5FDI6nIYHkEEdQa58flWPyqfs8fQnSl2nGUX90kioVI1NYu4+ivOfG/7RfwL+GuvP4X8ffFTw5oOrRxJM9nfXixyqjjKsVPYisH/hsj9lf/AKL14M/8GaV00eHs4xFONWjhKkovVNU5NNd00tSXVpp2cl957JRXH+C/jF8JfiPM1r8P/id4V8R3EaeZJBper29zKi+rJG5ZR9QK7CvOxGGrYSp7LEQcJLpJNP7mWpKWqCiuW8efFT4a/C+zjv8A4jePdA8NQzBjCdT1CK3abaMkRq7BpD7KCa8TuP8Ago7+xjbTNbv8ZVZkYqzR6Dqjrx6MtsQR7jNepl/DWdZvT9rl+Dq1Y94U5yX3xTInWp09JyS+Z9K0V5r8K/2kfgX8bG8j4X/E7RdbuwjSmxWRoLwIuNzm2mCTBRkZbZjkc16VXnY3A4rLqzw+MpSpzW8ZRcWvk0mVGUZq8XdBRXK+PPit8M/hbZpf/Ebx9oHhuGYMYf7T1CK3abbyRGrENIfZQTXilx/wUd/Yxt5mt3+MqsyMVZo9B1R149GW2II9xmvRy/hrOs2p+1y/B1ase8Kc5L74pkzrU6ek5JfM+laK8++FX7QHwX+N1u83ws+I2j6/JFGZpbWGUx3cUeQN720gWZFywG5kAycZzXoNebi8FicvrPD4unKnNbxknFr1Ts0VGUZq8XdBRRRXMUFFFFABRXlfxL/al/Z5+D9xLY/EL4taBpl/bttmsI5zdXkRwD89vAHlXIPGVGa4Sw/4KKfsa6ldR2dv8abdJJDhWuNF1KBB9Xkt1VfxIr6DC8J5/jqKxGFwNadN/ajSm4/eo2MpV6UXyykk/VH0fRXP+DfiB4F+IumnWfAPjLRPEdirBXuNKv4rpEYjO1jGx2t7HBroK8OtRqYeo6VaLjJbpqzXqmaJp6oKKwvGnjnwf8OfD8/izx14ksNC0e2aOOa9vphHEjOwVASe5YgVw/h/9qn9nHxXrlj4a8OfGnwnqGqanOttZ2sOooZJ5WOFRRnlieAO5IFdmHynMMZReIw9Cc4K95RjJxVtXdpWVlqyXUjF2b1PVaKKpa1rOleHdHv/ABBruoQ2Om6ZbS3l5dTttjggjUvJI5PRVVSSfQVwxjKclGKu2XsXaK8a/wCGyv2VwM/8L68G/wDgySvYLa5t7y3ivLO4jngnRZIpY2DJIjDIZSOCCCCCK7cbleOy3leMozp823NGUb23tdK5MZxn8LuS0UV5X4i/ao/Zx8J65feGfEnxo8J6fqmmTNbXlpNqKCSCVfvIwzwwPBHYgg8ioweX4zMZOGDpSqNatRi5NLvomEpxh8TseqUVzfgL4keA/ijor+I/h34s03xDpcdw1q91YTCWNZlVWZCR3AdTj/aFdJWFehVw1R0a0XGS3TVmvVPVDTUldBRRRWQwooooAKKKKACiiigAooooAKKKKACiiigAooooAKKKKACiiigAooooAKKKKACsnxd/yKmtf9g+5/8ARbVrVk+Lv+RU1r/sH3P/AKLatsN/Gh6r8xPY/nL8N+H9U8WeItL8K6LCkuo6zewafaRvIEV5ppAiAsxAUFmHJ4FfTX/Dsb9sD/oQ9L/8H1n/APHK+evhj4k0/wAG/Erwn4w1aO4ksdD1yw1K6S3VWlaKG4SRwgYqC21TgEgZxkjrX6qf8Pef2a/+hL+JX/gssP8A5Mr++PETPuM8nxFCHC2DjXhJPnbi5Wd1bacd1fufLYSlh6ift5WPjD/h2N+2B/0Iel/+D6z/APjlff37HvgfxV+x/wDsp+JZvjdpiabJoF5qfiK5htbqK5Z7VbeNhsZW2l28plVcjJIHeuQ/4e8/s1/9CX8Sv/BZYf8AyZXc+MPijof7aP7FvxK1z4T6Pr9uJrC+srez1C2jW6nuLVEn8tEhkkDeZ8qLzklsYFfh3F+ecccQYWhl/FuCjh8HOtTUpqLi1d23c5dG+h6eHpYalJyw8rysz8pvjJ8a/i9+1l8UIdR16S+1S9v7w2mgaBZ7pIrMTOFS3toh1ZsIC2NzlQWJ4x7xoP8AwSX/AGoNY0m31HUNW8CaHcTLuewv9WuHnhP91zb28sRP+67D3r5y/Z5+LP8Awoz40eFPis2kjU4tAvDLPabgGlhkjeKQKTwHCSMVJ43AV+vfgf8A4KQfsj+NILXzPiPJ4dvbkZNlrmnT27Q9OHmVXtx17Snoa/U/EbOeK+DKeGwXB2BTwsYauFNz5Wm/d5Y/CktXJr3m99HfhwdOhiOaWIl73rY/M/4tf8E+P2ovhFZ3Osah4FXxHpNoN0t/4cn+2qo5JYw4W4CgAksYtoHUivq//gjfrGsXehfFDRbrVr2bT9Pn0eSzs5Lh2gtnlF55rRxk7UL7E3FQC2xc5wK++fB/xI+HnxDgkuvAPjzw94kih/1j6TqcN2I/97ymbb+NTeH/AAH4H8J6lq+s+FfBuhaNqHiCf7Vq11p+nQ282oTbnbzLh41DStukkO5yTl2Pc1+IcTeMOY8R8O4nh/PcKo1pcnLOKcbcs4yfNCV9Wk1dNb7WPSo5fCjWjVpS0Px+/wCCp/8Aydlf/wDYC07/ANAauL+FH7Bf7RPxo+H2mfEzwHouj3Oiav5/2V59VihkbyZnhfKNyPnjYDPbB712n/BU/wD5Oyv/APsBad/6A1foL/wTb/5Mw+H3+9q3/p1u6/Ws14yzHgfw2ynMcsUXOSpQfOm1Z05y6Na3iupwww8MTjKkJ7a/mfkT8VvgP8cP2bdf03/hY3hXUfDN7K/2nS9QguUkjd42BDQ3EDsokU7W2hg65UkDIr9NP+Ca/wC154k+Onh/U/hX8TtTGoeLfCtsl1aajJ/r9S03cIy02OGlido1aTgussZILh3Zf+CtHiDwvY/s46Z4d1aa3bWdV8RW02k27Ovm5hjk86ZVJyVVJNjMOhnQH7wr5X/4JI2OoXH7TGr3lrvW2tPCN4bpsHaVa5tQqE9MlsMB/sH0rizjMIeJfhpXz3OMPGFejzOEoprWLWsb3ajLWLjdq67pWqnB4PGKlTd0zhP2g/hL8WPjr+2V8UPD/wANfCereKNQi8QTxyGHmK1jHyp5s8hEcKYQqu9lHyhR6V3mm/8ABI/9pm+sIry68TfD3T5pVDNa3GqXbSRH+6xjtXTP+6zD3r9ga+TfH3/BTT9mv4d+I9e8JatH4tu9W8O6jc6Xd29npSHM8ErRSbGklRSNyHBJGRXx+VeLfGmdUaOW8LYJctCEIu0XUlolG7fuqKdtFy6fzM6J4DD02515bv0PyV+JHw2+Kf7NnxOfwv4qiu/D3ijQ5YryzvLG6KkjO6G6tp4yCQcZDKQysCpCsrKP2u/Yy+NmrfH79nnwz4/8SNG+vbZdO1d40VFluoHKGXaoCqZECSFVAVTIQBgCvyD/AGoPjt4g/a9+Oi+LNF8I3cBuIbbQtA0e3U3V28SuxRMIuZJZJZZG2qON4Qbtu4/r5+xn8EtU/Z//AGevDXgDxEsa68RLqWrrG4ZY7qdy5i3KSrGNNkZZSVYxkjgivovHGrGvwnl1TO4QhmTcW4xtdLlftEtX7vNy31a5rWb3McsVq81T1h/Vj8sv2ifhL8Vvjp+2d8T/AA78NPCWreJ9Qi16VJDDzFbRhQqebPIRHCmE2qXZRwFHYV3Wnf8ABI/9pq90+K8uvEvw+0+aRAxtLjVLtpIz/dYx2rJn/dZh71+wNFfB1PHzP8PhcPgsro06UKUIw1XPKXLFRvd8qSdr2Ubr+ZnUsrpOTlNttn88ni7wj8Wv2Y/iu2i6x9t8L+MfDc0dxb3FncDK7l3RzRSocMjK3Y92VgCGUft7+yb8bJv2gvgL4X+JWoQxQ6tdQvaatFF91b2BzFIwGPlD7RKF52rIoycZr8sP+CmnxK0P4jftTanb+H5I5oPCOm2/hua4jIKy3MMkss34pJO0Rz3iPbFfoH/wTL8I6h4V/ZJ8PXWoxvG/iC+vtXjjkUqyRNKYozg9mWEOCOCrg96+58Y5RzvgXLc+zKkqeMk4bLW04SlKOuvK7KVnflel9Xfly/8Ad4qdKDvHU+qqKKK/lI90K/M3/gor+3d4o0rxPffs/wDwT1+TSk0w+V4l12xnxcyXGObKCReYlj4811O8vmP5AjiT9D/iR4uj+H/w78U+PZoPOj8NaLfau0f98W8DylePXZiv58/B2g658Yvitovhq61V31fxt4gt7Ka+uMyMbi7uFRpn7t80hY/jX794E8I4DN8Xic9zWKlSwqXKpK8eZ3bk115Iq9n1ae6PKzTESpxjSp7yPQv2f/2Ofjr+0okupeAPD9vb6HBL5M2uatObayEnOVUhWklIx83lo+3I3YyM+z65/wAElf2ndK02a+0/XPAWszxJuWys9UuEmlP91TPbxx5/3nUV+tfgnwb4b+HfhHSPA/g/TI9P0bQ7SOys7eP+CNBgZJ5ZjyWY5LMSSSSTW3VZt9IbiKtjpVMthThQT92Mo8za/vO+768tktl3ZTymio2nds/nl1TSPjd+zH8RPst/H4j8AeLrBS0ckUz20rxFipaOWM7ZoWKMNylo32kZIzX9C0DM0MbMcllBJ/CuN+KvwV+Fnxu0WDw/8VPBdh4hsrWXzrcXG9JIH4yY5Y2WRM4AO1hkAA5rtBtjjA4VUH5AV8n4j+IlHxBw+CqSw/ssRS51Uatyy5uTl5X8VlaXuy+G+jd2b4PCPCOSvdO1j81P+CwHxe+XwX8C9OuOu7xPqqbP9+C0Ab/wLLL/ANcz6V+cPh/XtW8K69pvifQbx7PU9IvIb+yuI/vQzxOHjce4ZQfwr0n9pf4oXn7QH7Q/izxzpazXsOtar9j0WJI23yWceILVVj5IZo0QlR/G7dzXtn7f37Ktr+z5ovwo1TQ7O2W3n8OR6FrU1rEwSbWLb95LcsT3n85to64gNf1VwZSwHBGVZXwtjFaviYzbT6y5eeopel+RX3skeHiHLE1J147R/wCGR+tfwp+IWl/Fj4a+GfiToqhLTxHpdvqCxbw5gZ0BeFiOCyPuRvdTWH+0n/ybr8U/+xK1z/0hmr5Q/wCCR/xe/wCEk+E/iD4Palclrvwdf/brBWdf+PC7LMURep2TrMzHp/pCCvq/9pP/AJN1+Kf/AGJWuf8ApDNX8e5zw/LhbjN5S9qdaPL/AIHJSg//AAFq/mfQUqvt8P7Tuj+euv2U/wCCYPx6b4qfAkfD3Wrwy698Omj035j80umOCbN+gHyBHgwM4WBCTl6/J34P/Da++L/xG0n4b6VdJb6hrv2iCyeT7huVgkeFGP8ACrSIqluwYnBxivSf2M/jdc/s3/tFaL4i11pbHR7uVtB8SRTKUMVpK6q7uCpYGGVY5SANx8or/Ea/sbxV4bo8ZZFiMto64qjFVoLr9pJf9vqM4r+9ZvZHz+BrPD1VN/C9D9mv2h/jFpvwF+Dfif4paisUsmj2Z+w28mcXN7IRHbxEAg7WlZNxHITc3av59tZ1jVPEOsX2v65fTXuo6ncy3l5dTNuknnkYu8jHuzMSSfU19+f8Fb/jn/b3jbQfgFo11us/DCLrOtKvQ380f+jxkEZBjt3L5BwRdc8rXxX8RPhjrHw30nwRe66JI7nxp4cTxNFbum0w2st1cQwd/m3x26zA/wB2ZRjINfL+BfDlHhzIoY7FaV8a+aK68kU3FfNXnfa0op62NszrOtVcY7R/M/VX/gkv/wAmv33/AGNl9/6T21faVfFv/BJf/k1++/7Gy+/9J7avtKv5g8T/APksMx/6+yPawX+7w9Aooor4Q6gooooAKKKKACiiigAooooAKKKKACiiigAooooAKKKKACiiigAooooAKKKKACsnxd/yKmtf9g+5/wDRbVrVk+Lv+RU1r/sH3P8A6LatsN/Gh6r8xPY/nX8B+F28b+OPDvgtb4WZ1/VrTSxcmPzBD58yx79uRu27s4yM46iv0J/4c06h/wBHDW//AISzf/JdfB3wRvLPT/jR4B1DULyC0tbbxRpU09xPIscUUa3cZZ3diAqgAkknAAJNfvJ/w0V+z9/0XT4e/wDhT2X/AMdr+zfGbi7irhrF4Wnw7OUYzjJytTjPVNW+KMrfgfO5dh6FaMnW/Ox8F/8ADmnUP+jhrf8A8JZv/kuvsv8AZI/Z0n/Zf+Fc3w1uPF0fiQyatcamLxLE2mBIka7NhkfOPLznPfpxz1P/AA0V+z7/ANF0+Hv/AIU9l/8AHa5D9ob9oq18A/s2+LPjf8H9a8LeK5tBa2it5FuhfWLSvdwQujm3kBJVZicBwQdueOD+AZvxVxzxrGlkmaTlKFWpCMVKlCC52+WN5KEbavuerToYbDXqU+i73Pnz9pj/AIJY+FPiTrmoeOfgn4jtfCOr6hJJc3Oj3sTNpk87kEtGyAvbAksSoWReQFVAMV8eeLv+CaP7XnheaYWfgCx8Q20ALG60jWLZlcf7MczxzN9Ama+8/wBnX/gph8EfitpNppfxO1W0+H/iwIqXEeoSFNMuH53SQ3TfLGpwDsmKlS4UNJgsfrbSdc0XX9Pj1bQdYstSsZRujurS4SaJx6h1JB/OvqYeJXiH4dtZZm1PmUPdXtoN3S/lqRceddnzS/Cxh9TwmL9+m/u/yP54Nc8K/Ff4J+J7OTxBoPijwPr9s32mxmuLefT7lSrEebC5CsQD0dDj0Nfqb/wTb/bE8VfHbTdV+E/xQvBqHirw1Zrf2erEYl1HT96xt54AC+bE7xL5g5kWRdw3Kzycr/wVU+N3we1j4TWXwo0vxJpOu+LxrkF79nsbhZ20xI45A7ysmRG7BwgjYhiHJxgV4v8A8EiPC+sah8ffEviyCCYaXo3hiW2up1HyCe4uIfJib3ZYZmH/AFyNfpXE+Lo8f+HNfPs6waoV6abpt76SSTi2k+Wd+Xld03rq7M46MXhMYqVOV09zk/8Agqf/AMnZX/8A2AtO/wDQGrxvwT+1h+0V8N/CNn4E8C/FbWNG0HT/ADfstlbCILF5kjSPtJQsMu7t16sa9k/4Kn/8nZX/AP2AtO/9Aavur/gnX4H8F6v+x94B1TVvB+iXt7I2q77i40+GSVsapdAZdlJOAABk9ABXfieJ8v4T8OcpxuZYOOKg1SioS5bJunJqXvRkrpRa2vruSqM6+MqRhLl3/M/KLSNA+P8A+1J44Cafb+LPiH4jkVIXubiaW6NvEXO0STynZbwhnOC7Ki7j0r9gf2If2SrT9ln4e3Vvq91BqHjLxI8dxrd5AzGGMRhvKtos4yib3JbALM7E8BQv0XbWttZwJa2dvFBDGMJHGgVVHsBwKlr8I488XsdxjgllOFoRw2FVrwi7uVtUm7RXKnqoqK13bsj08Ll8cPL2kneQV+cXxX/4JP8Aif4g/ETxh8QdP+NGl2zeJdcv9Yis5tGkxCLi4eURtIJedu/GQvOOlfQXwv8A+CiX7NHxI16+8L6h4muPBWqWc7wLH4oEVpDcbCQzJcLI8I5GNrujEn5Qa+j49a0ebS/7ci1azfTjH532xZ1MHl/3t+du33zivAy3MuLfDDFz9hCWHqVEk+ammpLdW5k0/WJtOGHxsddUvM/Bj4qfCv42/sT/ABisLO613+yfENpCmp6Preh3jGK4gfchZGIVsZEkbxyKMgMCGRlLfr5+xX+0NcftK/AvT/G+rwLD4g025k0bXFjTbG95EqP5sY/uyRyxPgDCszKMhcn85P8Agp78dPAvxi+MWiaT8PdYs9a07wlpbWs+qWcgkgnupZC7pG65WREVY/nUkFmcDpk/WX/BI/wxqmj/ALOut+INQtpoYNf8T3E1jvXCzQRQQxGVD3HmrKh94jX7f4oUpZ74eYPP88oqnjrwV7csmpOXu23tKPv8vR7W1PMwT9li5UqbvH+v+GPuCvgj9v79vq2+G9pqPwT+CutCTxhMrWus6zaycaKp4aGJx/y9HkFh/quf+Wn3OV/bi/4KQNpbav8ABn9nnU3S/R5LDWPFULFTbkErJDYnrvzlTcD7vJi+bbKvxx+y7+zpp/x48XJcePPiJofgzwZYz51XUtQ1W2t7q5xhjb2kcrZeVgRmRgUjBLHcQsb+B4deFlDLcN/rXxhHkowXNCk025dU5RWr/u07Xk91bSWuLxznL2GH3fX+vzNj9jH9kHxN+1F46SS6W403wJos6NrurBOZMYb7Hbk8NO4xk8iJW3sCdiSfuJo+j6X4e0ix0DQ9PgsdN0y2is7O1gQJFBBGoSONFHAVVAAA6ACvM/APjT9mL4X+EdN8C+AviH8P9H0PSYvJtbS31+0wo6lmYyFndiSzOxLMxJJJJNd14Z8e+BfGklxH4O8aaFrr2YRrhdM1GG6MIbO0uI2O3O1sZ67T6V8F4ncZ5txxjvrFajOlhaV1Ti4vRPeUntzS08lol1b6sFh6eGjZO8nufh98Xv2lv2idL+LHjXTNL+PHxBtbO08RalDbwQ+JbxI4o1upAqIokwqgAAAcAAAVyf8Aw1J+0v8A9HB/Ef8A8Ki9/wDjlfvrJ4R8KTSPNL4Z0l3kYszNZRksSckk7eSTTf8AhDvCP/Qq6P8A+AMX/wATX6BhvHPJKFGFKWSQbikr80NbLf8AhHK8sqN39p/X3nwX+y1438dfEz/gnR8b9W8ceMdb8S6pHb+J7WO61S+lvJ1iXRoXWINIxYLl2IXOMufWvgj9k2/ttN/ac+Fl1d48v/hLdMiyegL3CIpP0LA/hX74v4c0F9Iu9B/sezTTr+OSG5to4VSOVHXa4YLjqvBr+fP4zfDHxN8A/i9r/wAO9UkuLe/8OaiRZ3anY80OQ9tcoVPy74zG4wcqTg4IIH1XhFn+D4trZ5gqUFQeI9+MNHaMouErWUb8r5b6L4kYY+lKgqUnrY/oeor5f/ZJ/bm+GX7QHg/TdN8TeJNM8P8AxBt4o7bUtJvJ1txezhcGezLYEqPtZvLUl4+VYEbXf6M8ReKPDPhDTJda8WeItM0XT4QWku9Ru47aFAOpZ5CFH4mv5bzfh/Msix8stx1GUaqdrWevnH+ZPo1oz26dWFWPPF6GpXzt+358XP8AhT/7L/izUbW4MWqeI4x4a00gsp827VlkZWXlWS3W4dT/AHkWvDv2nP8Agqh4R8B3K+GP2eLXTPGOrRSf6Zq99HKdKhAYgxxBHje4Y4zvVhGAVKtJkhfEv+CtXxgPij4peG/hDp9wptfCGnC/1BUdh/p94qsEdeh2QLCynr/pDiv1DgPwvzerxBls82oOnRqOVS0vi5aPK3zR3ipSlCOtm+a5xYrG01Sn7N3a0+8+WP2a/HHw9+Gfxv8ACfxE+J2n6xf6H4avRqhttJhjkuJLmJS1sQJJI1AWYRuctyEIxzX2B+2F+3x+zj+0t8D9T+HOl+EfHlpraXVvqWjXV9p1mIILqJsEuUu2YBoXmjyFOPMzg4xXD/sv/wDBNPWP2iPhHYfFjU/isnhSDVrq5jsLNdD+3GW3hcxGZn+0RbCZUlXbtPCBs/Ngesf8OZf+rkP/ACz/AP7ur9x4p4l8Oa/EdPHZrjpxxeDlypRVXljKEm2vdpuL1upau60ex5lCjjFRcacfdl6f5ny3+wH8XP8AhUH7UHhTUbq4EWl+I5D4a1IkqB5V2yrGzM3Cqtwtu7H+6jV+xf7Sf/JuvxT/AOxK1z/0hmr8L/2gPg3rH7Pvxf8AEHwp1bURfzaHNH5F8kJhF1BJGssUoTc20lHXKhm2sGGTiv190/4tj44f8E+fEHxImnWW/wBR+HOsw6oVULi/hsp4bn5R90GWN2Uf3WU96+R8ZsooY3MMo4swD5qVaVODktmm1Om/nFy3s7JL06MuqOMalCW6v/wT8tP2F/8Ak7b4Zf8AYY/9oyV6h/wU++A6/Cz48n4gaLZiLQviKkmpjaMLFqSEC8TqT87PHPk4y07gcLXl/wCwv/ydt8Mv+wx/7Rkr9g/2qv2b9F/ai+Fcnw51TWf7Fu4b6DUdN1X7Kbk2c8ZKsfKEke8NE8qYLgAuG5KgV9Hx7xlHgrxCwGMxErYedDkqbv3XUl71ld+7JKWibtdLcxwuH+s4SUVunp9x+NP7Mvwh1v8Aab+P3h7wPql1f3ttdzrea9eySu8kenQAGYmQhirMoWJGPAeSMdK97/4K4Wlrp/7Q3hOxsbWK2trbwJZQwwwoESNFvr4KqqOFAAAAHAAr7j/Y5/Yh8P8A7JkviLVj4x/4SzW9fWG3W/bS1svstqmWMKL5sh+dyGc7sHy4+BtyfiL/AIK9/wDJyHhn/sSLT/0vvq58k46w/GfiVQhls+bCUKM1DRxTbScpWaTXSOqXw36jqYWWHwb5/ibR9S/8El/+TX77/sbL7/0ntq+0q+Lf+CS//Jr99/2Nl9/6T21faVfzn4n/APJYZj/19kevgv8Ad4egUUUV8IdQUUUUAFFFFABRRRQAUUUUAFFFFABRRRQAUUUUAFFFFABRRRQAUUUUAFFFFABWb4ktri88O6pZ2sZkmnsp440BALM0ZAHPHJNaVFXCbpyU10B6n4V/8O+v2xP+iJ6h/wCDGx/+PUf8O+f2xP8Aoieof+DGx/8Aj1fupRX9A/8AEx/Ev/QNQ/8AAan/AMsPJ/sej/M/w/yPwr/4d8/tif8ARE9Q/wDBjY//AB6vu39nH9kXx9rH7Dviv9nP4pQ3PgbVvEWuyXKzNHDeNFGslpLHJsjl2sGaAqRvU4z04r7nor53iTxt4g4lw1PD1KdKm6dSFSMoRldSg7xfvSlF69GmbUctpUZNpt3VvvPxX+I//BMP9qjwPcStoPh3TPGenoGcXWi6hGHCBsKGguDHIXIwdsYcDnk9a8euP2V/2mbW4NrJ+z78RWcHGY/DN5In/faxlf1r+gmivo8B9I3iHD0+TF4elUa6+9Fv1s2vuSMZ5RRb91tH4m/Cf/gmv+1B8SdQtTrnhNPBOjSOPP1DXZVSREyN2y1UmZn2klQyopIwXXqP1e/Zx/Z18C/sz/DuHwF4LWa5klk+1apqdyB5+oXRABkYDhFAAVEHCqB95izN6pRXwfG3inn3HNNYbGONOgnfkgmk2tnJttyt6262udWGwNLDPmjq+7Py9/4KCfsm/tDfGL9oq88Z/Df4aXmtaLJpNjbrdx3lrGrSIrBlxJKrcE+lfZf7Dfw98ZfCv9l7wb4D8f6HJo+vaY2o/arOSRHaLzNQuJU+aNmU5R0PB717vRXJnfiHmWfcO4XhrEU4Kjh3FxklLmfJGUVduTW0neyWpVPCQpVpVk3dhRRRXwJ1H41fGn/gmb+074X8QanrHhXRdN8a6Xc3E90k2k3iRzojSEgPbzlH34P3Y/MHvXhEn7Lf7S8MzW7fs9/EgsrbSV8L3rLn2YR7SPcHFf0GUV/QWWfSK4gwdBUcVh6VVrTm96L+dm19yR5M8opSd4to/HH4A/8ABMH45fEbXLK++LGnv4C8Kh1kumuJI31K4i5zHDAC3lOcBd023buDBZMbT+ungvwb4Z+HfhPSvA/g3SYdM0TRLVLOytYskRxqMDJJLMxOSzMSzMSzEkk1tUV+c8b+IudceVYSzGSjTh8NOCain31bblbq3p0Suzsw2Ep4Ve5v3PxJ8f8A7Bf7W+sePPEmr6b8Gb+a0vtXvLmCT+0LIb43mdlbBmyMgg1g/wDDvn9sT/oieof+DGx/+PV+6lFfodH6RXElGnGnHDULJJfDU6f9xDkeUUXrd/h/kfhX/wAO+f2xP+iJ6h/4MbH/AOPV9wf8Exf2d/jN8CtS+Ic3xY8D3Ph9NZg0tbFprmCXzjE1yZAPKdsY8xOuOtfelFeJxT4255xZlNbJ8ZQpRp1OW7ip83uyUla82t49tjWhltKhUVSLd1/XYKKKK/Gz0Ar56/a4/Yz8BftVaDbTX1wNB8Y6TH5ema/DAJG8nJY21wmR50JLMyjIaNiWUgNIsn0LRXp5PnGOyDGwzDLajp1YbSX5NbNPZp3TWjIqU41Y8k1dH4bfET/gnf8AtYfDu6mQ/DWTxLZRttS+8OzrepLxnKxDFwB/vRLXD6P+yT+1Brl8mn2XwA8exyucBrzQbi0j/GSZVQfia/oBor91w30j8/p0eSvhaUp/ze8vm1zP8GvkeY8npN6SZ+R/wf8A+CTfxj8SSR6p8ZNcsPBmmxsWlsLORNR1KUKQSq+W3kJuXOH8xyDjKGuJ+J/7G/7bHxf+KHiH4h618F7+C68T6tNessurWbJbJI/yR7vOzsjTag4+6gr9pqK8ah4+8T08ZPG1qdGcmuWKcZJQTd5KNpJ+81G/M5fCrW1vo8qouPKm1+pzvw68EaV8NfAPh34e6HzY+HNMttMgcoFaRYY1TzGA43MQWY9yxNdFRRX4rXrVMTVlWqu8pNtvu3q2eilZWR+fv/BS79kT4lfGjxZ4R+I3wf8AB8mu6nHYzaRrMMV1DCVijfzLaTEjKG5luFY5zxGPpR/ZF+DH7S3w+/Zy+N/wP+IHwxv7BNf0DUbrwyGubVxPf3FjJby2+9ZjtLlbYqGwoxISRnn9EKK/RqXijmsOHaXDdWlTnSpOLjKSlzpxnzx1UktPh2+HTzOR4KHtnWTabPyG/ZL/AGLf2nvh3+0d4D8a+MvhPe6bouk6n595dvfWjiFPLcbiqSljyR0Br9eaKK8njjjrH8e4ynjswpwhKEeRKCkla7evNKWupeGw0cLFxg9wr82/+Ck37Lvx6+N3xw0LxV8Lfh3da9pVp4UttPmuYru2iCXC3l27JiWRWyFljOcY+br1r9JKK4+DuLcZwVmizXAwjKai42ndq0t9nF/iViKEcTD2ctj5b/4Jz/CX4ifBj4B3nhD4neGJtC1d/Ed3eJbSzRSloXht1V8xMy4JRhjOeOnSvqSiivNz/Oa3EOZ180xEVGdWTk1G9k32u2/xZdKmqUFCOyCiiivINAooooAKKKKACiiigAooooAKKKKACiiigAooooAKKKKACiiigAooooAKKKKACiiigAooooAKKKKACiiigAooooAKKKKACiiigAooooAKKKKACiiigAooooAKKKKACiiigAooooAKKKKACiiigAooooAKKKKACiiigAooooAKKKKACiiigAooooAKKKKACiiigAooooAKKKKACiiigAooooAKKKKACiiigAooooAKKKKACiiigAooooAKKKKACiiigAooooAKKKKACiiigAooooAKKKKACiiigAooooAKKKKACiiigAooooAKKKKACiiigAooooAKKKKACiiigAooooAKKKKACiiigAooooAKKKKACiiigD//2Q==;" vertex="1" parent="1">
          <mxGeometry x="545" y="465" width="92" height="92" as="geometry" />
        </mxCell>
        <mxCell id="P-ReLISwFB9qMGB5_NRq-6" value="" style="shape=mxgraph.cisco.routers.wireless_router;sketch=0;html=1;pointerEvents=1;dashed=0;fillColor=#036897;strokeColor=#ffffff;strokeWidth=2;verticalLabelPosition=bottom;verticalAlign=top;align=center;outlineConnect=0;" vertex="1" parent="1">
          <mxGeometry x="440" y="186.5" width="78" height="77" as="geometry" />
        </mxCell>
        <mxCell id="P-ReLISwFB9qMGB5_NRq-7" value="" style="shape=mxgraph.cisco.computers_and_peripherals.laptop;sketch=0;html=1;pointerEvents=1;dashed=0;fillColor=#036897;strokeColor=#ffffff;strokeWidth=2;verticalLabelPosition=bottom;verticalAlign=top;align=center;outlineConnect=0;" vertex="1" parent="1">
          <mxGeometry x="677.5" y="256" width="90" height="61" as="geometry" />
        </mxCell>
        <mxCell id="P-ReLISwFB9qMGB5_NRq-10" value="" style="image;points=[];aspect=fixed;html=1;align=center;shadow=0;dashed=0;image=img/lib/allied_telesis/computer_and_terminals/Smartphone.svg;" vertex="1" parent="1">
          <mxGeometry x="94.38" y="221" width="41.25" height="90" as="geometry" />
        </mxCell>
        <mxCell id="P-ReLISwFB9qMGB5_NRq-11" value="" style="image;points=[];aspect=fixed;html=1;align=center;shadow=0;dashed=0;image=img/lib/allied_telesis/computer_and_terminals/Laptop.svg;" vertex="1" parent="1">
          <mxGeometry x="75.57" y="100" width="78.87" height="80" as="geometry" />
        </mxCell>
        <mxCell id="P-ReLISwFB9qMGB5_NRq-12" value="" style="shape=mxgraph.cisco.modems_and_phones.modem;sketch=0;html=1;pointerEvents=1;dashed=0;fillColor=#036897;strokeColor=#ffffff;strokeWidth=2;verticalLabelPosition=bottom;verticalAlign=top;align=center;outlineConnect=0;" vertex="1" parent="1">
          <mxGeometry x="339" y="490" width="90" height="35" as="geometry" />
        </mxCell>
        <mxCell id="P-ReLISwFB9qMGB5_NRq-14" value="" style="html=1;outlineConnect=0;fillColor=#CCCCCC;strokeColor=#6881B3;gradientColor=none;gradientDirection=north;strokeWidth=2;shape=mxgraph.networks.cloud;fontColor=#ffffff;" vertex="1" parent="1">
          <mxGeometry x="425" y="20" width="90" height="50" as="geometry" />
        </mxCell>
        <mxCell id="P-ReLISwFB9qMGB5_NRq-15" value="" style="fontColor=#0066CC;verticalAlign=top;verticalLabelPosition=bottom;labelPosition=center;align=center;html=1;outlineConnect=0;fillColor=#CCCCCC;strokeColor=#6881B3;gradientColor=none;gradientDirection=north;strokeWidth=2;shape=mxgraph.networks.comm_link;rotation=0;" vertex="1" parent="1">
          <mxGeometry x="455" y="80" width="30" height="109.51" as="geometry" />
        </mxCell>
        <mxCell id="P-ReLISwFB9qMGB5_NRq-17" value="&lt;font style=&quot;font-size: 22px;&quot;&gt;Client&lt;/font&gt;" style="rounded=1;whiteSpace=wrap;html=1;strokeColor=#FFFFFF;" vertex="1" parent="1">
          <mxGeometry x="60" y="50" width="110" height="30" as="geometry" />
        </mxCell>
        <mxCell id="P-ReLISwFB9qMGB5_NRq-18" value="" style="endArrow=classic;startArrow=classic;html=1;rounded=0;entryX=1.005;entryY=0.397;entryDx=0;entryDy=0;entryPerimeter=0;" edge="1" parent="1" source="P-ReLISwFB9qMGB5_NRq-6" target="P-ReLISwFB9qMGB5_NRq-16">
          <mxGeometry width="50" height="50" relative="1" as="geometry">
            <mxPoint x="320" y="410" as="sourcePoint" />
            <mxPoint x="370" y="360" as="targetPoint" />
          </mxGeometry>
        </mxCell>
        <mxCell id="P-ReLISwFB9qMGB5_NRq-19" value="" style="endArrow=classic;startArrow=classic;html=1;rounded=0;entryX=0.5;entryY=1;entryDx=0;entryDy=0;entryPerimeter=0;exitX=0.11;exitY=0.2;exitDx=0;exitDy=0;exitPerimeter=0;" edge="1" parent="1" source="P-ReLISwFB9qMGB5_NRq-12" target="P-ReLISwFB9qMGB5_NRq-6">
          <mxGeometry width="50" height="50" relative="1" as="geometry">
            <mxPoint x="320" y="410" as="sourcePoint" />
            <mxPoint x="440" y="350" as="targetPoint" />
          </mxGeometry>
        </mxCell>
        <mxCell id="P-ReLISwFB9qMGB5_NRq-21" value="&lt;font style=&quot;font-size: 19px;&quot;&gt;Robot sight-eyes&lt;/font&gt;" style="rounded=1;whiteSpace=wrap;html=1;strokeColor=#FFFFFF;" vertex="1" parent="1">
          <mxGeometry x="387.5" y="690" width="155" height="50" as="geometry" />
        </mxCell>
        <mxCell id="P-ReLISwFB9qMGB5_NRq-22" value="" style="endArrow=classic;startArrow=classic;html=1;rounded=0;entryX=0;entryY=0.618;entryDx=0;entryDy=0;entryPerimeter=0;" edge="1" parent="1" source="P-ReLISwFB9qMGB5_NRq-6" target="P-ReLISwFB9qMGB5_NRq-20">
          <mxGeometry width="50" height="50" relative="1" as="geometry">
            <mxPoint x="320" y="390" as="sourcePoint" />
            <mxPoint x="370" y="340" as="targetPoint" />
          </mxGeometry>
        </mxCell>
        <mxCell id="P-ReLISwFB9qMGB5_NRq-23" value="" style="endArrow=classic;startArrow=classic;html=1;rounded=0;exitX=0.25;exitY=0;exitDx=0;exitDy=0;" edge="1" parent="1" source="P-ReLISwFB9qMGB5_NRq-5" target="P-ReLISwFB9qMGB5_NRq-6">
          <mxGeometry width="50" height="50" relative="1" as="geometry">
            <mxPoint x="320" y="390" as="sourcePoint" />
            <mxPoint x="370" y="340" as="targetPoint" />
          </mxGeometry>
        </mxCell>
        <mxCell id="P-ReLISwFB9qMGB5_NRq-24" value="" style="endArrow=classic;startArrow=classic;html=1;rounded=0;" edge="1" parent="1" source="P-ReLISwFB9qMGB5_NRq-12" target="P-ReLISwFB9qMGB5_NRq-4">
          <mxGeometry width="50" height="50" relative="1" as="geometry">
            <mxPoint x="320" y="390" as="sourcePoint" />
            <mxPoint x="370" y="340" as="targetPoint" />
          </mxGeometry>
        </mxCell>
        <mxCell id="P-ReLISwFB9qMGB5_NRq-25" value="&lt;font style=&quot;font-size: 21px;&quot;&gt;PC/Cloud Server&lt;/font&gt;" style="rounded=1;whiteSpace=wrap;html=1;strokeColor=#FFFFFF;" vertex="1" parent="1">
          <mxGeometry x="640" y="200" width="165" height="30" as="geometry" />
        </mxCell>
      </root>
    </mxGraphModel>
  </diagram>
</mxfile>
